<svg width="650" height="390" viewBox="0 0 650 390" fill="none" xmlns="http://www.w3.org/2000/svg">
<rect width="650" height="390" fill="#550000"/>
<g filter="url(#filter0_dii)">
<path fill-rule="evenodd" clip-rule="evenodd" d="M316.726 117H318.513L321.899 117.188L323.216 117L324.157 117.376L325.192 117.658H326.697L327.449 118.411L328.202 118.505L329.048 119.446L330.271 119.634L331.4 120.669L332.246 121.421L334.88 124.243L335.538 125.56L335.727 126.783L335.915 127.629L336.291 130.828L336.009 131.58L335.914 132.521L335.726 134.214L335.162 134.966L334.409 136.189L332.904 137.13L331.775 138.071H327.166L325.097 135.437L324.627 133.273L325.379 130.452L325.284 128.758L324.72 127.912L323.779 127.065L322.556 126.689H321.522L320.393 127.065L319.17 127.536L317.665 129.323L316.442 131.392L315.031 135.625L314.749 136.848V137.694L314.373 140.14L314.468 141.551L313.997 143.244L314.468 144.185V146.16L313.715 147.853L313.997 150.205L313.809 153.026L313.621 154.626L314.28 160.646L315.408 162.81L318.042 162.997L320.394 160.552L320.676 159.518L320.488 156.508V155.567L320.864 154.344L321.993 152.651L323.215 151.992L326.696 151.615L327.825 151.803L329.047 152.555L330.176 152.742L332.34 154.153L335.161 156.504L336.196 157.069L336.572 157.82L338.642 158.667L340.711 160.359L344.286 161.111L345.603 162.052L346.261 162.143L348.707 163.649L349.459 163.931L351.246 164.4L352.187 165.152L354.162 165.904L355.009 167.127L354.914 169.761L354.632 170.42L352.939 172.395L353.597 171.549L352.187 172.677L351.528 173.429L350.964 174.934L350.117 178.979L349.929 182.929L350.117 184.247L350.022 186.975L350.305 188.95L349.928 193.653L349.364 195.817L349.646 197.417L349.741 199.862L350.211 200.896V202.214L349.553 203.06L348.988 204.753L350.493 206.541L350.775 210.773L350.87 211.714L350.494 214.913L350.776 217.734L350.494 218.675L350.588 220.181L350.871 221.027L351.341 225.26L351.529 226.67L352.282 228.928V230.151L352.94 231.656L354.821 233.82L354.539 236.266L351.529 238.147L349.366 238.238L347.484 239.461L346.638 239.743L342.781 241.624L341.652 242.658L340.994 243.128L339.959 243.881L338.925 245.01L338.36 245.669L336.667 248.585L336.291 249.713L336.196 252.535L336.102 253.853L336.478 255.546L339.3 259.214L340.052 259.591L341.181 260.437L341.651 261.189L342.216 262.318L342.874 265.61L341.933 269.372L339.582 271.724L338.359 272.101L337.136 272.288L336.384 272.475H334.973L331.775 271.442L328.859 268.338L328.294 266.738L327.448 265.045L326.789 262.693L326.884 261.47L326.696 258.648L326.601 257.802L327.071 254.134L328.012 250.653L328.107 250.089L328.483 248.396L328.953 246.891L329.048 243.787L329.424 242.094L329.519 241.248L329.801 239.837L330.083 237.768L329.707 235.698L329.237 232.5L329.331 229.961L329.049 226.48L329.237 224.693L328.861 223.659L328.766 218.956L328.39 215.288L328.295 214.346L327.731 212.371L327.355 209.455L327.449 208.232L327.073 206.632V203.34L326.791 202.211V200.519L326.979 198.167L326.32 196.756L326.791 195.158L327.073 191.678L327.355 190.549L328.202 185.658L329.048 182.554L329.895 180.203L330.553 178.321L329.519 177.663L326.697 176.157L325.192 175.97L320.677 173.148L319.736 171.83L317.008 173.711L317.196 174.463L316.444 174.181L315.127 177.755L315.032 179.543L314.844 181.424L314.656 187.068L314.751 188.196L315.409 189.23L314.939 191.77L315.033 192.711L315.128 195.626L315.41 198.166L315.505 198.918L315.599 200.799L315.787 202.492L315.599 209.076L315.411 210.299V211.333L315.506 212.18L315.411 216.036V216.883L315.129 218.575L315.505 219.327L315.6 221.208L316.07 223.184L316.447 224.971L317.481 227.134L318.14 228.076L318.516 228.735L318.798 230.052L321.338 230.24L323.971 231.463L324.724 233.063L324.629 234.004L324.724 235.132L324.159 236.45L323.313 237.015L322.843 238.425L321.526 239.177L320.491 239.929L318.798 241.434L317.293 241.716L316.54 242.28L315.129 242.657L313.342 243.973L312.684 245.666V246.7L313.154 248.111L313.718 249.144V250.085L313.906 251.309L313.53 253.942L311.649 255.448L309.485 255.73L308.545 255.917L305.911 254.883L304.594 254.319L302.901 253.191L300.737 251.309L301.49 251.591L299.985 250.463L299.044 250.276L298.292 249.334L298.197 248.488L295.281 246.607L293.306 245.666L292.271 245.384L291.236 245.196L290.39 244.537L286.909 243.786L285.875 242.939L285.404 241.811L285.122 239.083L285.404 237.765L287.286 235.884L288.885 235.037L290.014 234.191L290.954 233.627L291.049 232.686L291.99 229.488L292.554 227.23L292.459 226.384L292.742 225.443L292.365 224.032L291.707 221.21L291.802 220.176L292.648 218.201L292.836 216.79L292.648 214.627L293.307 212.746L293.212 211.712L292.554 210.301V209.267L292.459 208.608V206.539L291.706 203.905L291.33 203.059L291.612 201.272L291.894 200.331L292.929 198.732L293.024 196.851L292.835 196.005L292.93 193.465L293.212 192.524L293.307 190.924L292.178 186.879L292.837 185.187L293.025 184.34L292.93 182.177L292.554 180.859L292.649 179.636L292.837 178.318L292.366 177.282L292.554 176.436L291.802 175.307V174.366L291.614 173.238L291.802 170.886L292.649 168.911L292.837 161.856L292.742 161.01L292.272 159.976L291.989 157.812V157.153V155.461L292.648 153.485L292.742 151.604L293.119 150.664L293.307 148.688V147.089L293.025 146.337V145.678L292.837 144.455L292.366 142.198L292.648 139.282L292.554 138.436L292.365 137.213V136.46L291.613 134.203L291.425 132.698L290.484 131.569L289.826 130.723L286.533 127.713L286.628 126.584L286.533 125.455L286.628 124.515L287.381 124.138L288.133 123.104L289.732 122.915L292.178 122.539L293.495 123.01L295.376 123.95L296.599 124.138L297.822 125.079L300.173 126.866L302.149 129.03H303.372L305.629 124.703L307.134 122.539L309.768 120L313.154 118.212L316.726 117ZM193.69 153.12L194.349 152.461L196.324 152.552L197.923 152.739L198.488 153.491L199.616 153.582L201.121 154.428L202.626 156.31L203.567 156.686L204.319 156.969L205.26 157.91L207.894 159.509L209.211 160.827L210.998 163.273L212.315 164.119L213.444 164.401L215.513 164.492L216.548 164.962L218.147 165.808L219.37 167.596V168.255L218.335 170.512L216.924 173.24L215.89 173.71L214.855 173.992L214.197 175.873L213.632 179.353L213.727 180.012L213.539 181.141V184.245L212.974 188.854L213.256 191.488L213.351 192.711L213.163 194.686L213.068 196.191L212.786 197.979L212.316 198.825L211.469 201.553V202.399L212.504 204.375L213.162 204.845L213.915 206.537V209.359V212.369L212.316 213.31L214.009 214.344L213.914 215.755L213.538 217.355L214.008 218.578L214.103 226.197L214.667 228.643L215.044 229.584L215.608 230.525L217.113 231.183L218.524 231.466L219.653 232.312L220.781 233.253L221.534 234.099L221.346 235.133L220.781 236.451L219.182 238.897L217.395 239.931L215.514 241.623L213.35 243.505L211.187 246.609L210.998 247.268L210.622 248.491L211.281 250.091L211.751 251.314V252.914L211.281 254.325L209.211 256.017L205.919 255.641L204.226 254.794L202.627 254.325L201.686 253.384L199.616 251.784L197.641 249.62L196.607 249.529L193.691 246.99L191.151 245.766L187.482 244.261L186.542 244.074L185.319 243.886L184.19 243.227L183.72 242.193L182.967 241.347L182.685 240.124L183.061 237.772L184.378 236.549L186.071 234.949L187.388 233.539L187.671 232.223L188.329 229.965L188.705 229.306L188.893 227.895L188.799 226.578L189.269 224.414L188.799 222.157L189.363 219.805L189.268 215.855L189.55 213.691L189.174 211.904L189.739 210.493L190.115 208.988L190.21 206.636L190.022 202.78V200.71L189.833 199.582L188.893 197.512L189.175 196.384L189.833 195.066L189.739 191.774L190.115 189.893L189.927 188.952L189.268 186.6L189.457 185.659L189.268 182.743L188.704 180.109L188.139 178.793L187.575 178.042L186.07 177.951L184.941 177.574L184.095 176.822L183.342 176.258L182.966 174.658L183.436 171.836L184.753 170.518L185.882 169.202L186.634 168.733L188.516 166.945L189.927 165.629L190.303 164.406L191.338 163.183L192.184 162.431L192.467 161.772L192.279 158.856L191.526 156.505V155.564L192.279 154.341L193.69 153.12ZM197.265 118.129L198.676 117L200.651 117.188H201.592L203.191 118.317L203.755 119.258L204.413 119.446L205.73 120.857L208.176 123.49L209.023 124.619L209.493 125.372L210.34 125.466L212.691 127.348L213.538 127.63L215.231 129.511L216.736 131.674L216.172 135.061L212.033 137.788L210.34 136.942L209.493 137.6L209.305 138.447L209.399 139.387L208.741 140.14L208.459 141.363L208.835 143.808L208.553 144.843L207.895 145.407L207.142 146.912L204.696 147.853H202.721L200.746 146.536L199.523 145.972L198.018 144.843L196.889 143.432L196.043 141.927L195.102 141.269L195.29 140.328L194.726 139.105L191.622 138.353L190.963 137.694L189.646 137.036L187.953 134.59L187.671 132.145L189.176 129.417L191.904 127.63L194.726 125.842L196.325 124.714V119.729L197.265 118.129ZM83.9176 128.193L86.8335 126.782H88.1504L92.2893 127.159L94.6409 128.381L96.1458 130.169L97.2746 131.674L99.2499 132.708H100.285L101.131 132.896L102.919 133.273H104.706L105.458 133.461H107.434L109.033 133.743L110.256 133.838L113.642 133.932L114.583 134.12L116.37 134.497L117.969 134.308L119.098 133.932H122.484L124.93 134.308L127.469 133.838L129.727 134.214L132.173 134.026H133.583L135.465 135.155V136.001L138.099 134.308L140.544 134.403H141.297L142.143 134.215L143.931 134.403L144.965 134.215L147.035 134.12L149.01 134.215L149.856 133.933L151.267 134.027L159.357 133.275L160.768 132.899L161.802 132.616L163.872 132.334L165.283 132.052L166.223 130.641L167.54 129.701L171.115 131.018L172.243 131.77L172.714 132.993L172.902 134.122V135.344L172.997 136.097L173.561 138.731L173.467 139.483L173.278 147.949L171.867 150.77L172.15 151.523L172.808 152.557L172.526 153.498L172.244 156.414V158.012L172.149 158.764L171.679 160.174L171.397 161.303L171.02 162.621L171.397 163.372L171.302 165.724L171.207 167.322L171.113 168.64L171.301 170.051V170.802L171.206 172.118L171.582 173.341L172.429 173.432L175.251 174.279L176.568 175.407L177.509 176.725V177.477L177.979 180.769L177.791 182.367L176.756 183.59L176.098 184.906L173.464 186.13L172.147 186.506H170.83L169.607 186.319L166.879 185.472L164.81 183.967L164.246 182.933L163.023 181.333L162.552 180.11L162.176 178.51L161.988 177.851L161.612 175.03L161.424 174.278L160.577 171.268L160.201 168.352L159.636 164.119L158.978 162.803L158.32 160.545L158.037 159.04L156.156 156.501L155.498 155.183L154.557 153.113L153.993 151.89L153.24 151.608L151.829 149.821L150.795 148.786L149.572 147.469L147.22 146.058L144.492 144.836L143.364 144.553L140.824 143.895H138.096L137.344 143.801L136.497 143.706L135.556 144.082L133.111 144.74L130.759 145.869L128.501 147.562L127.843 149.538L126.338 150.666L125.962 151.607L125.209 155.275L125.021 156.122L124.457 159.038L123.798 161.672L123.61 162.895L123.422 164.023L123.798 165.716L123.987 166.375L124.269 167.221L123.893 168.914L123.987 170.889L123.893 179.073L124.457 180.86L125.68 180.951L126.714 180.86L128.125 181.048H129.536L131.7 181.139L133.863 180.857H135.556L136.779 180.48L137.814 180.292L139.319 180.762L140.448 180.01L141.858 179.919L145.715 177.568L147.69 175.875L149.101 173.429L150.042 172.678L152.017 171.831L153.616 171.74L154.651 171.928L155.592 172.21L156.815 173.245L157.755 177.76V178.889L155.592 185.473L155.31 188.483L155.215 189.33L155.497 191.211L154.839 192.622L155.121 193.563L155.497 196.196L155.403 198.077L156.437 199.583L157.002 201.934L157.566 205.226L157.378 206.732L157.283 208.237L156.249 211.153L155.402 212.563L153.238 214.633L151.734 215.197L150.699 215.106L148.253 214.26L146.466 212.19L146.09 210.967L146.278 208.522L146.936 205.982V204.948L146.748 204.196L146.372 203.068L146.09 202.316L144.867 200.811L142.045 198.742L139.035 198.177L136.401 198.086L132.921 198.463L131.416 198.372L126.901 198.463L125.02 198.745L124.737 199.779L125.114 202.225L126.337 203.635L126.431 204.953L126.243 206.459L125.679 207.869V209.28L125.867 210.503L126.149 213.607L126.714 214.925L126.619 218.217L127.277 221.415L127.183 222.262L126.242 223.295L125.96 224.424V225.742L126.9 228.94L128.029 229.317L128.876 229.976L129.346 231.199L129.064 232.327L129.252 233.833L129.534 235.243L130.193 236.466L131.321 239.1L134.049 241.734L135.366 242.393L136.401 245.12L137.435 244.651L138.282 245.497L138.94 246.249L140.634 246.531L145.713 244.556L146.936 244.933L147.688 242.299L147.594 241.64L148.346 240.04L148.628 238.817L150.51 237.501L151.168 237.124L153.049 236.56L154.178 236.651L155.495 236.56L156.341 237.03L159.069 238.535L160.386 239.945L160.857 241.169L161.045 242.203V245.118L160.292 247.47L159.916 248.411L159.54 249.54L158.693 250.481L157.376 252.173L154.742 254.431L151.544 255.749L150.698 256.218L149.381 256.5L148.158 256.877L147.217 257.254L144.489 257.345L143.737 257.722L141.103 257.813L139.504 258.095L132.731 257.249L131.979 257.157L131.038 256.97L128.122 256.593L127.181 255.747L124.548 255.37L122.76 255.279L121.255 255.467L119.938 255.184L118.245 254.62H115.611L114.201 254.338L112.037 254.247L111.19 254.156L109.78 254.065L108.463 253.313L105.923 252.749L104.512 253.408L103.853 253.499L102.443 253.311L97.9275 252.935L92.5659 253.499L90.9668 253.686H89.5559L88.7093 254.438L86.2636 255.661L85.323 258.201L80.9019 261.681L77.7978 261.022L76.1047 260.835L74.2233 259.237L73.0946 257.355L73 255.85V253.687L73.2821 251.712L73.6583 250.77L74.9753 248.701L75.4456 248.042L77.2329 246.724L77.7033 245.783L78.4558 245.501L80.9955 243.901L82.1242 243.525L82.9709 242.491L83.8174 242.114L86.8275 240.514L88.6148 239.291L89.5555 238.257L91.813 234.683L92.1892 233.649L92.8477 232.049L93.5061 229.227L93.4114 228.286L94.1639 225.182L94.3521 223.583L95.0105 222.36L94.258 219.915L94.6343 217.469L95.1987 216.81L94.6343 214.459L94.5396 212.013L95.0099 208.345V206.839L95.1046 203.265L95.2926 202.042V200.819L94.9164 200.16V199.314L94.6343 198.372L94.9164 196.397L95.011 195.174L95.1993 194.233L94.2585 193.199L93.9764 192.258V191.035L95.011 189.53L95.2931 188.024V185.767L95.6694 182.945L96.0456 181.534L95.5753 180.593L95.7633 179.652L95.293 178.711L95.3877 172.315L95.7639 168.27L95.5758 167.518L95.2937 166.672L95.1991 162.627L95.2937 155.197L94.165 153.786L94.7295 152.657L95.1057 150.964V149.836L93.7887 145.509L93.5066 144.38L92.2838 142.499L90.0262 141.934L88.2389 141.37L88.0507 140.618L87.3923 140.147L85.605 140.053L84.006 139.206L82.8772 138.359L82.1247 137.043L81.5603 134.785L81.184 132.622L81.7484 130.929L82.7831 129.424L83.9176 128.193ZM262.263 122.268L260.193 122.738L259.441 123.012L258.406 123.576L256.901 124.423L254.455 126.492L252.292 129.22L251.634 130.349L249.752 133.547L247.965 138.814L247.495 139.566L248.153 141.166L246.742 139.096L245.801 137.873L242.227 135.051L240.534 133.547L238.747 132.324H237.618L234.608 132.042L232.162 133.17L231.221 136.086L232.35 138.814L234.043 140.319L235.078 141.448L236.207 144.552L237.053 149.161L236.959 151.042V151.983L237.147 152.924V154.899L237.052 158.944L235.265 159.885L233.195 160.261L232.255 159.792L228.398 159.322L227.269 159.699L226.705 160.358L226.517 162.803L226.799 163.932V165.343L226.704 166.753L226.986 169.575L226.798 170.986L226.986 171.927L227.927 173.338L230.561 173.055L234.982 172.868L236.957 173.621L237.427 175.973L236.863 177.384L236.958 179.076L236.487 180.958L237.146 183.403L236.769 185.191V185.942L237.146 188.764L236.769 192.997L237.992 194.22L237.898 195.631L237.521 196.572L237.71 198.077L236.675 201.651L236.299 202.685L236.581 203.909V206.166L235.922 208.706L236.205 210.587L235.828 212.092L236.393 213.692L236.957 215.292L237.052 216.233L235.923 216.61L235.829 217.551L236.111 221.878L236.016 222.819L235.64 224.042L235.452 225.923L235.075 227.429V230.815L234.511 232.415L234.323 233.356V234.579L233.006 235.707L232.159 237.965L235.263 243.138L236.58 243.797L237.709 243.888L238.838 244.358L239.496 244.545L242.13 245.392L242.977 245.768L243.823 246.802L245.14 247.272L246.645 247.836L247.021 248.965L249.561 250.47L251.442 251.129L253.7 252.352L253.982 253.011L255.769 253.763L257.18 254.609L258.497 255.361L260.285 256.207L261.413 256.677L263.483 257.241L264.517 257.332H265.552L267.527 256.391L268.75 254.228V252.535L268.468 251.312L267.433 249.714V247.926L267.81 247.175L269.033 245.951L270.726 243.694L271.572 242.942L272.983 241.908L274.959 239.839L276.37 237.582L276.652 235.983L276.746 234.291L275.241 232.127L273.078 231.468H271.949L270.82 231.377L270.162 231.659L268.657 231.377L266.4 230.154L261.885 230.531L258.498 229.497H257.84L257.087 228.743L256.053 228.556L256.147 227.238L257.464 226.297L258.217 225.545L259.628 224.04L260.192 222.442L260.287 221.69L260.099 220.562L260.381 211.72L260.286 210.873L259.628 205.042L259.346 204.29L260.098 204.008V199.399L259.816 197.893L260.004 196.67L260.193 195.447L260.287 193.472L259.911 192.438L259.723 190.275L259.441 187.735L258.876 179.269L259.441 178.046L259.253 176.636L259.347 174.002L259.442 172.779L261.323 172.497H262.734H266.308L268.284 174.284L270.729 177.012L271.764 177.389L272.893 177.48H273.834L275.715 176.446L276.656 175.599L277.22 174.566L277.502 173.342L277.032 171.367L275.809 169.58L275.433 168.546L275.715 166.1L277.784 164.125L278.537 164.034L279.383 163.282L280.136 162.059L282.581 159.613L283.334 158.579L283.616 157.451L284.086 156.51L284.274 154.44L284.557 153.499L284.274 151.336L283.146 149.737L281.547 148.514L279.571 148.232L276.749 149.078L275.056 150.772L273.645 154.158L272.046 157.544L270.071 158.955L267.343 159.801L264.709 159.989L261.699 160.08L258.689 159.892L258.594 158.105L258.783 156.035V155.376V148.416L259.441 146.064V145.406L259.911 143.901L260.099 143.243L259.817 141.644L261.887 137.411L266.214 133.366L268.377 132.143L270.54 128.663L269.6 125.277L266.213 121.985L264.896 122.079L262.263 122.268ZM394.423 171.556L395.081 171.744L397.529 172.489L398.846 173.618L400.069 174.652L401.668 175.403L403.079 175.873L404.113 176.25L407.123 175.498L407.029 177.098L406.276 178.509L405.9 180.202L406.088 181.802L405.806 183.212V185.375L405.429 187.163L405.712 188.668V192.243L405.994 194.5V195.629L407.405 197.039L406.464 199.203L406.276 200.99L407.405 203.06L407.122 203.906L405.9 205.222L405.711 208.514L406.088 209.455L405.9 211.055L406.182 211.807L406.087 212.935L405.805 214.723L405.617 219.614L405.335 220.932L405.993 224.6L407.028 226.481L409.191 229.115V229.774L408.815 231.279L406.84 231.467L405.805 231.279L401.854 230.528L400.82 230.437H399.126L396.775 229.872H395.928L394.705 229.59L391.883 228.556L391.037 227.428L391.507 226.581L392.354 224.418L393.2 222.631L393.483 220.373L393.859 216.705L394.329 214.917L393.953 214.071L394.517 212.473L394.705 210.873L394.611 209.744L395.551 207.11V206.359L394.046 203.443L394.517 201.467L394.799 199.868L394.704 198.175L394.61 197.046L394.421 194.036L394.139 192.908L394.421 191.402V190.274L394.233 189.427L394.421 187.452L394.233 186.511V185.852L394.045 185.101L394.14 182.749L393.952 179.175V175.506L393.199 173.908L392.917 173.249L393.012 172.121L394.423 171.556ZM398.844 151.614L397.527 151.991L395.835 153.211L395.083 154.527L394.894 155.374L395.083 157.443L394.8 158.666L393.672 160.359L391.979 161.864L389.815 163.182L387.934 164.782L383.795 165.816L381.255 166.757L378.81 167.604L377.493 167.791L375.141 168.45L373.448 168.637L371.378 169.107L369.121 170.048L368.651 170.895L368.18 171.836L367.992 172.494L368.462 174L369.403 175.223L370.626 176.069L371.661 178.609L371.755 181.901L371.943 183.499V186.227L372.038 187.733L372.32 188.861L372.038 189.802L371.943 191.495L372.038 192.341L372.133 193.941L372.885 194.882L372.321 196.67L372.226 197.893L372.978 199.303V200.244L372.132 202.878L372.414 205.512L372.509 206.546L372.132 208.239L372.414 209.462V210.121L372.509 212.66L372.321 215.388L373.544 216.517L372.603 217.363L372.415 221.69L371.851 225.923L371.662 226.675L371.38 228.932L370.816 231.095L370.063 232.788L369.781 233.917L367.335 236.456L366.865 238.432L367.994 240.219L369.405 240.596L371.568 241.724L372.415 241.815L373.261 242.192L374.484 242.756L375.801 243.226L380.787 245.672L383.42 247.741L386.336 249.434L387.183 250.28L388.594 250.75L389.346 251.409L390.193 251.785L391.698 251.877L392.074 252.628L394.049 253.098L396.777 254.603L397.154 255.262L398 255.45L399.035 255.732L401.198 256.014L404.585 253.85L405.243 252.345L405.055 250.088L404.02 248.395L403.738 246.89L404.585 245.667L406.09 244.349L410.323 242.373L410.981 241.997L414.461 240.681L416.437 239.929L420.199 238.329L421.61 237.952L423.115 237.388L424.432 237.2L425.843 237.109L426.69 236.64L427.536 236.17L429.982 235.606L430.734 235.229L431.393 234.195L432.239 232.785V232.033L430.829 229.87L429.041 229.211L428.383 227.611L428.571 226.482L428.476 225.448L428.759 224.789L428.382 222.156L427.724 217.265L427.912 216.513L427.254 216.043L427.536 215.102L428.288 211.622L428.476 210.493L428.382 209.082L427.911 206.919L428.194 205.226L428.382 204.003L428.287 202.498L427.911 201.651L427.816 200.146L428.098 197.795L427.91 196.666L427.816 194.973L428.192 193.939L428.286 191.494L428.474 190.46L428.192 189.426V188.485L428.757 186.416L428.192 183.406L428.663 180.96L429.415 178.232L429.321 177.009L429.226 175.881L429.79 173.153L430.261 172.401L430.919 171.273L431.014 170.144L430.732 167.887L427.722 165.911L425.276 165.347L422.736 164.124L421.607 163.747L420.385 163.465L419.538 162.995L416.622 161.49L415.117 160.644L409.003 156.035L407.216 155.47L406.181 153.965L401.854 151.802L399.784 151.614H398.844ZM449.732 152.931L451.425 152.744H454.059L455.188 153.026L455.94 153.214L457.445 153.305L458.386 153.492L460.455 153.962L462.243 154.526L463.936 155.185L465.629 156.126L468.921 158.948L469.486 160.076L472.026 164.027L472.872 165.25L473.719 166.097H475.412L477.011 165.627L478.986 163.745L480.773 161.77L481.244 159.325L481.149 158.384L481.244 157.348L481.526 156.314L482.937 154.245L484.16 153.398L485.571 153.307L486.417 153.216L488.487 153.593L489.239 153.78L490.086 154.439L491.685 155.85L493.096 156.414L494.695 158.202L495.823 158.484L498.834 159.8L499.586 159.987L500.997 160.457L501.844 160.548L503.913 162.053L504.854 163.653L505.136 165.158V165.91L504.948 166.662L503.537 169.108L502.314 170.8L501.185 171.741L500.338 173.247L497.611 175.41L496.858 176.539L494.789 179.925L494.694 180.771V181.9L494.882 182.841L494.6 184.346L494.412 186.416L492.437 189.049L491.684 189.708L490.555 189.99L489.145 189.803L487.545 189.521L485.852 188.015L484.629 185.476L483.971 182.372L483.876 183.313L483.688 181.055L482.465 178.516L482.183 177.857L480.96 176.633L478.985 175.6L477.574 175.412L476.351 175.6L475.222 176.728L474.752 177.951L474.564 178.703L474.376 180.021L474.564 184.912V185.571L474.846 186.887V188.015L475.222 190.649L475.411 192.53L476.445 194.128L476.069 195.634L475.505 196.951L475.316 198.175L474.94 199.208V200.524L475.035 201.558L475.13 202.499L475.976 203.533L475.881 209.647L475.787 210.306L475.411 213.222L476.257 216.608L475.975 217.831L475.599 218.865L474.752 220.935L474.094 222.44L473.153 222.817L472.495 223.381L472.213 224.792L471.648 225.733L471.178 227.708L472.401 228.272H473.529L474.658 228.649L475.693 228.74L476.445 229.022L479.079 229.21L480.114 229.301L481.619 229.77L484.346 230.052L486.51 230.617L488.767 231.368L490.178 234.566L489.708 236.824L488.015 239.081L485.099 240.681L479.831 242.657L478.42 243.316L477.292 243.692L476.351 244.633L475.975 245.949V246.983L476.633 248.958L476.915 250.934V252.344L476.633 253.473L475.222 254.696L472.306 256.014L470.519 255.732L467.038 254.414L466.098 253.662L464.969 252.816L463.84 252.064L462.617 250.654L461.583 250.184L460.36 249.243L458.761 248.114L457.82 247.738H455.751L453.493 245.386L451.706 244.727L450.013 244.163L448.696 244.072L446.909 243.131L444.745 242.002L443.804 240.686L443.522 239.369L443.993 238.051L445.31 236.263L447.379 235.322L448.414 234.663L449.354 233.535L450.201 231.935L450.389 229.207L450.484 228.361L450.766 227.42L450.295 223.845L450.766 222.622L451.33 221.776L451.425 217.166L451.049 215.003V213.498L450.39 211.898L450.202 210.957L450.39 208.229L451.331 206.348L450.861 203.714L451.425 202.209L451.895 200.704L451.519 198.916L450.767 195.906L452.178 194.872L451.331 193.272L451.143 192.521L451.238 191.862L451.05 189.792L450.861 188.851L450.956 185.465L450.861 184.242V182.267L450.391 180.856L449.45 179.915L448.698 179.351L447.757 178.881L447.005 178.317L443.807 177.94L442.96 177.658L442.302 176.906L441.643 175.119V174.46L441.925 173.144L442.49 171.733L443.148 170.792L444.465 169.099L445.782 168.066L446.252 167.219L447.005 166.467L447.946 165.526L448.698 163.834L449.733 161.2L449.074 159.13L448.792 158.379L448.134 157.25V155.745L449.732 152.931ZM544.361 201.185L543.89 210.215L543.232 212.18L543.796 215.19L544.737 229.958L545.396 230.804L545.96 232.122L543.608 231.652L541.539 231.183L537.965 231.091L536.742 231.183L535.613 231.091L533.45 231.001L532.133 230.813L530.721 230.531L532.509 228.838L532.414 226.675L532.79 221.219L532.508 218.868L533.073 217.552V216.611L532.508 210.967L532.038 209.179L531.85 207.862L531.568 206.544L532.791 205.51L533.919 205.697H534.766L535.989 204.569L537.776 203.817H538.999L540.692 203.348L542.197 202.501L544.361 201.185ZM537.588 151.615L535.142 152.179L532.789 153.953L532.413 155.74L532.037 156.964L531.755 157.623L530.061 159.41L526.863 160.728L524.888 161.762L521.69 162.797L520.279 163.456L516.61 165.714L515.105 166.937L514.635 167.971L511.437 172.486L511.155 174.086L510.402 176.531V177.849L510.214 178.79L510.026 181.706L510.684 183.775L510.779 185.845L511.531 186.314L511.72 186.973L511.814 188.102L512.943 189.512L515.483 192.052L517.27 192.522L519.151 193.368L520.845 193.837H523.102L525.36 193.368L527.994 192.145L529.687 190.357L530.628 188.57L530.91 185.466L530.628 183.678L530.439 182.927L530.157 181.986L527.806 180.104L526.018 179.822L525.266 179.54H524.513L522.256 180.292L521.315 180.01L520.75 178.504V176.717L520.562 174.742L521.315 173.331L524.795 170.697L527.993 170.228H529.498L531.38 170.604L534.014 172.203L535.801 172.294L537.118 172.858L538.435 173.422L541.445 176.62L542.291 178.501L542.856 180.194L543.044 182.64L541.727 185.18L541.915 185.931V186.872L541.351 188.472L540.692 191.2L539.187 193.269L537.212 194.587L535.331 195.905L532.979 195.814L532.038 196.66L528.934 197.978L528.088 198.166L527.241 198.257L524.984 198.166L523.667 198.448L522.632 198.635L521.88 199.105L519.152 199.482L518.305 199.294L515.295 199.482L512.567 199.859L511.815 200.423L510.404 201.457L509.557 202.585V204.466L510.968 206.912L511.344 212.838L510.968 214.156L510.78 215.19L510.592 215.849L510.78 218.106L511.156 218.952V220.552L510.78 221.586L510.404 222.527L510.592 224.973L511.062 226.007V227.699L510.498 229.581V230.804L510.403 231.556L509.933 233.154L508.804 234.846L507.205 236.352L506.358 237.011L505.23 238.327L504.665 240.584L505.136 241.9L505.512 242.559L507.017 243.688H508.052L508.804 244.064H511.908L512.943 244.441L515.388 246.041L516.047 246.888L517.27 247.357L518.116 248.391L520.186 249.709L521.22 250.932L522.537 252.25L523.008 253.002L525.735 254.036L529.216 255.446L531.097 255.728L533.449 255.259L536.365 254.036L537.117 251.966L536.553 249.897L534.483 247.451L534.954 243.595L535.33 242.372L537.587 241.056L538.904 240.868L540.786 241.432L541.82 242.091L542.761 243.502L544.642 244.725L546.618 246.512L547.746 247.641L548.875 248.864L553.484 251.874V252.721L555.742 253.849L556.965 254.413L559.504 255.26L562.326 256.012L564.772 255.824L565.901 255.447L567.311 253.942L567.718 250.694L567.877 251.026L567.782 250.18L567.718 250.694L566.842 248.863L566.184 248.111L566.089 247.359L566.371 245.854L567.029 244.725L568.44 243.691L569.099 243.127L569.475 242.281L570.604 241.434L571.356 240.683L572.109 239.554L572.579 238.708L573.426 238.895L575.025 236.826L575.871 235.226L576.718 233.91L577 233.063L576.812 230.335L574.93 228.83L573.52 228.739L572.673 228.927L571.732 228.739L570.98 228.648L569.851 228.366L569.193 227.332L569.005 223.758L568.723 222.347V219.901L568.346 219.055L568.158 217.832V215.574V213.035L567.97 212.283L566.936 211.437L566.841 210.308V208.521L566.653 204.758L567.311 203.253V198.362L567.029 197.328L567.217 192.907L566.935 189.803L567.03 187.922L566.842 186.794L567.218 183.595V177.387L567.5 176.164L567.595 175.223L568.629 172.307L570.134 170.426L570.699 168.733V167.133L569.852 165.91L568.818 165.251L567.218 165.16L565.431 164.783L563.55 164.407H562.515L561.669 164.497L560.258 164.215L559.317 163.274L555.931 162.146L554.52 161.205L553.955 160.171L552.638 159.889L551.415 158.383L550.098 157.819L547.653 155.75L544.172 153.681L541.162 152.175L538.811 151.706L537.588 151.615Z" fill="url(#paint0_radial)"/>
</g>
<defs>
<filter id="filter0_dii" x="41" y="85" width="568" height="219.475" filterUnits="userSpaceOnUse" color-interpolation-filters="sRGB">
<feFlood flood-opacity="0" result="BackgroundImageFix"/>
<feColorMatrix in="SourceAlpha" type="matrix" values="0 0 0 0 0 0 0 0 0 0 0 0 0 0 0 0 0 0 127 0"/>
<feOffset/>
<feGaussianBlur stdDeviation="16"/>
<feColorMatrix type="matrix" values="0 0 0 0 1 0 0 0 0 1 0 0 0 0 1 0 0 0 0.34 0"/>
<feBlend mode="normal" in2="BackgroundImageFix" result="effect1_dropShadow"/>
<feBlend mode="normal" in="SourceGraphic" in2="effect1_dropShadow" result="shape"/>
<feColorMatrix in="SourceAlpha" type="matrix" values="0 0 0 0 0 0 0 0 0 0 0 0 0 0 0 0 0 0 127 0" result="hardAlpha"/>
<feOffset dx="-3" dy="4"/>
<feGaussianBlur stdDeviation="2"/>
<feComposite in2="hardAlpha" operator="arithmetic" k2="-1" k3="1"/>
<feColorMatrix type="matrix" values="0 0 0 0 1 0 0 0 0 1 0 0 0 0 1 0 0 0 0.59 0"/>
<feBlend mode="normal" in2="shape" result="effect2_innerShadow"/>
<feColorMatrix in="SourceAlpha" type="matrix" values="0 0 0 0 0 0 0 0 0 0 0 0 0 0 0 0 0 0 127 0" result="hardAlpha"/>
<feOffset dx="3" dy="-4"/>
<feGaussianBlur stdDeviation="2"/>
<feComposite in2="hardAlpha" operator="arithmetic" k2="-1" k3="1"/>
<feColorMatrix type="matrix" values="0 0 0 0 0 0 0 0 0 0 0 0 0 0 0 0 0 0 0.34 0"/>
<feBlend mode="normal" in2="effect2_innerShadow" result="effect3_innerShadow"/>
</filter>
<radialGradient id="paint0_radial" cx="0" cy="0" r="1" gradientUnits="userSpaceOnUse" gradientTransform="translate(325.648 194.738) scale(251.352 146.194)">
<stop stop-color="#64EA00"/>
<stop offset="1" stop-color="#50BA00"/>
</radialGradient>
</defs>
</svg>
