<svg width="650" height="390" viewBox="0 0 650 390" fill="none" xmlns="http://www.w3.org/2000/svg">
<rect width="650" height="390" fill="#1D3462"/>
<path d="M77.0122 218.97L54.5565 241.383" stroke="#50FF33" stroke-width="2"/>
<path d="M77.0122 218.97L110.431 173.946" stroke="#50FF33" stroke-width="2"/>
<path d="M77.0122 218.97L138.549 267.483" stroke="#50FF33" stroke-width="2"/>
<path d="M236.307 160.219L269.147 164.813" stroke="#50FF33" stroke-width="2"/>
<path d="M236.307 160.219L182.435 155.415" stroke="#50FF33" stroke-width="2"/>
<path d="M236.307 160.219L241.624 193.183" stroke="#50FF33" stroke-width="2"/>
<path d="M182.435 155.415L190.03 241.004" stroke="#50FF33" stroke-width="2"/>
<path d="M182.435 155.415L110.431 173.946" stroke="#50FF33" stroke-width="2"/>
<path d="M182.435 155.415L178.791 114.549" stroke="#50FF33" stroke-width="2"/>
<path d="M190.029 241.004L138.549 267.483" stroke="#50FF33" stroke-width="2"/>
<path d="M190.03 241.004L216.452 218.08" stroke="#50FF33" stroke-width="2"/>
<path d="M190.03 241.004L200.444 272.915" stroke="#50FF33" stroke-width="2"/>
<path d="M110.431 173.946L143.094 194.474" stroke="#50FF33" stroke-width="2"/>
<path d="M138.549 267.483L154.919 230.799" stroke="#50FF33" stroke-width="2"/>
<path d="M216.452 218.08L241.624 193.183" stroke="#50FF33" stroke-width="2"/>
<path d="M216.452 218.08L242.611 239.636" stroke="#50FF33" stroke-width="2"/>
<path d="M154.92 230.799L143.094 194.474" stroke="#50FF33" stroke-width="2"/>
<path d="M154.919 230.799L120.521 221.953" stroke="#50FF33" stroke-width="2"/>
<path d="M79.2171 227.316C83.8296 226.099 86.5816 221.376 85.3639 216.767C84.1462 212.157 79.4198 209.407 74.8073 210.624C70.1948 211.841 67.4427 216.564 68.6605 221.174C69.8782 225.783 74.6045 228.533 79.2171 227.316Z" fill="#50FF33"/>
<path d="M238.512 168.565C243.124 167.348 245.876 162.625 244.658 158.016C243.441 153.406 238.714 150.656 234.102 151.873C229.489 153.09 226.737 157.813 227.955 162.422C229.173 167.032 233.899 169.782 238.512 168.565Z" fill="#50FF33"/>
<path d="M56.7615 249.729C61.374 248.512 64.1261 243.789 62.9083 239.179C61.6906 234.57 56.9642 231.82 52.3517 233.037C47.7392 234.254 44.9872 238.977 46.2049 243.586C47.4226 248.196 52.149 250.946 56.7615 249.729Z" fill="#50FF33"/>
<path d="M271.352 173.159C275.965 171.943 278.717 167.219 277.499 162.61C276.281 158.001 271.555 155.25 266.943 156.467C262.33 157.684 259.578 162.407 260.796 167.017C262.013 171.626 266.74 174.376 271.352 173.159Z" fill="#50FF33"/>
<path d="M184.64 163.761C189.253 162.544 192.005 157.821 190.787 153.212C189.569 148.602 184.843 145.852 180.23 147.069C175.618 148.286 172.866 153.009 174.084 157.618C175.301 162.228 180.028 164.978 184.64 163.761Z" fill="#50FF33"/>
<path d="M192.234 249.35C196.847 248.133 199.599 243.41 198.381 238.801C197.164 234.191 192.437 231.441 187.825 232.658C183.212 233.875 180.46 238.598 181.678 243.208C182.896 247.817 187.622 250.567 192.234 249.35Z" fill="#50FF33"/>
<path d="M112.636 182.292C117.248 181.075 120 176.352 118.782 171.743C117.565 167.134 112.838 164.383 108.226 165.6C103.613 166.817 100.861 171.54 102.079 176.15C103.297 180.759 108.023 183.509 112.636 182.292Z" fill="#50FF33"/>
<path d="M140.754 275.829C145.366 274.612 148.118 269.889 146.901 265.28C145.683 260.671 140.956 257.92 136.344 259.137C131.731 260.354 128.979 265.077 130.197 269.687C131.415 274.296 136.141 277.046 140.754 275.829Z" fill="#50FF33"/>
<path d="M218.657 226.426C223.269 225.209 226.021 220.486 224.804 215.877C223.586 211.267 218.86 208.517 214.247 209.734C209.634 210.951 206.882 215.674 208.1 220.284C209.318 224.893 214.044 227.643 218.657 226.426Z" fill="#50FF33"/>
<path d="M157.124 239.145C161.737 237.928 164.489 233.205 163.271 228.595C162.053 223.986 157.327 221.236 152.715 222.453C148.102 223.67 145.35 228.393 146.568 233.002C147.785 237.612 152.512 240.362 157.124 239.145Z" fill="#50FF33"/>
<path d="M145.299 202.82C149.911 201.603 152.663 196.88 151.446 192.27C150.228 187.661 145.502 184.911 140.889 186.128C136.277 187.345 133.525 192.068 134.742 196.677C135.96 201.287 140.686 204.037 145.299 202.82Z" fill="#50FF33"/>
<path d="M180.996 122.895C185.608 121.679 188.36 116.955 187.143 112.346C185.925 107.737 181.199 104.986 176.586 106.203C171.974 107.42 169.222 112.143 170.439 116.753C171.657 121.362 176.383 124.112 180.996 122.895Z" fill="#50FF33"/>
<path d="M202.649 281.261C207.261 280.044 210.014 275.321 208.796 270.712C207.578 266.103 202.852 263.352 198.239 264.569C193.627 265.786 190.875 270.509 192.092 275.119C193.31 279.728 198.036 282.478 202.649 281.261Z" fill="#50FF33"/>
<path d="M243.829 201.529C248.442 200.312 251.194 195.589 249.976 190.979C248.758 186.37 244.032 183.62 239.42 184.837C234.807 186.054 232.055 190.777 233.273 195.386C234.49 199.996 239.217 202.746 243.829 201.529Z" fill="#50FF33"/>
<path d="M244.816 247.982C249.429 246.766 252.181 242.042 250.963 237.433C249.745 232.824 245.019 230.073 240.406 231.29C235.794 232.507 233.042 237.23 234.26 241.84C235.477 246.449 240.204 249.199 244.816 247.982Z" fill="#50FF33"/>
<path d="M122.726 230.299C127.339 229.082 130.091 224.359 128.873 219.75C127.655 215.141 122.929 212.39 118.316 213.607C113.704 214.824 110.952 219.547 112.169 224.157C113.387 228.766 118.114 231.516 122.726 230.299Z" fill="#50FF33"/>
<path d="M525.15 246.842L539.752 209.623" stroke="#FF3333" stroke-width="2"/>
<path d="M525.15 246.842L486.554 237.614" stroke="#FF3333" stroke-width="2"/>
<path d="M539.752 209.623L567.898 192.252" stroke="#FF3333" stroke-width="2"/>
<path d="M539.752 209.623L518.395 170.093" stroke="#FF3333" stroke-width="2"/>
<path d="M486.554 237.614L458.549 249.996" stroke="#FF3333" stroke-width="2"/>
<path d="M486.554 237.614L464.135 201.293" stroke="#FF3333" stroke-width="2"/>
<path d="M567.898 192.251L582.315 164.525" stroke="#FF3333" stroke-width="2"/>
<path d="M567.898 192.252L597.904 196.94" stroke="#FF3333" stroke-width="2"/>
<path d="M458.549 249.996L437.377 278.368" stroke="#FF3333" stroke-width="2"/>
<path d="M458.549 249.996L426.278 245.188" stroke="#FF3333" stroke-width="2"/>
<path d="M518.395 170.093L476.188 169.626" stroke="#FF3333" stroke-width="2"/>
<path d="M464.135 201.293L476.188 169.626" stroke="#FF3333" stroke-width="2"/>
<path d="M476.188 169.626L455.762 146.528" stroke="#FF3333" stroke-width="2"/>
<path d="M455.762 146.528L450.916 116.51" stroke="#FF3333" stroke-width="2"/>
<path d="M455.762 146.528L423.299 138.171" stroke="#FF3333" stroke-width="2"/>
<path d="M533.788 246.842C533.788 242.075 529.921 238.21 525.15 238.21C520.38 238.21 516.512 242.075 516.512 246.842C516.512 251.609 520.38 255.474 525.15 255.474C529.921 255.474 533.788 251.609 533.788 246.842Z" fill="#FF3333"/>
<path d="M548.39 209.623C548.39 204.855 544.522 200.991 539.752 200.991C534.981 200.991 531.114 204.855 531.114 209.623C531.114 214.39 534.981 218.255 539.752 218.255C544.522 218.255 548.39 214.39 548.39 209.623Z" fill="#FF3333"/>
<path d="M495.192 237.614C495.192 232.846 491.324 228.982 486.554 228.982C481.783 228.982 477.916 232.846 477.916 237.614C477.916 242.381 481.783 246.245 486.554 246.245C491.324 246.245 495.192 242.381 495.192 237.614Z" fill="#FF3333"/>
<path d="M576.536 192.252C576.536 187.484 572.668 183.62 567.898 183.62C563.127 183.62 559.26 187.484 559.26 192.252C559.26 197.019 563.127 200.884 567.898 200.884C572.668 200.884 576.536 197.019 576.536 192.252Z" fill="#FF3333"/>
<path d="M467.187 249.996C467.187 245.229 463.319 241.364 458.549 241.364C453.778 241.364 449.911 245.229 449.911 249.996C449.911 254.763 453.778 258.628 458.549 258.628C463.319 258.628 467.187 254.763 467.187 249.996Z" fill="#FF3333"/>
<path d="M527.033 170.093C527.033 165.325 523.165 161.461 518.395 161.461C513.624 161.461 509.757 165.325 509.757 170.093C509.757 174.86 513.624 178.725 518.395 178.725C523.165 178.725 527.033 174.86 527.033 170.093Z" fill="#FF3333"/>
<path d="M472.773 201.293C472.773 196.526 468.906 192.661 464.135 192.661C459.365 192.661 455.497 196.526 455.497 201.293C455.497 206.061 459.365 209.925 464.135 209.925C468.906 209.925 472.773 206.061 472.773 201.293Z" fill="#FF3333"/>
<path d="M484.826 169.626C484.826 164.859 480.958 160.994 476.188 160.994C471.417 160.994 467.55 164.859 467.55 169.626C467.55 174.393 471.417 178.258 476.188 178.258C480.958 178.258 484.826 174.393 484.826 169.626Z" fill="#FF3333"/>
<path d="M590.953 164.525C590.953 159.757 587.086 155.893 582.315 155.893C577.545 155.893 573.677 159.757 573.677 164.525C573.677 169.292 577.545 173.157 582.315 173.157C587.086 173.157 590.953 169.292 590.953 164.525Z" fill="#FF3333"/>
<path d="M606.542 196.94C606.542 192.173 602.674 188.308 597.904 188.308C593.133 188.308 589.266 192.173 589.266 196.94C589.266 201.708 593.133 205.572 597.904 205.572C602.674 205.572 606.542 201.708 606.542 196.94Z" fill="#FF3333"/>
<path d="M446.015 278.368C446.015 273.601 442.148 269.736 437.377 269.736C432.607 269.736 428.74 273.601 428.74 278.368C428.74 283.135 432.607 287 437.377 287C442.148 287 446.015 283.135 446.015 278.368Z" fill="#FF3333"/>
<path d="M434.915 245.188C434.915 240.421 431.048 236.556 426.278 236.556C421.507 236.556 417.64 240.421 417.64 245.188C417.64 249.955 421.507 253.82 426.278 253.82C431.048 253.82 434.915 249.955 434.915 245.188Z" fill="#FF3333"/>
<path d="M464.4 146.528C464.4 141.76 460.532 137.896 455.762 137.896C450.991 137.896 447.124 141.76 447.124 146.528C447.124 151.295 450.991 155.16 455.762 155.16C460.532 155.16 464.4 151.295 464.4 146.528Z" fill="#FF3333"/>
<path d="M459.554 116.51C459.554 111.743 455.686 107.878 450.916 107.878C446.145 107.878 442.278 111.743 442.278 116.51C442.278 121.277 446.145 125.142 450.916 125.142C455.686 125.142 459.554 121.277 459.554 116.51Z" fill="#FF3333"/>
<path d="M431.937 138.171C431.937 133.404 428.07 129.539 423.299 129.539C418.529 129.539 414.661 133.404 414.661 138.171C414.661 142.938 418.529 146.803 423.299 146.803C428.07 146.803 431.937 142.938 431.937 138.171Z" fill="#FF3333"/>
<path d="M330.64 175.818C330.64 175.018 330.967 174.619 331.621 174.619C332.094 174.619 332.403 174.8 332.548 175.164C332.694 175.527 332.803 175.999 332.876 176.58C332.948 177.162 333.166 177.961 333.53 178.978C333.893 179.995 334.511 180.994 335.384 181.975C339.237 186.661 347.761 189.113 360.956 189.331H362.101C363.301 189.331 363.9 189.694 363.9 190.42C363.9 191.147 363.301 191.51 362.101 191.51H360.956C358.702 191.546 356.63 191.637 354.74 191.783C352.85 191.928 350.832 192.182 348.688 192.545C346.543 192.909 344.617 193.399 342.908 194.017C341.2 194.634 339.618 195.415 338.164 196.36C336.71 197.304 335.511 198.485 334.566 199.901C333.621 201.318 333.039 202.934 332.821 204.751C332.748 205.368 332.639 205.75 332.494 205.895C332.348 206.04 332.076 206.131 331.676 206.167C331.567 206.167 331.476 206.167 331.403 206.167C331.331 206.167 331.276 206.149 331.24 206.113C331.203 206.077 331.167 206.058 331.131 206.058C331.094 206.058 331.04 206.004 330.967 205.895C330.894 205.786 330.804 205.695 330.694 205.622C330.622 205.477 330.585 205.241 330.585 204.914C330.767 203.243 331.167 201.717 331.785 200.337C332.403 198.957 333.239 197.776 334.293 196.795C335.347 195.815 336.383 194.979 337.401 194.289C338.419 193.599 339.673 192.981 341.163 192.436C342.654 191.891 343.835 191.51 344.707 191.292C345.58 191.074 346.707 190.784 348.088 190.42C347.979 190.384 347.543 190.293 346.779 190.148C346.016 190.003 345.38 189.839 344.871 189.657C344.362 189.476 343.581 189.24 342.526 188.949C341.472 188.659 340.436 188.241 339.419 187.696C335.057 185.553 332.276 182.483 331.076 178.487C330.785 177.252 330.64 176.362 330.64 175.818ZM330.64 216.411C330.64 216.411 330.64 216.175 330.64 215.703C330.64 215.23 330.894 214.867 331.403 214.613H363.082C363.628 214.904 363.9 215.267 363.9 215.703C363.9 216.139 363.628 216.502 363.082 216.792H331.403C330.894 216.538 330.64 216.175 330.64 215.703V216.411Z" fill="white"/>
</svg>
