<svg width="650" height="390" viewBox="0 0 650 390" fill="none" xmlns="http://www.w3.org/2000/svg">
<rect width="650" height="390" fill="#FFFCE1"/>
<rect width="650" height="390" fill="url(#paint0_radial)"/>
<line x1="132.52" y1="63.6758" x2="488.659" y2="63.6758" stroke="#C48D12"/>
<line x1="190.573" y1="87.144" x2="547.124" y2="87.144" stroke="#C48D12"/>
<line x1="77.761" y1="105.26" x2="433.9" y2="105.26" stroke="#C48D12"/>
<line x1="137.049" y1="142.315" x2="493.6" y2="142.315" stroke="#C48D12"/>
<line x1="234.627" y1="137.374" x2="590.766" y2="137.374" stroke="#C48D12"/>
<line x1="48.9407" y1="172.37" x2="404.668" y2="172.37" stroke="#C48D12"/>
<line x1="185.632" y1="187.192" x2="541.771" y2="187.192" stroke="#C48D12"/>
<line x1="104.523" y1="204.896" x2="460.662" y2="204.896" stroke="#C48D12"/>
<line x1="245.332" y1="216.836" x2="601.06" y2="216.836" stroke="#C48D12"/>
<line x1="55.5281" y1="253.891" x2="411.667" y2="253.891" stroke="#C48D12"/>
<line x1="151.871" y1="250.186" x2="508.01" y2="250.186" stroke="#C48D12"/>
<line x1="214.453" y1="282.3" x2="570.592" y2="282.3" stroke="#C48D12"/>
<line x1="162.576" y1="325.943" x2="518.303" y2="325.943" stroke="#C48D12"/>
<line x1="100.818" y1="305.768" x2="456.957" y2="305.768" stroke="#C48D12"/>
<path d="M162.088 326.304L152.197 250.472" stroke="#8EA7D7" stroke-width="2"/>
<path d="M162.088 326.304L214.275 282.758" stroke="#8EA7D7" stroke-width="2"/>
<path d="M162.088 326.304L233.934 137.793" stroke="#8EA7D7" stroke-width="2"/>
<path d="M162.089 326.304L104.54 205.347" stroke="#8EA7D7" stroke-width="2"/>
<path d="M162.088 326.304L185.99 187.602" stroke="#8EA7D7" stroke-width="2"/>
<path d="M152.197 250.472L214.274 282.758" stroke="#8EA7D7" stroke-width="2"/>
<path d="M152.197 250.472L132.207 64.1758" stroke="#8EA7D7" stroke-width="2"/>
<path d="M152.197 250.472L190.872 87.4203" stroke="#8EA7D7" stroke-width="2"/>
<path d="M152.198 250.472L56.0364 254.225" stroke="#8EA7D7" stroke-width="2"/>
<path d="M214.276 282.758L48.8025 172.486" stroke="#8EA7D7" stroke-width="2"/>
<path d="M214.275 282.758L137.448 142.409" stroke="#8EA7D7" stroke-width="2"/>
<path d="M214.275 282.758L185.99 187.602" stroke="#8EA7D7" stroke-width="2"/>
<path d="M214.274 282.758L190.873 87.4203" stroke="#8EA7D7" stroke-width="2"/>
<path d="M48.8025 172.486L185.991 187.602" stroke="#8EA7D7" stroke-width="2"/>
<path d="M48.8025 172.486L244.686 217.249" stroke="#8EA7D7" stroke-width="2"/>
<path d="M48.8025 172.486L77.9287 105.665" stroke="#8EA7D7" stroke-width="2"/>
<path d="M137.448 142.409L190.873 87.4203" stroke="#8EA7D7" stroke-width="2"/>
<path d="M137.447 142.409L77.9263 105.665" stroke="#8EA7D7" stroke-width="2"/>
<path d="M137.447 142.409L56.0364 254.225" stroke="#8EA7D7" stroke-width="2"/>
<path d="M137.448 142.409L185.99 187.602" stroke="#8EA7D7" stroke-width="2"/>
<path d="M137.446 142.409L100.61 306.241" stroke="#8EA7D7" stroke-width="2"/>
<path d="M137.448 142.409L104.54 205.347" stroke="#8EA7D7" stroke-width="2"/>
<path d="M132.207 64.1758L77.9263 105.665" stroke="#8EA7D7" stroke-width="2"/>
<path d="M132.207 64.1758L190.872 87.4202" stroke="#8EA7D7" stroke-width="2"/>
<path d="M233.935 137.793L104.54 205.347" stroke="#8EA7D7" stroke-width="2"/>
<path d="M233.933 137.793L77.9263 105.665" stroke="#8EA7D7" stroke-width="2"/>
<path d="M233.935 137.793L185.99 187.602" stroke="#8EA7D7" stroke-width="2"/>
<path d="M233.933 137.793L100.61 306.241" stroke="#8EA7D7" stroke-width="2"/>
<path d="M185.988 187.602L77.9263 105.665" stroke="#8EA7D7" stroke-width="2"/>
<path d="M100.61 306.241L77.9263 105.665" stroke="#8EA7D7" stroke-width="2"/>
<path d="M100.611 306.241L56.0364 254.225" stroke="#8EA7D7" stroke-width="2"/>
<path d="M77.9263 105.665L104.538 205.347" stroke="#8EA7D7" stroke-width="2"/>
<path d="M104.54 205.347L190.874 87.4203" stroke="#8EA7D7" stroke-width="2"/>
<path d="M56.0364 254.225L190.872 87.4203" stroke="#8EA7D7" stroke-width="2"/>
<path d="M244.685 217.25L190.873 87.4203" stroke="#8EA7D7" stroke-width="2"/>
<path d="M162.06 332.48C164.697 332.48 166.834 329.715 166.834 326.304C166.834 322.893 164.697 320.128 162.06 320.128C159.424 320.128 157.287 322.893 157.287 326.304C157.287 329.715 159.424 332.48 162.06 332.48Z" fill="#355FB3"/>
<path d="M152.17 256.648C154.806 256.648 156.943 253.883 156.943 250.472C156.943 247.061 154.806 244.296 152.17 244.296C149.534 244.296 147.397 247.061 147.397 250.472C147.397 253.883 149.534 256.648 152.17 256.648Z" fill="#355FB3"/>
<path d="M214.247 288.933C216.883 288.933 219.02 286.168 219.02 282.758C219.02 279.347 216.883 276.582 214.247 276.582C211.61 276.582 209.473 279.347 209.473 282.758C209.473 286.168 211.61 288.933 214.247 288.933Z" fill="#355FB3"/>
<path d="M48.7733 178.662C51.4095 178.662 53.5465 175.897 53.5465 172.486C53.5465 169.075 51.4095 166.31 48.7733 166.31C46.1371 166.31 44 169.075 44 172.486C44 175.897 46.1371 178.662 48.7733 178.662Z" fill="#355FB3"/>
<path d="M137.42 148.585C140.056 148.585 142.193 145.82 142.193 142.409C142.193 138.998 140.056 136.233 137.42 136.233C134.784 136.233 132.646 138.998 132.646 142.409C132.646 145.82 134.784 148.585 137.42 148.585Z" fill="#355FB3"/>
<path d="M132.18 70.3516C134.817 70.3516 136.954 67.5866 136.954 64.1758C136.954 60.765 134.817 58 132.18 58C129.544 58 127.407 60.765 127.407 64.1758C127.407 67.5866 129.544 70.3516 132.18 70.3516Z" fill="#355FB3"/>
<path d="M233.907 143.969C236.543 143.969 238.68 141.204 238.68 137.793C238.68 134.382 236.543 131.617 233.907 131.617C231.271 131.617 229.134 134.382 229.134 137.793C229.134 141.204 231.271 143.969 233.907 143.969Z" fill="#355FB3"/>
<path d="M185.961 193.778C188.597 193.778 190.734 191.013 190.734 187.602C190.734 184.191 188.597 181.426 185.961 181.426C183.325 181.426 181.188 184.191 181.188 187.602C181.188 191.013 183.325 193.778 185.961 193.778Z" fill="#355FB3"/>
<path d="M100.584 312.417C103.22 312.417 105.358 309.652 105.358 306.241C105.358 302.83 103.22 300.065 100.584 300.065C97.9481 300.065 95.811 302.83 95.811 306.241C95.811 309.652 97.9481 312.417 100.584 312.417Z" fill="#355FB3"/>
<path d="M77.8995 111.841C80.5357 111.841 82.6727 109.076 82.6727 105.665C82.6727 102.254 80.5357 99.4891 77.8995 99.4891C75.2633 99.4891 73.1262 102.254 73.1262 105.665C73.1262 109.076 75.2633 111.841 77.8995 111.841Z" fill="#355FB3"/>
<path d="M104.511 211.523C107.147 211.523 109.284 208.758 109.284 205.347C109.284 201.937 107.147 199.172 104.511 199.172C101.874 199.172 99.7373 201.937 99.7373 205.347C99.7373 208.758 101.874 211.523 104.511 211.523Z" fill="#355FB3"/>
<path d="M56.0079 260.401C58.6441 260.401 60.7811 257.636 60.7811 254.225C60.7811 250.814 58.6441 248.049 56.0079 248.049C53.3717 248.049 51.2346 250.814 51.2346 254.225C51.2346 257.636 53.3717 260.401 56.0079 260.401Z" fill="#355FB3"/>
<path d="M244.658 223.425C247.294 223.425 249.431 220.66 249.431 217.249C249.431 213.839 247.294 211.074 244.658 211.074C242.021 211.074 239.884 213.839 239.884 217.249C239.884 220.66 242.021 223.425 244.658 223.425Z" fill="#355FB3"/>
<path d="M190.845 93.596C193.481 93.596 195.618 90.831 195.618 87.4202C195.618 84.0094 193.481 81.2444 190.845 81.2444C188.209 81.2444 186.072 84.0094 186.072 87.4202C186.072 90.831 188.209 93.596 190.845 93.596Z" fill="#355FB3"/>
<path d="M518.657 326.506L508.767 250.674" stroke="#747474" stroke-width="2"/>
<path d="M518.658 326.506L570.844 282.96" stroke="#747474" stroke-width="2"/>
<path d="M518.658 326.506L590.504 137.995" stroke="#747474" stroke-width="2"/>
<path d="M518.658 326.506L461.109 205.549" stroke="#747474" stroke-width="2"/>
<path d="M508.767 250.674L570.844 282.96" stroke="#747474" stroke-width="2"/>
<path d="M508.767 250.674L488.777 64.3777" stroke="#747474" stroke-width="2"/>
<path d="M508.767 250.674L547.442 87.6222" stroke="#747474" stroke-width="2"/>
<path d="M508.767 250.674L412.606 254.427" stroke="#747474" stroke-width="2"/>
<path d="M570.843 282.959L405.37 172.688" stroke="#747474" stroke-width="2"/>
<path d="M570.844 282.96L494.017 142.611" stroke="#747474" stroke-width="2"/>
<path d="M570.844 282.96L547.442 87.6222" stroke="#747474" stroke-width="2"/>
<path d="M405.37 172.688L542.558 187.804" stroke="#747474" stroke-width="2"/>
<path d="M405.37 172.688L601.254 217.451" stroke="#747474" stroke-width="2"/>
<path d="M405.37 172.688L434.496 105.867" stroke="#747474" stroke-width="2"/>
<path d="M494.017 142.611L547.442 87.6222" stroke="#747474" stroke-width="2"/>
<path d="M494.017 142.611L434.496 105.867" stroke="#747474" stroke-width="2"/>
<path d="M494.017 142.611L542.559 187.804" stroke="#747474" stroke-width="2"/>
<path d="M494.017 142.611L461.109 205.549" stroke="#747474" stroke-width="2"/>
<path d="M488.777 64.3777L434.496 105.867" stroke="#747474" stroke-width="2"/>
<path d="M488.777 64.3777L547.442 87.6221" stroke="#747474" stroke-width="2"/>
<path d="M590.503 137.995L434.496 105.867" stroke="#444444" stroke-width="4"/>
<path d="M457.181 306.443L412.606 254.427" stroke="#747474" stroke-width="2"/>
<path d="M461.109 205.549L547.443 87.6222" stroke="#747474" stroke-width="2"/>
<path d="M412.606 254.427L547.442 87.6222" stroke="#747474" stroke-width="2"/>
<path d="M601.255 217.451L547.442 87.6222" stroke="#747474" stroke-width="2"/>
<path d="M518.658 326.506L542.559 187.804" stroke="#747474" stroke-width="2"/>
<path d="M570.844 282.96L542.559 187.804" stroke="#747474" stroke-width="2"/>
<path d="M494.017 142.611L412.606 254.427" stroke="#747474" stroke-width="2"/>
<path d="M494.017 142.611L457.181 306.443" stroke="#747474" stroke-width="2"/>
<path d="M590.503 137.995L542.559 187.804" stroke="#3BB335" stroke-width="4"/>
<path d="M542.558 187.804L434.496 105.867" stroke="#3BB335" stroke-width="4"/>
<path d="M590.504 137.995L461.109 205.549" stroke="#C00000" stroke-width="4"/>
<path d="M434.496 105.867L461.108 205.549" stroke="#C00000" stroke-width="4"/>
<path d="M590.504 137.995L457.181 306.443" stroke="#355FB3" stroke-width="4"/>
<path d="M457.18 306.443L434.496 105.867" stroke="#355FB3" stroke-width="4"/>
<path d="M518.63 332.682C521.266 332.682 523.403 329.917 523.403 326.506C523.403 323.095 521.266 320.33 518.63 320.33C515.994 320.33 513.857 323.095 513.857 326.506C513.857 329.917 515.994 332.682 518.63 332.682Z" fill="#444444"/>
<path d="M508.74 256.85C511.376 256.85 513.513 254.085 513.513 250.674C513.513 247.263 511.376 244.498 508.74 244.498C506.103 244.498 503.966 247.263 503.966 250.674C503.966 254.085 506.103 256.85 508.74 256.85Z" fill="#444444"/>
<path d="M570.816 289.135C573.452 289.135 575.59 286.37 575.59 282.96C575.59 279.549 573.452 276.784 570.816 276.784C568.18 276.784 566.043 279.549 566.043 282.96C566.043 286.37 568.18 289.135 570.816 289.135Z" fill="#444444"/>
<path d="M405.342 178.864C407.979 178.864 410.116 176.099 410.116 172.688C410.116 169.277 407.979 166.512 405.342 166.512C402.706 166.512 400.569 169.277 400.569 172.688C400.569 176.099 402.706 178.864 405.342 178.864Z" fill="#444444"/>
<path d="M493.989 148.786C496.625 148.786 498.762 146.021 498.762 142.611C498.762 139.2 496.625 136.435 493.989 136.435C491.353 136.435 489.216 139.2 489.216 142.611C489.216 146.021 491.353 148.786 493.989 148.786Z" fill="#444444"/>
<path d="M488.75 70.5536C491.386 70.5536 493.523 67.7885 493.523 64.3777C493.523 60.9669 491.386 58.2019 488.75 58.2019C486.113 58.2019 483.976 60.9669 483.976 64.3777C483.976 67.7885 486.113 70.5536 488.75 70.5536Z" fill="#444444"/>
<path d="M590.476 144.171C593.112 144.171 595.249 141.406 595.249 137.995C595.249 134.584 593.112 131.819 590.476 131.819C587.84 131.819 585.703 134.584 585.703 137.995C585.703 141.406 587.84 144.171 590.476 144.171Z" fill="#444444"/>
<path d="M537.757 187.804C537.757 184.393 539.894 181.628 542.531 181.628C545.167 181.628 547.304 184.393 547.304 187.804C547.304 191.215 545.167 193.98 542.531 193.98C539.894 193.98 537.757 191.215 537.757 187.804Z" fill="#3BB335"/>
<path d="M457.153 312.619C459.789 312.619 461.926 309.854 461.926 306.443C461.926 303.032 459.789 300.267 457.153 300.267C454.517 300.267 452.38 303.032 452.38 306.443C452.38 309.854 454.517 312.619 457.153 312.619Z" fill="#355FB3"/>
<path d="M434.469 112.043C437.105 112.043 439.242 109.278 439.242 105.867C439.242 102.456 437.105 99.6912 434.469 99.6912C431.832 99.6912 429.695 102.456 429.695 105.867C429.695 109.278 431.832 112.043 434.469 112.043Z" fill="#444444"/>
<path d="M461.08 211.725C463.717 211.725 465.854 208.96 465.854 205.549C465.854 202.138 463.717 199.373 461.08 199.373C458.444 199.373 456.307 202.138 456.307 205.549C456.307 208.96 458.444 211.725 461.08 211.725Z" fill="#C00000"/>
<path d="M412.578 260.603C415.215 260.603 417.352 257.838 417.352 254.427C417.352 251.016 415.215 248.251 412.578 248.251C409.942 248.251 407.805 251.016 407.805 254.427C407.805 257.838 409.942 260.603 412.578 260.603Z" fill="#444444"/>
<path d="M601.227 223.627C603.863 223.627 606 220.862 606 217.451C606 214.041 603.863 211.276 601.227 211.276C598.59 211.276 596.453 214.041 596.453 217.451C596.453 220.862 598.59 223.627 601.227 223.627Z" fill="#444444"/>
<path d="M547.414 93.7979C550.051 93.7979 552.188 91.0329 552.188 87.6221C552.188 84.2113 550.051 81.4463 547.414 81.4463C544.778 81.4463 542.641 84.2113 542.641 87.6221C542.641 91.0329 544.778 93.7979 547.414 93.7979Z" fill="#444444"/>
<defs>
<radialGradient id="paint0_radial" cx="0" cy="0" r="1" gradientUnits="userSpaceOnUse" gradientTransform="translate(325 195) rotate(90) scale(325 508.209)">
<stop offset="0.180253" stop-color="#DFC900" stop-opacity="0"/>
<stop offset="0.653751" stop-color="#D9904E" stop-opacity="0.2"/>
</radialGradient>
</defs>
</svg>
