<svg width="650" height="390" viewBox="0 0 650 390" fill="none" xmlns="http://www.w3.org/2000/svg">
<rect width="650" height="390" fill="white"/>
<rect width="650" height="390" fill="url(#paint0_radial)"/>
<rect x="245" y="175" width="170" height="40" rx="5" fill="#53C42C"/>
<path d="M324.284 188.203L327.571 197.484L330.841 188.203H334.304V201H331.658V197.502L331.922 191.464L328.468 201H326.657L323.212 191.473L323.476 197.502V201H320.839V188.203H324.284ZM336.044 196.157C336.044 195.214 336.226 194.373 336.589 193.635C336.952 192.896 337.474 192.325 338.153 191.921C338.839 191.517 339.633 191.314 340.535 191.314C341.818 191.314 342.864 191.707 343.673 192.492C344.487 193.277 344.941 194.344 345.035 195.691L345.053 196.342C345.053 197.801 344.646 198.973 343.831 199.857C343.017 200.736 341.924 201.176 340.553 201.176C339.182 201.176 338.086 200.736 337.266 199.857C336.451 198.979 336.044 197.783 336.044 196.271V196.157ZM338.584 196.342C338.584 197.244 338.754 197.936 339.094 198.416C339.434 198.891 339.92 199.128 340.553 199.128C341.168 199.128 341.648 198.894 341.994 198.425C342.34 197.95 342.513 197.194 342.513 196.157C342.513 195.272 342.34 194.587 341.994 194.101C341.648 193.614 341.162 193.371 340.535 193.371C339.914 193.371 339.434 193.614 339.094 194.101C338.754 194.581 338.584 195.328 338.584 196.342ZM346.222 196.175C346.222 194.692 346.553 193.512 347.215 192.633C347.883 191.754 348.794 191.314 349.948 191.314C350.874 191.314 351.639 191.66 352.242 192.352V187.5H354.791V201H352.497L352.374 199.989C351.741 200.78 350.927 201.176 349.931 201.176C348.812 201.176 347.912 200.736 347.232 199.857C346.559 198.973 346.222 197.745 346.222 196.175ZM348.762 196.359C348.762 197.25 348.917 197.933 349.228 198.407C349.538 198.882 349.989 199.119 350.581 199.119C351.366 199.119 351.92 198.788 352.242 198.126V194.373C351.926 193.711 351.378 193.38 350.599 193.38C349.374 193.38 348.762 194.373 348.762 196.359ZM361.137 201.176C359.742 201.176 358.605 200.748 357.727 199.893C356.854 199.037 356.417 197.897 356.417 196.474V196.228C356.417 195.272 356.602 194.42 356.971 193.67C357.34 192.914 357.861 192.334 358.535 191.93C359.215 191.52 359.988 191.314 360.855 191.314C362.156 191.314 363.179 191.725 363.923 192.545C364.673 193.365 365.048 194.528 365.048 196.034V197.071H358.992C359.074 197.692 359.32 198.19 359.73 198.565C360.146 198.94 360.671 199.128 361.304 199.128C362.282 199.128 363.047 198.773 363.598 198.064L364.846 199.462C364.465 200.001 363.949 200.423 363.299 200.728C362.648 201.026 361.928 201.176 361.137 201.176ZM360.847 193.371C360.343 193.371 359.933 193.541 359.616 193.881C359.306 194.221 359.106 194.707 359.019 195.34H362.552V195.138C362.54 194.575 362.388 194.142 362.095 193.837C361.802 193.526 361.386 193.371 360.847 193.371ZM369.179 201H366.63V187.5H369.179V201Z" fill="white"/>
<path d="M264.914 185.07C264.107 185.073 263.335 185.142 262.656 185.262C260.657 185.616 260.294 186.355 260.294 187.719V189.519H265.019V190.12H260.294H258.521C257.147 190.12 255.945 190.945 255.569 192.515C255.135 194.315 255.116 195.438 255.569 197.318C255.905 198.716 256.707 199.713 258.08 199.713H259.705V197.554C259.705 195.995 261.054 194.619 262.656 194.619H267.376C268.69 194.619 269.738 193.537 269.738 192.218V187.719C269.738 186.438 268.658 185.476 267.376 185.262C266.564 185.127 265.722 185.066 264.914 185.07ZM262.359 186.518C262.847 186.518 263.246 186.923 263.246 187.421C263.246 187.917 262.847 188.319 262.359 188.319C261.869 188.319 261.472 187.917 261.472 187.421C261.472 186.923 261.869 186.518 262.359 186.518Z" fill="white"/>
<path d="M270.328 190.12V192.218C270.328 193.845 268.949 195.214 267.376 195.214H262.656C261.364 195.214 260.294 196.32 260.294 197.615V202.114C260.294 203.394 261.407 204.148 262.656 204.515C264.152 204.955 265.586 205.035 267.376 204.515C268.565 204.171 269.738 203.477 269.738 202.114V200.313H265.019V199.713H269.738H272.101C273.474 199.713 273.986 198.755 274.463 197.318C274.957 195.837 274.936 194.414 274.463 192.515C274.124 191.148 273.476 190.12 272.101 190.12H270.328V190.12ZM267.673 201.514C268.163 201.514 268.56 201.915 268.56 202.411C268.56 202.909 268.163 203.314 267.673 203.314C267.185 203.314 266.787 202.909 266.787 202.411C266.787 201.915 267.185 201.514 267.673 201.514Z" fill="white"/>
<path d="M520.707 234.707C520.317 235.098 519.683 235.098 519.293 234.707L512.929 228.343C512.538 227.953 512.538 227.319 512.929 226.929C513.319 226.538 513.953 226.538 514.343 226.929L520 232.586L525.657 226.929C526.047 226.538 526.681 226.538 527.071 226.929C527.462 227.319 527.462 227.953 527.071 228.343L520.707 234.707ZM521 215L521 234L519 234L519 215L521 215Z" fill="black"/>
<path d="M140.707 74.7071C140.317 75.0976 139.683 75.0976 139.293 74.7071L132.929 68.3431C132.538 67.9526 132.538 67.3195 132.929 66.9289C133.319 66.5384 133.953 66.5384 134.343 66.9289L140 72.5858L145.657 66.9289C146.047 66.5384 146.681 66.5384 147.071 66.9289C147.462 67.3195 147.462 67.9526 147.071 68.3431L140.707 74.7071ZM141 55L141 74L139 74L139 55L141 55Z" fill="black"/>
<path d="M520.707 174.707C520.317 175.098 519.683 175.098 519.293 174.707L512.929 168.343C512.538 167.953 512.538 167.319 512.929 166.929C513.319 166.538 513.953 166.538 514.343 166.929L520 172.586L525.657 166.929C526.047 166.538 526.681 166.538 527.071 166.929C527.462 167.319 527.462 167.953 527.071 168.343L520.707 174.707ZM521 115L521 174L519 174L519 115L521 115Z" fill="black"/>
<path d="M519.293 320.707C519.683 321.098 520.317 321.098 520.707 320.707L527.071 314.343C527.462 313.953 527.462 313.319 527.071 312.929C526.681 312.538 526.047 312.538 525.657 312.929L520 318.586L514.343 312.929C513.953 312.538 513.319 312.538 512.929 312.929C512.538 313.319 512.538 313.953 512.929 314.343L519.293 320.707ZM519 275L519 320L521 320L521 275L519 275Z" fill="black"/>
<rect x="435" y="175" width="170" height="40" rx="5" fill="#54C42C"/>
<path d="M498.859 195.296C497.412 194.88 496.357 194.37 495.695 193.767C495.039 193.157 494.711 192.407 494.711 191.517C494.711 190.509 495.112 189.677 495.915 189.021C496.724 188.358 497.772 188.027 499.062 188.027C499.94 188.027 500.723 188.197 501.408 188.537C502.1 188.877 502.633 189.346 503.008 189.943C503.389 190.541 503.579 191.194 503.579 191.903H501.883C501.883 191.13 501.637 190.523 501.145 190.084C500.652 189.639 499.958 189.416 499.062 189.416C498.229 189.416 497.579 189.601 497.11 189.97C496.647 190.333 496.416 190.84 496.416 191.49C496.416 192.012 496.636 192.454 497.075 192.817C497.521 193.175 498.273 193.503 499.334 193.802C500.4 194.101 501.232 194.432 501.83 194.795C502.434 195.152 502.879 195.571 503.166 196.052C503.459 196.532 503.605 197.098 503.605 197.748C503.605 198.785 503.201 199.617 502.393 200.244C501.584 200.865 500.503 201.176 499.149 201.176C498.271 201.176 497.45 201.009 496.688 200.675C495.927 200.335 495.338 199.872 494.922 199.286C494.512 198.7 494.307 198.035 494.307 197.291H496.003C496.003 198.064 496.287 198.677 496.855 199.128C497.43 199.573 498.194 199.796 499.149 199.796C500.04 199.796 500.723 199.614 501.197 199.251C501.672 198.888 501.909 198.393 501.909 197.766C501.909 197.139 501.689 196.655 501.25 196.315C500.811 195.97 500.014 195.63 498.859 195.296ZM509.336 199.849C509.916 199.849 510.423 199.673 510.856 199.321C511.29 198.97 511.53 198.53 511.577 198.003H513.115C513.086 198.548 512.898 199.066 512.553 199.559C512.207 200.051 511.744 200.443 511.164 200.736C510.59 201.029 509.98 201.176 509.336 201.176C508.041 201.176 507.01 200.745 506.242 199.884C505.48 199.017 505.1 197.833 505.1 196.333V196.061C505.1 195.135 505.27 194.312 505.609 193.591C505.949 192.87 506.436 192.311 507.068 191.912C507.707 191.514 508.46 191.314 509.327 191.314C510.394 191.314 511.278 191.634 511.981 192.272C512.69 192.911 513.068 193.74 513.115 194.76H511.577C511.53 194.145 511.296 193.641 510.874 193.248C510.458 192.85 509.942 192.65 509.327 192.65C508.501 192.65 507.859 192.949 507.402 193.547C506.951 194.139 506.726 194.997 506.726 196.122V196.43C506.726 197.525 506.951 198.369 507.402 198.961C507.854 199.553 508.498 199.849 509.336 199.849ZM519.54 192.949C519.294 192.908 519.027 192.888 518.74 192.888C517.674 192.888 516.95 193.342 516.569 194.25V201H514.943V191.49H516.525L516.552 192.589C517.085 191.739 517.841 191.314 518.819 191.314C519.136 191.314 519.376 191.355 519.54 191.438V192.949ZM526.562 201C526.469 200.812 526.393 200.479 526.334 199.998C525.578 200.783 524.676 201.176 523.627 201.176C522.689 201.176 521.919 200.912 521.315 200.385C520.718 199.852 520.419 199.178 520.419 198.363C520.419 197.373 520.794 196.605 521.544 196.061C522.3 195.51 523.36 195.234 524.726 195.234H526.308V194.487C526.308 193.919 526.138 193.468 525.798 193.134C525.458 192.794 524.957 192.624 524.295 192.624C523.715 192.624 523.229 192.771 522.836 193.063C522.443 193.356 522.247 193.711 522.247 194.127H520.612C520.612 193.652 520.779 193.195 521.113 192.756C521.453 192.311 521.91 191.959 522.484 191.701C523.064 191.443 523.7 191.314 524.392 191.314C525.487 191.314 526.346 191.59 526.967 192.141C527.588 192.686 527.91 193.438 527.934 194.399V198.776C527.934 199.649 528.045 200.344 528.268 200.859V201H526.562ZM523.864 199.761C524.374 199.761 524.857 199.629 525.314 199.365C525.771 199.102 526.103 198.759 526.308 198.337V196.386H525.033C523.041 196.386 522.045 196.969 522.045 198.135C522.045 198.645 522.215 199.043 522.555 199.33C522.895 199.617 523.331 199.761 523.864 199.761ZM538.516 196.351C538.516 197.798 538.185 198.964 537.522 199.849C536.86 200.733 535.964 201.176 534.833 201.176C533.679 201.176 532.771 200.81 532.108 200.077V204.656H530.482V191.49H531.968L532.047 192.545C532.709 191.725 533.629 191.314 534.807 191.314C535.949 191.314 536.852 191.745 537.514 192.606C538.182 193.468 538.516 194.666 538.516 196.201V196.351ZM536.89 196.166C536.89 195.094 536.661 194.247 536.204 193.626C535.747 193.005 535.12 192.694 534.323 192.694C533.339 192.694 532.601 193.131 532.108 194.004V198.548C532.595 199.415 533.339 199.849 534.341 199.849C535.12 199.849 535.738 199.541 536.195 198.926C536.658 198.305 536.89 197.385 536.89 196.166ZM544.536 201.176C543.247 201.176 542.198 200.754 541.39 199.91C540.581 199.061 540.177 197.927 540.177 196.509V196.21C540.177 195.267 540.355 194.426 540.713 193.688C541.076 192.943 541.58 192.363 542.225 191.947C542.875 191.525 543.578 191.314 544.334 191.314C545.57 191.314 546.531 191.722 547.217 192.536C547.902 193.351 548.245 194.517 548.245 196.034V196.711H541.803C541.826 197.648 542.099 198.407 542.62 198.987C543.147 199.562 543.815 199.849 544.624 199.849C545.198 199.849 545.685 199.731 546.083 199.497C546.481 199.263 546.83 198.952 547.129 198.565L548.122 199.339C547.325 200.563 546.13 201.176 544.536 201.176ZM544.334 192.65C543.678 192.65 543.127 192.891 542.682 193.371C542.236 193.846 541.961 194.514 541.855 195.375H546.619V195.252C546.572 194.426 546.35 193.787 545.951 193.336C545.553 192.879 545.014 192.65 544.334 192.65ZM554.854 201V188.203H558.467C559.58 188.203 560.564 188.449 561.42 188.941C562.275 189.434 562.935 190.134 563.397 191.042C563.866 191.95 564.104 192.993 564.109 194.171V194.988C564.109 196.195 563.875 197.253 563.406 198.161C562.943 199.069 562.278 199.767 561.411 200.253C560.55 200.739 559.545 200.988 558.396 201H554.854ZM556.542 189.592V199.62H558.317C559.618 199.62 560.629 199.216 561.35 198.407C562.076 197.599 562.439 196.447 562.439 194.953V194.206C562.439 192.753 562.097 191.625 561.411 190.822C560.731 190.014 559.765 189.604 558.511 189.592H556.542ZM566.667 201V188.203H570.851C572.239 188.203 573.282 188.49 573.979 189.064C574.683 189.639 575.034 190.488 575.034 191.613C575.034 192.211 574.864 192.741 574.524 193.204C574.185 193.661 573.722 194.016 573.136 194.268C573.827 194.461 574.372 194.83 574.771 195.375C575.175 195.914 575.377 196.559 575.377 197.309C575.377 198.457 575.005 199.359 574.261 200.016C573.517 200.672 572.465 201 571.105 201H566.667ZM568.354 195.015V199.62H571.141C571.926 199.62 572.544 199.418 572.995 199.014C573.452 198.604 573.681 198.041 573.681 197.326C573.681 195.785 572.843 195.015 571.167 195.015H568.354ZM568.354 193.661H570.903C571.642 193.661 572.23 193.477 572.67 193.107C573.115 192.738 573.338 192.237 573.338 191.604C573.338 190.901 573.133 190.392 572.723 190.075C572.312 189.753 571.688 189.592 570.851 189.592H568.354V193.661Z" fill="white"/>
<path d="M452.518 203.75C448.367 203.75 445 202.629 445 201.25C445 200.496 445 199.67 445 198.75C445 198.533 445.109 198.326 445.266 198.125C446.104 199.202 449.019 200 452.518 200C456.018 200 458.933 199.202 459.771 198.125C459.928 198.326 460.036 198.533 460.036 198.75C460.036 199.474 460.036 200.242 460.036 201.25C460.036 202.629 456.669 203.75 452.518 203.75ZM452.518 198.75C448.367 198.75 445 197.629 445 196.25C445 195.495 445 194.671 445 193.75C445 193.618 445.05 193.489 445.117 193.361C445.155 193.281 445.206 193.203 445.266 193.125C446.104 194.201 449.019 195 452.518 195C456.018 195 458.933 194.201 459.771 193.125C459.831 193.203 459.881 193.281 459.919 193.361C459.986 193.489 460.036 193.618 460.036 193.75C460.036 194.474 460.036 195.241 460.036 196.25C460.036 197.629 456.669 198.75 452.518 198.75ZM452.518 193.75C448.367 193.75 445 192.63 445 191.25C445 190.855 445 190.438 445 190C445 189.603 445 189.19 445 188.75C445 187.37 448.367 186.25 452.518 186.25C456.669 186.25 460.036 187.37 460.036 188.75C460.036 189.14 460.036 189.554 460.036 190C460.036 190.383 460.036 190.786 460.036 191.25C460.036 192.63 456.669 193.75 452.518 193.75ZM452.518 187.5C449.75 187.5 447.506 188.058 447.506 188.75C447.506 189.442 449.75 190 452.518 190C455.286 190 457.53 189.442 457.53 188.75C457.53 188.058 455.286 187.5 452.518 187.5Z" fill="white"/>
<rect x="55" y="245" width="170" height="40" rx="5" fill="#C42C2D"/>
<path d="M105.641 265.823H102.635V271H100.938V258.203H105.175C106.616 258.203 107.724 258.531 108.497 259.188C109.276 259.844 109.666 260.799 109.666 262.053C109.666 262.85 109.449 263.544 109.016 264.136C108.588 264.728 107.99 265.17 107.223 265.463L110.229 270.895V271H108.418L105.641 265.823ZM102.635 264.443H105.228C106.065 264.443 106.73 264.227 107.223 263.793C107.721 263.359 107.97 262.779 107.97 262.053C107.97 261.262 107.732 260.655 107.258 260.233C106.789 259.812 106.109 259.598 105.219 259.592H102.635V264.443ZM115.73 271.176C114.441 271.176 113.393 270.754 112.584 269.91C111.775 269.061 111.371 267.927 111.371 266.509V266.21C111.371 265.267 111.55 264.426 111.907 263.688C112.271 262.943 112.774 262.363 113.419 261.947C114.069 261.525 114.772 261.314 115.528 261.314C116.765 261.314 117.726 261.722 118.411 262.536C119.097 263.351 119.439 264.517 119.439 266.034V266.711H112.997C113.021 267.648 113.293 268.407 113.814 268.987C114.342 269.562 115.01 269.849 115.818 269.849C116.393 269.849 116.879 269.731 117.277 269.497C117.676 269.263 118.024 268.952 118.323 268.565L119.316 269.339C118.52 270.563 117.324 271.176 115.73 271.176ZM115.528 262.65C114.872 262.65 114.321 262.891 113.876 263.371C113.431 263.846 113.155 264.514 113.05 265.375H117.813V265.252C117.767 264.426 117.544 263.787 117.146 263.336C116.747 262.879 116.208 262.65 115.528 262.65ZM120.934 266.166C120.934 264.672 121.276 263.491 121.962 262.624C122.647 261.751 123.567 261.314 124.722 261.314C125.847 261.314 126.734 261.692 127.385 262.448L127.455 261.49H128.949V274.656H127.323V270.121C126.667 270.824 125.794 271.176 124.704 271.176C123.556 271.176 122.639 270.73 121.953 269.84C121.273 268.943 120.934 267.757 120.934 266.28V266.166ZM122.56 266.351C122.56 267.44 122.788 268.296 123.245 268.917C123.708 269.538 124.329 269.849 125.108 269.849C126.075 269.849 126.813 269.421 127.323 268.565V263.907C126.808 263.069 126.075 262.65 125.126 262.65C124.341 262.65 123.717 262.964 123.254 263.591C122.791 264.212 122.56 265.132 122.56 266.351ZM137.431 270.06C136.798 270.804 135.869 271.176 134.645 271.176C133.631 271.176 132.857 270.883 132.324 270.297C131.797 269.705 131.53 268.832 131.524 267.678V261.49H133.15V267.634C133.15 269.075 133.736 269.796 134.908 269.796C136.15 269.796 136.977 269.333 137.387 268.407V261.49H139.013V271H137.466L137.431 270.06ZM143.258 271H141.632V261.49H143.258V271ZM141.5 258.968C141.5 258.704 141.579 258.481 141.737 258.3C141.901 258.118 142.142 258.027 142.458 258.027C142.774 258.027 143.015 258.118 143.179 258.3C143.343 258.481 143.425 258.704 143.425 258.968C143.425 259.231 143.343 259.451 143.179 259.627C143.015 259.803 142.774 259.891 142.458 259.891C142.142 259.891 141.901 259.803 141.737 259.627C141.579 259.451 141.5 259.231 141.5 258.968ZM150.465 262.949C150.219 262.908 149.952 262.888 149.665 262.888C148.599 262.888 147.875 263.342 147.494 264.25V271H145.868V261.49H147.45L147.477 262.589C148.01 261.739 148.766 261.314 149.744 261.314C150.061 261.314 150.301 261.355 150.465 261.438V262.949ZM155.738 271.176C154.449 271.176 153.4 270.754 152.592 269.91C151.783 269.061 151.379 267.927 151.379 266.509V266.21C151.379 265.267 151.558 264.426 151.915 263.688C152.278 262.943 152.782 262.363 153.427 261.947C154.077 261.525 154.78 261.314 155.536 261.314C156.772 261.314 157.733 261.722 158.419 262.536C159.104 263.351 159.447 264.517 159.447 266.034V266.711H153.005C153.028 267.648 153.301 268.407 153.822 268.987C154.35 269.562 155.018 269.849 155.826 269.849C156.4 269.849 156.887 269.731 157.285 269.497C157.684 269.263 158.032 268.952 158.331 268.565L159.324 269.339C158.527 270.563 157.332 271.176 155.738 271.176ZM155.536 262.65C154.88 262.65 154.329 262.891 153.884 263.371C153.438 263.846 153.163 264.514 153.058 265.375H157.821V265.252C157.774 264.426 157.552 263.787 157.153 263.336C156.755 262.879 156.216 262.65 155.536 262.65ZM162.866 261.49L162.91 262.545C163.607 261.725 164.548 261.314 165.731 261.314C167.062 261.314 167.967 261.824 168.447 262.844C168.764 262.387 169.174 262.018 169.678 261.736C170.188 261.455 170.788 261.314 171.479 261.314C173.565 261.314 174.626 262.419 174.661 264.628V271H173.035V264.725C173.035 264.045 172.88 263.538 172.569 263.204C172.259 262.864 171.737 262.694 171.005 262.694C170.401 262.694 169.9 262.876 169.502 263.239C169.104 263.597 168.872 264.08 168.808 264.689V271H167.173V264.769C167.173 263.386 166.496 262.694 165.143 262.694C164.076 262.694 163.347 263.148 162.954 264.057V271H161.328V261.49H162.866ZM181.068 271.176C179.779 271.176 178.73 270.754 177.922 269.91C177.113 269.061 176.709 267.927 176.709 266.509V266.21C176.709 265.267 176.888 264.426 177.245 263.688C177.608 262.943 178.112 262.363 178.757 261.947C179.407 261.525 180.11 261.314 180.866 261.314C182.103 261.314 183.063 261.722 183.749 262.536C184.435 263.351 184.777 264.517 184.777 266.034V266.711H178.335C178.358 267.648 178.631 268.407 179.152 268.987C179.68 269.562 180.348 269.849 181.156 269.849C181.73 269.849 182.217 269.731 182.615 269.497C183.014 269.263 183.362 268.952 183.661 268.565L184.654 269.339C183.857 270.563 182.662 271.176 181.068 271.176ZM180.866 262.65C180.21 262.65 179.659 262.891 179.214 263.371C178.769 263.846 178.493 264.514 178.388 265.375H183.151V265.252C183.104 264.426 182.882 263.787 182.483 263.336C182.085 262.879 181.546 262.65 180.866 262.65ZM188.205 261.49L188.258 262.686C188.984 261.771 189.934 261.314 191.105 261.314C193.115 261.314 194.129 262.448 194.146 264.716V271H192.521V264.707C192.515 264.021 192.356 263.515 192.046 263.187C191.741 262.858 191.264 262.694 190.613 262.694C190.086 262.694 189.623 262.835 189.225 263.116C188.826 263.397 188.516 263.767 188.293 264.224V271H186.667V261.49H188.205ZM198.805 259.188V261.49H200.58V262.747H198.805V268.645C198.805 269.025 198.884 269.312 199.042 269.506C199.2 269.693 199.47 269.787 199.851 269.787C200.038 269.787 200.296 269.752 200.624 269.682V271C200.196 271.117 199.78 271.176 199.376 271.176C198.649 271.176 198.102 270.956 197.732 270.517C197.363 270.077 197.179 269.453 197.179 268.645V262.747H195.447V261.49H197.179V259.188H198.805ZM208.024 268.478C208.024 268.038 207.857 267.698 207.523 267.458C207.195 267.212 206.618 267.001 205.792 266.825C204.972 266.649 204.318 266.438 203.832 266.192C203.352 265.946 202.994 265.653 202.76 265.313C202.531 264.974 202.417 264.569 202.417 264.101C202.417 263.321 202.745 262.662 203.401 262.123C204.063 261.584 204.907 261.314 205.933 261.314C207.011 261.314 207.884 261.593 208.552 262.149C209.226 262.706 209.562 263.418 209.562 264.285H207.928C207.928 263.84 207.737 263.456 207.356 263.134C206.981 262.812 206.507 262.65 205.933 262.65C205.341 262.65 204.878 262.779 204.544 263.037C204.21 263.295 204.043 263.632 204.043 264.048C204.043 264.44 204.198 264.736 204.509 264.936C204.819 265.135 205.379 265.325 206.188 265.507C207.002 265.688 207.661 265.905 208.165 266.157C208.669 266.409 209.041 266.714 209.281 267.071C209.527 267.423 209.65 267.854 209.65 268.363C209.65 269.213 209.311 269.896 208.631 270.411C207.951 270.921 207.069 271.176 205.985 271.176C205.224 271.176 204.55 271.041 203.964 270.771C203.378 270.502 202.918 270.127 202.584 269.646C202.256 269.16 202.092 268.636 202.092 268.073H203.718C203.747 268.618 203.964 269.052 204.368 269.374C204.778 269.69 205.317 269.849 205.985 269.849C206.601 269.849 207.093 269.726 207.462 269.479C207.837 269.228 208.024 268.894 208.024 268.478Z" fill="white"/>
<path fill-rule="evenodd" clip-rule="evenodd" d="M78.6343 259.25C78.6343 260.642 78.0812 261.978 77.0966 262.962C76.7613 263.298 76.3853 263.583 75.9801 263.813C76.3847 263.929 76.778 264.071 77.1581 264.238C80.1873 265.563 82.385 268.434 82.7693 271.85C82.7693 272.041 82.7456 272.226 82.7009 272.402C82.7278 272.566 82.7507 272.732 82.7693 272.9C82.7693 274.055 81.8946 275 80.7344 275H66.0344C64.8745 275 64 274.055 64 272.9C64.0186 272.732 64.0414 272.566 64.0684 272.401C64.0237 272.226 64 272.041 64 271.85C64.3839 268.434 66.581 265.563 69.6109 264.238C69.9908 264.071 70.384 263.929 70.7885 263.813C70.3834 263.583 70.0074 263.298 69.672 262.962C68.6875 261.978 68.1343 260.642 68.1343 259.25C68.1343 257.858 68.6875 256.522 69.672 255.538C70.6566 254.553 71.992 254 73.3843 254C74.7767 254 76.1121 254.553 77.0966 255.538C78.0812 256.522 78.6343 257.858 78.6343 259.25Z" fill="white"/>
<path d="M434.707 245.707C435.098 245.317 435.098 244.683 434.707 244.293L428.343 237.929C427.953 237.538 427.319 237.538 426.929 237.929C426.538 238.319 426.538 238.953 426.929 239.343L432.586 245L426.929 250.657C426.538 251.047 426.538 251.681 426.929 252.071C427.319 252.462 427.953 252.462 428.343 252.071L434.707 245.707ZM330 245H329V246H330V245ZM329 215V245H331V215H329ZM330 246H434V244H330V246Z" fill="black"/>
<path d="M434.707 264.293C435.098 264.683 435.098 265.317 434.707 265.707L428.343 272.071C427.953 272.462 427.319 272.462 426.929 272.071C426.538 271.681 426.538 271.047 426.929 270.657L432.586 265L426.929 259.343C426.538 258.953 426.538 258.319 426.929 257.929C427.319 257.538 427.953 257.538 428.343 257.929L434.707 264.293ZM225 264H434V266H225V264Z" fill="black"/>
<rect x="435" y="235" width="170" height="40" rx="5" fill="#2CB2C4"/>
<path d="M506.479 259.321C506.046 259.942 505.439 260.408 504.66 260.719C503.887 261.023 502.984 261.176 501.953 261.176C500.91 261.176 499.984 260.933 499.176 260.446C498.367 259.954 497.74 259.257 497.295 258.354C496.855 257.452 496.63 256.406 496.618 255.217V254.101C496.618 252.173 497.066 250.679 497.963 249.618C498.865 248.558 500.131 248.027 501.76 248.027C503.096 248.027 504.171 248.37 504.985 249.056C505.8 249.735 506.298 250.702 506.479 251.956H504.792C504.476 250.263 503.468 249.416 501.769 249.416C500.638 249.416 499.779 249.814 499.193 250.611C498.613 251.402 498.32 252.551 498.314 254.057V255.103C498.314 256.538 498.643 257.681 499.299 258.53C499.955 259.374 500.843 259.796 501.962 259.796C502.595 259.796 503.148 259.726 503.623 259.585C504.098 259.444 504.49 259.207 504.801 258.873V255.999H501.839V254.628H506.479V259.321ZM512.992 261.176C511.703 261.176 510.654 260.754 509.846 259.91C509.037 259.061 508.633 257.927 508.633 256.509V256.21C508.633 255.267 508.812 254.426 509.169 253.688C509.532 252.943 510.036 252.363 510.681 251.947C511.331 251.525 512.034 251.314 512.79 251.314C514.026 251.314 514.987 251.722 515.673 252.536C516.358 253.351 516.701 254.517 516.701 256.034V256.711H510.259C510.282 257.648 510.555 258.407 511.076 258.987C511.604 259.562 512.271 259.849 513.08 259.849C513.654 259.849 514.141 259.731 514.539 259.497C514.938 259.263 515.286 258.952 515.585 258.565L516.578 259.339C515.781 260.563 514.586 261.176 512.992 261.176ZM512.79 252.65C512.134 252.65 511.583 252.891 511.138 253.371C510.692 253.846 510.417 254.514 510.312 255.375H515.075V255.252C515.028 254.426 514.806 253.787 514.407 253.336C514.009 252.879 513.47 252.65 512.79 252.65ZM520.129 251.49L520.182 252.686C520.908 251.771 521.857 251.314 523.029 251.314C525.039 251.314 526.053 252.448 526.07 254.716V261H524.444V254.707C524.438 254.021 524.28 253.515 523.97 253.187C523.665 252.858 523.188 252.694 522.537 252.694C522.01 252.694 521.547 252.835 521.148 253.116C520.75 253.397 520.439 253.767 520.217 254.224V261H518.591V251.49H520.129ZM532.469 261.176C531.18 261.176 530.131 260.754 529.322 259.91C528.514 259.061 528.109 257.927 528.109 256.509V256.21C528.109 255.267 528.288 254.426 528.646 253.688C529.009 252.943 529.513 252.363 530.157 251.947C530.808 251.525 531.511 251.314 532.267 251.314C533.503 251.314 534.464 251.722 535.149 252.536C535.835 253.351 536.178 254.517 536.178 256.034V256.711H529.735C529.759 257.648 530.031 258.407 530.553 258.987C531.08 259.562 531.748 259.849 532.557 259.849C533.131 259.849 533.617 259.731 534.016 259.497C534.414 259.263 534.763 258.952 535.062 258.565L536.055 259.339C535.258 260.563 534.062 261.176 532.469 261.176ZM532.267 252.65C531.61 252.65 531.06 252.891 530.614 253.371C530.169 253.846 529.894 254.514 529.788 255.375H534.552V255.252C534.505 254.426 534.282 253.787 533.884 253.336C533.485 252.879 532.946 252.65 532.267 252.65ZM542.664 252.949C542.418 252.908 542.151 252.888 541.864 252.888C540.798 252.888 540.074 253.342 539.693 254.25V261H538.067V251.49H539.649L539.676 252.589C540.209 251.739 540.965 251.314 541.943 251.314C542.26 251.314 542.5 251.355 542.664 251.438V252.949ZM549.687 261C549.593 260.812 549.517 260.479 549.458 259.998C548.702 260.783 547.8 261.176 546.751 261.176C545.813 261.176 545.043 260.912 544.439 260.385C543.842 259.852 543.543 259.178 543.543 258.363C543.543 257.373 543.918 256.605 544.668 256.061C545.424 255.51 546.484 255.234 547.85 255.234H549.432V254.487C549.432 253.919 549.262 253.468 548.922 253.134C548.582 252.794 548.081 252.624 547.419 252.624C546.839 252.624 546.353 252.771 545.96 253.063C545.567 253.356 545.371 253.711 545.371 254.127H543.736C543.736 253.652 543.903 253.195 544.237 252.756C544.577 252.311 545.034 251.959 545.608 251.701C546.188 251.443 546.824 251.314 547.516 251.314C548.611 251.314 549.47 251.59 550.091 252.141C550.712 252.686 551.034 253.438 551.058 254.399V258.776C551.058 259.649 551.169 260.344 551.392 260.859V261H549.687ZM546.988 259.761C547.498 259.761 547.981 259.629 548.438 259.365C548.896 259.102 549.227 258.759 549.432 258.337V256.386H548.157C546.165 256.386 545.169 256.969 545.169 258.135C545.169 258.645 545.339 259.043 545.679 259.33C546.019 259.617 546.455 259.761 546.988 259.761ZM555.812 249.188V251.49H557.588V252.747H555.812V258.645C555.812 259.025 555.892 259.312 556.05 259.506C556.208 259.693 556.478 259.787 556.858 259.787C557.046 259.787 557.304 259.752 557.632 259.682V261C557.204 261.117 556.788 261.176 556.384 261.176C555.657 261.176 555.109 260.956 554.74 260.517C554.371 260.077 554.187 259.453 554.187 258.645V252.747H552.455V251.49H554.187V249.188H555.812ZM558.889 256.157C558.889 255.226 559.07 254.388 559.434 253.644C559.803 252.899 560.312 252.325 560.963 251.921C561.619 251.517 562.366 251.314 563.204 251.314C564.499 251.314 565.545 251.763 566.342 252.659C567.145 253.556 567.546 254.748 567.546 256.236V256.351C567.546 257.276 567.367 258.108 567.01 258.847C566.658 259.579 566.151 260.15 565.489 260.561C564.833 260.971 564.077 261.176 563.222 261.176C561.933 261.176 560.887 260.728 560.084 259.831C559.287 258.935 558.889 257.748 558.889 256.271V256.157ZM560.523 256.351C560.523 257.405 560.767 258.252 561.253 258.891C561.745 259.529 562.401 259.849 563.222 259.849C564.048 259.849 564.704 259.526 565.19 258.882C565.677 258.231 565.92 257.323 565.92 256.157C565.92 255.114 565.671 254.271 565.173 253.626C564.681 252.976 564.024 252.65 563.204 252.65C562.401 252.65 561.754 252.97 561.262 253.608C560.77 254.247 560.523 255.161 560.523 256.351ZM574.182 252.949C573.936 252.908 573.669 252.888 573.382 252.888C572.315 252.888 571.592 253.342 571.211 254.25V261H569.585V251.49H571.167L571.193 252.589C571.727 251.739 572.482 251.314 573.461 251.314C573.777 251.314 574.018 251.355 574.182 251.438V252.949Z" fill="white"/>
<path d="M447.104 264.583H462.896C463.241 264.583 463.521 264.303 463.521 263.958V249.101C463.521 248.935 463.455 248.775 463.337 248.658L460.267 245.599C460.149 245.482 459.991 245.417 459.826 245.417H447.104C446.759 245.417 446.479 245.697 446.479 246.042V263.958C446.479 264.303 446.759 264.583 447.104 264.583ZM462.261 249.35H460.012V247.109L462.261 249.35ZM447.729 246.667H458.762V249.975C458.762 250.32 459.042 250.6 459.387 250.6H462.271V263.333H447.729V246.667Z" fill="white"/>
<path d="M452.292 253.542H453.75C454.095 253.542 454.375 253.262 454.375 252.917C454.375 252.572 454.095 252.292 453.75 252.292H451.667C451.322 252.292 451.042 252.572 451.042 252.917V255.208H450C449.655 255.208 449.375 255.488 449.375 255.833C449.375 256.178 449.655 256.458 450 256.458H451.042V258.75C451.042 259.095 451.322 259.375 451.667 259.375H453.75C454.095 259.375 454.375 259.095 454.375 258.75C454.375 258.405 454.095 258.125 453.75 258.125H452.292V253.542Z" fill="white"/>
<path d="M460.417 255.208H459.375V252.917C459.375 252.572 459.095 252.292 458.75 252.292H456.667C456.322 252.292 456.042 252.572 456.042 252.917C456.042 253.262 456.322 253.542 456.667 253.542H458.125V258.125H456.667C456.322 258.125 456.042 258.405 456.042 258.75C456.042 259.095 456.322 259.375 456.667 259.375H458.75C459.095 259.375 459.375 259.095 459.375 258.75V256.458H460.417C460.762 256.458 461.042 256.178 461.042 255.833C461.042 255.488 460.762 255.208 460.417 255.208Z" fill="white"/>
<path d="M500.259 373.958H539.741C540.603 373.958 541.303 373.258 541.303 372.396V335.252C541.303 334.837 541.137 334.438 540.843 334.145L533.166 326.497C532.873 326.205 532.476 326.042 532.063 326.042H500.259C499.396 326.042 498.697 326.742 498.697 327.604V372.396C498.697 373.258 499.396 373.958 500.259 373.958ZM538.152 335.874H532.529V330.273L538.152 335.874ZM501.822 329.167H529.404V337.437C529.404 338.3 530.104 338.999 530.967 338.999H538.178V370.833H501.822V329.167Z" fill="#54C42C"/>
<path d="M513.229 346.354H516.875C517.738 346.354 518.438 345.654 518.438 344.792C518.438 343.929 517.738 343.229 516.875 343.229H511.667C510.804 343.229 510.104 343.929 510.104 344.792V350.521H507.5C506.637 350.521 505.938 351.221 505.938 352.083C505.938 352.946 506.637 353.646 507.5 353.646H510.104V359.375C510.104 360.238 510.804 360.938 511.667 360.938H516.875C517.738 360.938 518.438 360.238 518.438 359.375C518.438 358.512 517.738 357.813 516.875 357.813H513.229V346.354Z" fill="#54C42C"/>
<path d="M533.542 350.521H530.937V344.792C530.937 343.929 530.237 343.229 529.375 343.229H524.167C523.304 343.229 522.604 343.929 522.604 344.792C522.604 345.654 523.304 346.354 524.167 346.354H527.812V357.813H524.167C523.304 357.813 522.604 358.512 522.604 359.375C522.604 360.238 523.304 360.938 524.167 360.938H529.375C530.237 360.938 530.937 360.238 530.937 359.375V353.646H533.542C534.404 353.646 535.104 352.946 535.104 352.083C535.104 351.221 534.404 350.521 533.542 350.521Z" fill="#54C42C"/>
<rect x="55" y="15" width="170" height="40" rx="5" fill="#C42C2D"/>
<path d="M104.375 35.2959C102.928 34.8799 101.873 34.3701 101.211 33.7666C100.555 33.1572 100.227 32.4072 100.227 31.5166C100.227 30.5088 100.628 29.6768 101.431 29.0205C102.239 28.3584 103.288 28.0273 104.577 28.0273C105.456 28.0273 106.238 28.1973 106.924 28.5371C107.615 28.877 108.148 29.3457 108.523 29.9434C108.904 30.541 109.095 31.1943 109.095 31.9033H107.398C107.398 31.1299 107.152 30.5234 106.66 30.084C106.168 29.6387 105.474 29.416 104.577 29.416C103.745 29.416 103.095 29.6006 102.626 29.9697C102.163 30.333 101.932 30.8398 101.932 31.4902C101.932 32.0117 102.151 32.4541 102.591 32.8174C103.036 33.1748 103.789 33.5029 104.85 33.8018C105.916 34.1006 106.748 34.4316 107.346 34.7949C107.949 35.1523 108.395 35.5713 108.682 36.0518C108.975 36.5322 109.121 37.0977 109.121 37.748C109.121 38.7852 108.717 39.6172 107.908 40.2441C107.1 40.8652 106.019 41.1758 104.665 41.1758C103.786 41.1758 102.966 41.0088 102.204 40.6748C101.442 40.335 100.854 39.8721 100.438 39.2861C100.027 38.7002 99.8223 38.0352 99.8223 37.291H101.519C101.519 38.0645 101.803 38.6768 102.371 39.1279C102.945 39.5732 103.71 39.7959 104.665 39.7959C105.556 39.7959 106.238 39.6143 106.713 39.251C107.188 38.8877 107.425 38.3926 107.425 37.7656C107.425 37.1387 107.205 36.6553 106.766 36.3154C106.326 35.9697 105.529 35.6299 104.375 35.2959ZM114.852 39.8486C115.432 39.8486 115.938 39.6729 116.372 39.3213C116.806 38.9697 117.046 38.5303 117.093 38.0029H118.631C118.602 38.5479 118.414 39.0664 118.068 39.5586C117.723 40.0508 117.26 40.4434 116.68 40.7363C116.105 41.0293 115.496 41.1758 114.852 41.1758C113.557 41.1758 112.525 40.7451 111.758 39.8838C110.996 39.0166 110.615 37.833 110.615 36.333V36.0605C110.615 35.1348 110.785 34.3115 111.125 33.5908C111.465 32.8701 111.951 32.3105 112.584 31.9121C113.223 31.5137 113.976 31.3145 114.843 31.3145C115.909 31.3145 116.794 31.6338 117.497 32.2725C118.206 32.9111 118.584 33.7402 118.631 34.7598H117.093C117.046 34.1445 116.812 33.6406 116.39 33.248C115.974 32.8496 115.458 32.6504 114.843 32.6504C114.017 32.6504 113.375 32.9492 112.918 33.5469C112.467 34.1387 112.241 34.9971 112.241 36.1221V36.4297C112.241 37.5254 112.467 38.3691 112.918 38.9609C113.369 39.5527 114.014 39.8486 114.852 39.8486ZM125.056 32.9492C124.81 32.9082 124.543 32.8877 124.256 32.8877C123.189 32.8877 122.466 33.3418 122.085 34.25V41H120.459V31.4902H122.041L122.067 32.5889C122.601 31.7393 123.356 31.3145 124.335 31.3145C124.651 31.3145 124.892 31.3555 125.056 31.4375V32.9492ZM132.078 41C131.984 40.8125 131.908 40.4785 131.85 39.998C131.094 40.7832 130.191 41.1758 129.143 41.1758C128.205 41.1758 127.435 40.9121 126.831 40.3848C126.233 39.8516 125.935 39.1777 125.935 38.3633C125.935 37.373 126.31 36.6055 127.06 36.0605C127.815 35.5098 128.876 35.2344 130.241 35.2344H131.823V34.4873C131.823 33.9189 131.653 33.4678 131.313 33.1338C130.974 32.7939 130.473 32.624 129.811 32.624C129.23 32.624 128.744 32.7705 128.352 33.0635C127.959 33.3564 127.763 33.7109 127.763 34.127H126.128C126.128 33.6523 126.295 33.1953 126.629 32.7559C126.969 32.3105 127.426 31.959 128 31.7012C128.58 31.4434 129.216 31.3145 129.907 31.3145C131.003 31.3145 131.861 31.5898 132.482 32.1406C133.104 32.6855 133.426 33.4385 133.449 34.3994V38.7764C133.449 39.6494 133.561 40.3438 133.783 40.8594V41H132.078ZM129.38 39.7607C129.89 39.7607 130.373 39.6289 130.83 39.3652C131.287 39.1016 131.618 38.7588 131.823 38.3369V36.3857H130.549C128.557 36.3857 127.561 36.9688 127.561 38.1348C127.561 38.6445 127.73 39.043 128.07 39.3301C128.41 39.6172 128.847 39.7607 129.38 39.7607ZM144.031 36.3506C144.031 37.7979 143.7 38.9639 143.038 39.8486C142.376 40.7334 141.479 41.1758 140.349 41.1758C139.194 41.1758 138.286 40.8096 137.624 40.0771V44.6562H135.998V31.4902H137.483L137.562 32.5449C138.225 31.7246 139.145 31.3145 140.322 31.3145C141.465 31.3145 142.367 31.7451 143.029 32.6064C143.697 33.4678 144.031 34.666 144.031 36.2012V36.3506ZM142.405 36.166C142.405 35.0938 142.177 34.2471 141.72 33.626C141.263 33.0049 140.636 32.6943 139.839 32.6943C138.854 32.6943 138.116 33.1309 137.624 34.0039V38.5479C138.11 39.415 138.854 39.8486 139.856 39.8486C140.636 39.8486 141.254 39.541 141.711 38.9258C142.174 38.3047 142.405 37.3848 142.405 36.166ZM150.052 41.1758C148.763 41.1758 147.714 40.7539 146.905 39.9102C146.097 39.0605 145.692 37.9268 145.692 36.5088V36.21C145.692 35.2666 145.871 34.4258 146.229 33.6875C146.592 32.9434 147.096 32.3633 147.74 31.9473C148.391 31.5254 149.094 31.3145 149.85 31.3145C151.086 31.3145 152.047 31.7217 152.732 32.5361C153.418 33.3506 153.761 34.5166 153.761 36.0342V36.7109H147.318C147.342 37.6484 147.614 38.4072 148.136 38.9873C148.663 39.5615 149.331 39.8486 150.14 39.8486C150.714 39.8486 151.2 39.7314 151.599 39.4971C151.997 39.2627 152.346 38.9521 152.645 38.5654L153.638 39.3389C152.841 40.5635 151.646 41.1758 150.052 41.1758ZM149.85 32.6504C149.193 32.6504 148.643 32.8906 148.197 33.3711C147.752 33.8457 147.477 34.5137 147.371 35.375H152.135V35.252C152.088 34.4258 151.865 33.7871 151.467 33.3359C151.068 32.8789 150.529 32.6504 149.85 32.6504ZM169.783 36.9395C169.625 38.293 169.124 39.3389 168.28 40.0771C167.442 40.8096 166.326 41.1758 164.932 41.1758C163.42 41.1758 162.207 40.6338 161.293 39.5498C160.385 38.4658 159.931 37.0156 159.931 35.1992V33.9688C159.931 32.7793 160.142 31.7334 160.563 30.8311C160.991 29.9287 161.595 29.2373 162.374 28.7568C163.153 28.2705 164.056 28.0273 165.081 28.0273C166.44 28.0273 167.53 28.4082 168.351 29.1699C169.171 29.9258 169.648 30.9746 169.783 32.3164H168.087C167.94 31.2969 167.621 30.5586 167.129 30.1016C166.643 29.6445 165.96 29.416 165.081 29.416C164.003 29.416 163.156 29.8145 162.541 30.6113C161.932 31.4082 161.627 32.542 161.627 34.0127V35.252C161.627 36.6406 161.917 37.7451 162.497 38.5654C163.077 39.3857 163.889 39.7959 164.932 39.7959C165.869 39.7959 166.587 39.585 167.085 39.1631C167.589 38.7354 167.923 37.9941 168.087 36.9395H169.783ZM171.409 36.1572C171.409 35.2256 171.591 34.3877 171.954 33.6436C172.323 32.8994 172.833 32.3252 173.483 31.9209C174.14 31.5166 174.887 31.3145 175.725 31.3145C177.02 31.3145 178.065 31.7627 178.862 32.6592C179.665 33.5557 180.066 34.748 180.066 36.2363V36.3506C180.066 37.2764 179.888 38.1084 179.53 38.8467C179.179 39.5791 178.672 40.1504 178.01 40.5605C177.354 40.9707 176.598 41.1758 175.742 41.1758C174.453 41.1758 173.407 40.7275 172.604 39.8311C171.808 38.9346 171.409 37.748 171.409 36.2715V36.1572ZM173.044 36.3506C173.044 37.4053 173.287 38.252 173.773 38.8906C174.266 39.5293 174.922 39.8486 175.742 39.8486C176.568 39.8486 177.225 39.5264 177.711 38.8818C178.197 38.2314 178.44 37.3232 178.44 36.1572C178.44 35.1143 178.191 34.2705 177.693 33.626C177.201 32.9756 176.545 32.6504 175.725 32.6504C174.922 32.6504 174.274 32.9697 173.782 33.6084C173.29 34.2471 173.044 35.1611 173.044 36.3506ZM183.644 31.4902L183.696 32.6855C184.423 31.7715 185.372 31.3145 186.544 31.3145C188.554 31.3145 189.567 32.4482 189.585 34.7158V41H187.959V34.707C187.953 34.0215 187.795 33.5146 187.484 33.1865C187.18 32.8584 186.702 32.6943 186.052 32.6943C185.524 32.6943 185.062 32.835 184.663 33.1162C184.265 33.3975 183.954 33.7666 183.731 34.2236V41H182.105V31.4902H183.644ZM192.582 41V32.7471H191.079V31.4902H192.582V30.6816C192.582 29.6211 192.884 28.7949 193.487 28.2031C194.097 27.6113 194.955 27.3154 196.062 27.3154C196.719 27.3154 197.548 27.4941 198.55 27.8516L198.277 29.2227C197.545 28.9297 196.848 28.7832 196.186 28.7832C195.488 28.7832 194.984 28.9414 194.674 29.2578C194.369 29.5684 194.217 30.0371 194.217 30.6641V31.4902H196.159V32.7471H194.217V41H192.582ZM199.358 41H197.724V31.4902H199.358V41ZM201.617 36.166C201.617 34.6836 201.96 33.5059 202.646 32.6328C203.331 31.7539 204.239 31.3145 205.37 31.3145C206.53 31.3145 207.436 31.7246 208.086 32.5449L208.165 31.4902H209.65V40.7715C209.65 42.002 209.284 42.9717 208.552 43.6807C207.825 44.3896 206.847 44.7441 205.616 44.7441C204.931 44.7441 204.26 44.5977 203.604 44.3047C202.947 44.0117 202.446 43.6104 202.101 43.1006L202.944 42.125C203.642 42.9863 204.494 43.417 205.502 43.417C206.293 43.417 206.908 43.1943 207.348 42.749C207.793 42.3037 208.016 41.6768 208.016 40.8682V40.0508C207.365 40.8008 206.478 41.1758 205.353 41.1758C204.239 41.1758 203.337 40.7275 202.646 39.8311C201.96 38.9346 201.617 37.7129 201.617 36.166ZM203.252 36.3506C203.252 37.4229 203.472 38.2666 203.911 38.8818C204.351 39.4912 204.966 39.7959 205.757 39.7959C206.782 39.7959 207.535 39.3301 208.016 38.3984V34.0566C207.518 33.1484 206.771 32.6943 205.774 32.6943C204.983 32.6943 204.365 33.002 203.92 33.6172C203.475 34.2324 203.252 35.1436 203.252 36.3506Z" fill="white"/>
<path d="M80.5001 37L79.6053 36.4167C78.636 35.75 78.636 34.1667 79.6053 33.5L80.5001 32.9167C81.2457 32.4167 81.4694 31.4167 81.022 30.6667L80.2764 29.25C79.829 28.4167 78.9343 28.1667 78.2632 28.6667L77.3685 29.25C76.3992 29.9167 75.1317 29.0833 75.1317 27.8333V26.6667C75.1317 25.75 74.4606 25 73.6404 25H72.1492C71.329 25 70.658 25.75 70.658 26.6667V27.75C70.658 29 69.3904 29.8333 68.4211 29.1667L67.5264 28.6667C66.7808 28.1667 65.886 28.5 65.5132 29.25L64.7676 30.6667C64.3948 31.5 64.6185 32.5 65.2896 33L66.1843 33.5833C67.1536 34.1667 67.1536 35.8333 66.1843 36.4167L65.2896 37C64.5439 37.5 64.3203 38.5 64.7676 39.25L65.5132 40.6667C65.9606 41.5 66.8553 41.75 67.5264 41.25L68.4211 40.75C69.3904 40.0833 70.658 40.9167 70.658 42.1667V43.3333C70.658 44.25 71.329 45 72.1492 45H73.6404C74.4606 45 75.1317 44.25 75.1317 43.3333V42.25C75.1317 41 76.3992 40.1667 77.3685 40.8333L78.2632 41.4167C79.0089 41.9167 79.9036 41.5833 80.2764 40.8333L81.022 39.4167C81.3948 38.5 81.1711 37.5 80.5001 37ZM72.8948 38.3333C71.2545 38.3333 69.9124 36.8333 69.9124 35C69.9124 33.1667 71.2545 31.6667 72.8948 31.6667C74.5352 31.6667 75.8773 33.1667 75.8773 35C75.8773 36.8333 74.5352 38.3333 72.8948 38.3333Z" fill="white"/>
<rect x="55" y="75" width="170" height="40" rx="5" fill="#2CB2C4"/>
<path d="M132.605 95.2959C131.158 94.8799 130.104 94.3701 129.441 93.7666C128.785 93.1572 128.457 92.4072 128.457 91.5166C128.457 90.5088 128.858 89.6768 129.661 89.0205C130.47 88.3584 131.519 88.0273 132.808 88.0273C133.687 88.0273 134.469 88.1973 135.154 88.5371C135.846 88.877 136.379 89.3457 136.754 89.9434C137.135 90.541 137.325 91.1943 137.325 91.9033H135.629C135.629 91.1299 135.383 90.5234 134.891 90.084C134.398 89.6387 133.704 89.416 132.808 89.416C131.976 89.416 131.325 89.6006 130.856 89.9697C130.394 90.333 130.162 90.8398 130.162 91.4902C130.162 92.0117 130.382 92.4541 130.821 92.8174C131.267 93.1748 132.02 93.5029 133.08 93.8018C134.146 94.1006 134.979 94.4316 135.576 94.7949C136.18 95.1523 136.625 95.5713 136.912 96.0518C137.205 96.5322 137.352 97.0977 137.352 97.748C137.352 98.7852 136.947 99.6172 136.139 100.244C135.33 100.865 134.249 101.176 132.896 101.176C132.017 101.176 131.196 101.009 130.435 100.675C129.673 100.335 129.084 99.8721 128.668 99.2861C128.258 98.7002 128.053 98.0352 128.053 97.291H129.749C129.749 98.0645 130.033 98.6768 130.602 99.1279C131.176 99.5732 131.94 99.7959 132.896 99.7959C133.786 99.7959 134.469 99.6143 134.943 99.251C135.418 98.8877 135.655 98.3926 135.655 97.7656C135.655 97.1387 135.436 96.6553 134.996 96.3154C134.557 95.9697 133.76 95.6299 132.605 95.2959ZM143.082 99.8486C143.662 99.8486 144.169 99.6729 144.603 99.3213C145.036 98.9697 145.276 98.5303 145.323 98.0029H146.861C146.832 98.5479 146.645 99.0664 146.299 99.5586C145.953 100.051 145.49 100.443 144.91 100.736C144.336 101.029 143.727 101.176 143.082 101.176C141.787 101.176 140.756 100.745 139.988 99.8838C139.227 99.0166 138.846 97.833 138.846 96.333V96.0605C138.846 95.1348 139.016 94.3115 139.355 93.5908C139.695 92.8701 140.182 92.3105 140.814 91.9121C141.453 91.5137 142.206 91.3145 143.073 91.3145C144.14 91.3145 145.024 91.6338 145.728 92.2725C146.437 92.9111 146.814 93.7402 146.861 94.7598H145.323C145.276 94.1445 145.042 93.6406 144.62 93.248C144.204 92.8496 143.688 92.6504 143.073 92.6504C142.247 92.6504 141.605 92.9492 141.148 93.5469C140.697 94.1387 140.472 94.9971 140.472 96.1221V96.4297C140.472 97.5254 140.697 98.3691 141.148 98.9609C141.6 99.5527 142.244 99.8486 143.082 99.8486ZM153.286 92.9492C153.04 92.9082 152.773 92.8877 152.486 92.8877C151.42 92.8877 150.696 93.3418 150.315 94.25V101H148.689V91.4902H150.271L150.298 92.5889C150.831 91.7393 151.587 91.3145 152.565 91.3145C152.882 91.3145 153.122 91.3555 153.286 91.4375V92.9492ZM160.309 101C160.215 100.812 160.139 100.479 160.08 99.998C159.324 100.783 158.422 101.176 157.373 101.176C156.436 101.176 155.665 100.912 155.062 100.385C154.464 99.8516 154.165 99.1777 154.165 98.3633C154.165 97.373 154.54 96.6055 155.29 96.0605C156.046 95.5098 157.106 95.2344 158.472 95.2344H160.054V94.4873C160.054 93.9189 159.884 93.4678 159.544 93.1338C159.204 92.7939 158.703 92.624 158.041 92.624C157.461 92.624 156.975 92.7705 156.582 93.0635C156.189 93.3564 155.993 93.7109 155.993 94.127H154.358C154.358 93.6523 154.525 93.1953 154.859 92.7559C155.199 92.3105 155.656 91.959 156.23 91.7012C156.811 91.4434 157.446 91.3145 158.138 91.3145C159.233 91.3145 160.092 91.5898 160.713 92.1406C161.334 92.6855 161.656 93.4385 161.68 94.3994V98.7764C161.68 99.6494 161.791 100.344 162.014 100.859V101H160.309ZM157.61 99.7607C158.12 99.7607 158.604 99.6289 159.061 99.3652C159.518 99.1016 159.849 98.7588 160.054 98.3369V96.3857H158.779C156.787 96.3857 155.791 96.9688 155.791 98.1348C155.791 98.6445 155.961 99.043 156.301 99.3301C156.641 99.6172 157.077 99.7607 157.61 99.7607ZM172.262 96.3506C172.262 97.7979 171.931 98.9639 171.269 99.8486C170.606 100.733 169.71 101.176 168.579 101.176C167.425 101.176 166.517 100.81 165.854 100.077V104.656H164.229V91.4902H165.714L165.793 92.5449C166.455 91.7246 167.375 91.3145 168.553 91.3145C169.695 91.3145 170.598 91.7451 171.26 92.6064C171.928 93.4678 172.262 94.666 172.262 96.2012V96.3506ZM170.636 96.166C170.636 95.0938 170.407 94.2471 169.95 93.626C169.493 93.0049 168.866 92.6943 168.069 92.6943C167.085 92.6943 166.347 93.1309 165.854 94.0039V98.5479C166.341 99.415 167.085 99.8486 168.087 99.8486C168.866 99.8486 169.484 99.541 169.941 98.9258C170.404 98.3047 170.636 97.3848 170.636 96.166ZM178.282 101.176C176.993 101.176 175.944 100.754 175.136 99.9102C174.327 99.0605 173.923 97.9268 173.923 96.5088V96.21C173.923 95.2666 174.102 94.4258 174.459 93.6875C174.822 92.9434 175.326 92.3633 175.971 91.9473C176.621 91.5254 177.324 91.3145 178.08 91.3145C179.316 91.3145 180.277 91.7217 180.963 92.5361C181.648 93.3506 181.991 94.5166 181.991 96.0342V96.7109H175.549C175.572 97.6484 175.845 98.4072 176.366 98.9873C176.894 99.5615 177.562 99.8486 178.37 99.8486C178.944 99.8486 179.431 99.7314 179.829 99.4971C180.228 99.2627 180.576 98.9521 180.875 98.5654L181.868 99.3389C181.071 100.563 179.876 101.176 178.282 101.176ZM178.08 92.6504C177.424 92.6504 176.873 92.8906 176.428 93.3711C175.982 93.8457 175.707 94.5137 175.602 95.375H180.365V95.252C180.318 94.4258 180.096 93.7871 179.697 93.3359C179.299 92.8789 178.76 92.6504 178.08 92.6504Z" fill="white"/>
<path d="M84.5 90C85.8813 90 87 88.8812 87 87.5C87 86.1187 85.8813 85 84.5 85C83.1187 85 82 86.1187 82 87.5C82 88.2025 82.2912 88.835 82.7575 89.2888L80.785 92.74C80.3825 92.5925 79.9537 92.5 79.5 92.5C78.5 92.5 77.5962 92.8975 76.9237 93.5363L71.81 89.7013C71.9313 89.4075 72 89.0875 72 88.75C72 87.3688 70.8812 86.25 69.5 86.25C68.1187 86.25 67 87.3688 67 88.75C67 90.1312 68.1187 91.25 69.5 91.25C70.09 91.25 70.625 91.0375 71.0525 90.6962L76.18 94.5425C75.9138 95.0562 75.75 95.6313 75.75 96.25C75.75 96.6412 75.8275 97.0125 75.9388 97.3675L70.575 100.251C70.2475 100.095 69.8863 100 69.5 100C68.1187 100 67 101.119 67 102.5C67 103.881 68.1187 105 69.5 105C70.8812 105 72 103.881 72 102.5C72 101.993 71.8462 101.521 71.5862 101.126L76.5025 98.4825C77.1863 99.3988 78.2688 100 79.5 100C80.1225 100 80.7013 99.8338 81.2188 99.565L82.44 101.086C82.1638 101.489 82 101.975 82 102.5C82 103.881 83.1187 105 84.5 105C85.8813 105 87 103.881 87 102.5C87 101.119 85.8813 100 84.5 100C84.0987 100 83.725 100.104 83.3888 100.271L82.2213 98.8163C82.855 98.145 83.25 97.2463 83.25 96.25C83.25 95.0825 82.705 94.0525 81.8688 93.365L83.8475 89.9025C84.0562 89.96 84.2725 90 84.5 90Z" fill="white"/>
<rect x="435" y="75" width="170" height="40" rx="5" fill="#2CB2C4"/>
<path d="M478.803 88.2031L482.986 98.6445L487.17 88.2031H489.358V101H487.671V96.0166L487.829 90.6377L483.628 101H482.336L478.144 90.6641L478.311 96.0166V101H476.623V88.2031H478.803ZM491.652 96.1572C491.652 95.2256 491.834 94.3877 492.197 93.6436C492.566 92.8994 493.076 92.3252 493.727 91.9209C494.383 91.5166 495.13 91.3145 495.968 91.3145C497.263 91.3145 498.309 91.7627 499.105 92.6592C499.908 93.5557 500.31 94.748 500.31 96.2363V96.3506C500.31 97.2764 500.131 98.1084 499.773 98.8467C499.422 99.5791 498.915 100.15 498.253 100.561C497.597 100.971 496.841 101.176 495.985 101.176C494.696 101.176 493.65 100.728 492.848 99.8311C492.051 98.9346 491.652 97.748 491.652 96.2715V96.1572ZM493.287 96.3506C493.287 97.4053 493.53 98.252 494.017 98.8906C494.509 99.5293 495.165 99.8486 495.985 99.8486C496.812 99.8486 497.468 99.5264 497.954 98.8818C498.44 98.2314 498.684 97.3232 498.684 96.1572C498.684 95.1143 498.435 94.2705 497.937 93.626C497.444 92.9756 496.788 92.6504 495.968 92.6504C495.165 92.6504 494.518 92.9697 494.025 93.6084C493.533 94.2471 493.287 95.1611 493.287 96.3506ZM501.953 96.166C501.953 94.707 502.299 93.5352 502.99 92.6504C503.682 91.7598 504.587 91.3145 505.706 91.3145C506.819 91.3145 507.701 91.6953 508.352 92.457V87.5H509.978V101H508.483L508.404 99.9805C507.754 100.777 506.849 101.176 505.688 101.176C504.587 101.176 503.688 100.725 502.99 99.8223C502.299 98.9199 501.953 97.7422 501.953 96.2891V96.166ZM503.579 96.3506C503.579 97.4287 503.802 98.2725 504.247 98.8818C504.692 99.4912 505.308 99.7959 506.093 99.7959C507.124 99.7959 507.877 99.333 508.352 98.4072V94.0391C507.865 93.1426 507.118 92.6943 506.11 92.6943C505.313 92.6943 504.692 93.002 504.247 93.6172C503.802 94.2324 503.579 95.1436 503.579 96.3506ZM516.455 101.176C515.166 101.176 514.117 100.754 513.309 99.9102C512.5 99.0605 512.096 97.9268 512.096 96.5088V96.21C512.096 95.2666 512.274 94.4258 512.632 93.6875C512.995 92.9434 513.499 92.3633 514.144 91.9473C514.794 91.5254 515.497 91.3145 516.253 91.3145C517.489 91.3145 518.45 91.7217 519.136 92.5361C519.821 93.3506 520.164 94.5166 520.164 96.0342V96.7109H513.722C513.745 97.6484 514.018 98.4072 514.539 98.9873C515.066 99.5615 515.734 99.8486 516.543 99.8486C517.117 99.8486 517.604 99.7314 518.002 99.4971C518.4 99.2627 518.749 98.9521 519.048 98.5654L520.041 99.3389C519.244 100.563 518.049 101.176 516.455 101.176ZM516.253 92.6504C515.597 92.6504 515.046 92.8906 514.601 93.3711C514.155 93.8457 513.88 94.5137 513.774 95.375H518.538V95.252C518.491 94.4258 518.269 93.7871 517.87 93.3359C517.472 92.8789 516.933 92.6504 516.253 92.6504ZM523.82 101H522.194V87.5H523.82V101ZM540.563 96.9395C540.405 98.293 539.904 99.3389 539.061 100.077C538.223 100.81 537.106 101.176 535.712 101.176C534.2 101.176 532.987 100.634 532.073 99.5498C531.165 98.4658 530.711 97.0156 530.711 95.1992V93.9688C530.711 92.7793 530.922 91.7334 531.344 90.8311C531.771 89.9287 532.375 89.2373 533.154 88.7568C533.934 88.2705 534.836 88.0273 535.861 88.0273C537.221 88.0273 538.311 88.4082 539.131 89.1699C539.951 89.9258 540.429 90.9746 540.563 92.3164H538.867C538.721 91.2969 538.401 90.5586 537.909 90.1016C537.423 89.6445 536.74 89.416 535.861 89.416C534.783 89.416 533.937 89.8145 533.321 90.6113C532.712 91.4082 532.407 92.542 532.407 94.0127V95.252C532.407 96.6406 532.697 97.7451 533.277 98.5654C533.857 99.3857 534.669 99.7959 535.712 99.7959C536.649 99.7959 537.367 99.585 537.865 99.1631C538.369 98.7354 538.703 97.9941 538.867 96.9395H540.563ZM544.246 92.6416C544.967 91.7568 545.904 91.3145 547.059 91.3145C549.068 91.3145 550.082 92.4482 550.1 94.7158V101H548.474V94.707C548.468 94.0215 548.31 93.5146 547.999 93.1865C547.694 92.8584 547.217 92.6943 546.566 92.6943C546.039 92.6943 545.576 92.835 545.178 93.1162C544.779 93.3975 544.469 93.7666 544.246 94.2236V101H542.62V87.5H544.246V92.6416ZM556.48 101.176C555.191 101.176 554.143 100.754 553.334 99.9102C552.525 99.0605 552.121 97.9268 552.121 96.5088V96.21C552.121 95.2666 552.3 94.4258 552.657 93.6875C553.021 92.9434 553.524 92.3633 554.169 91.9473C554.819 91.5254 555.522 91.3145 556.278 91.3145C557.515 91.3145 558.476 91.7217 559.161 92.5361C559.847 93.3506 560.189 94.5166 560.189 96.0342V96.7109H553.747C553.771 97.6484 554.043 98.4072 554.564 98.9873C555.092 99.5615 555.76 99.8486 556.568 99.8486C557.143 99.8486 557.629 99.7314 558.027 99.4971C558.426 99.2627 558.774 98.9521 559.073 98.5654L560.066 99.3389C559.27 100.563 558.074 101.176 556.48 101.176ZM556.278 92.6504C555.622 92.6504 555.071 92.8906 554.626 93.3711C554.181 93.8457 553.905 94.5137 553.8 95.375H558.563V95.252C558.517 94.4258 558.294 93.7871 557.896 93.3359C557.497 92.8789 556.958 92.6504 556.278 92.6504ZM565.894 99.8486C566.474 99.8486 566.98 99.6729 567.414 99.3213C567.848 98.9697 568.088 98.5303 568.135 98.0029H569.673C569.644 98.5479 569.456 99.0664 569.11 99.5586C568.765 100.051 568.302 100.443 567.722 100.736C567.147 101.029 566.538 101.176 565.894 101.176C564.599 101.176 563.567 100.745 562.8 99.8838C562.038 99.0166 561.657 97.833 561.657 96.333V96.0605C561.657 95.1348 561.827 94.3115 562.167 93.5908C562.507 92.8701 562.993 92.3105 563.626 91.9121C564.265 91.5137 565.018 91.3145 565.885 91.3145C566.951 91.3145 567.836 91.6338 568.539 92.2725C569.248 92.9111 569.626 93.7402 569.673 94.7598H568.135C568.088 94.1445 567.854 93.6406 567.432 93.248C567.016 92.8496 566.5 92.6504 565.885 92.6504C565.059 92.6504 564.417 92.9492 563.96 93.5469C563.509 94.1387 563.283 94.9971 563.283 96.1221V96.4297C563.283 97.5254 563.509 98.3691 563.96 98.9609C564.411 99.5527 565.056 99.8486 565.894 99.8486ZM574.155 96.5967L573.136 97.6602V101H571.51V87.5H573.136V95.665L574.006 94.6191L576.968 91.4902H578.945L575.245 95.4629L579.376 101H577.469L574.155 96.5967ZM584.395 101.176C583.105 101.176 582.057 100.754 581.248 99.9102C580.439 99.0605 580.035 97.9268 580.035 96.5088V96.21C580.035 95.2666 580.214 94.4258 580.571 93.6875C580.935 92.9434 581.438 92.3633 582.083 91.9473C582.733 91.5254 583.437 91.3145 584.192 91.3145C585.429 91.3145 586.39 91.7217 587.075 92.5361C587.761 93.3506 588.104 94.5166 588.104 96.0342V96.7109H581.661C581.685 97.6484 581.957 98.4072 582.479 98.9873C583.006 99.5615 583.674 99.8486 584.482 99.8486C585.057 99.8486 585.543 99.7314 585.941 99.4971C586.34 99.2627 586.688 98.9521 586.987 98.5654L587.98 99.3389C587.184 100.563 585.988 101.176 584.395 101.176ZM584.192 92.6504C583.536 92.6504 582.985 92.8906 582.54 93.3711C582.095 93.8457 581.819 94.5137 581.714 95.375H586.478V95.252C586.431 94.4258 586.208 93.7871 585.81 93.3359C585.411 92.8789 584.872 92.6504 584.192 92.6504ZM594.59 92.9492C594.344 92.9082 594.077 92.8877 593.79 92.8877C592.724 92.8877 592 93.3418 591.619 94.25V101H589.993V91.4902H591.575L591.602 92.5889C592.135 91.7393 592.891 91.3145 593.869 91.3145C594.186 91.3145 594.426 91.3555 594.59 91.4375V92.9492Z" fill="white"/>
<path d="M451 94L454 97L465 86" stroke="white" stroke-width="2" stroke-linecap="round" stroke-linejoin="round"/>
<path d="M463 95V102C463 102.53 462.789 103.039 462.414 103.414C462.039 103.789 461.53 104 461 104H447C446.47 104 445.961 103.789 445.586 103.414C445.211 103.039 445 102.53 445 102V88C445 87.4696 445.211 86.9609 445.586 86.5858C445.961 86.2107 446.47 86 447 86H458" stroke="white" stroke-width="2" stroke-linecap="round" stroke-linejoin="round"/>
<rect x="245" y="75" width="170" height="40" rx="5" fill="#2CB2C4"/>
<path d="M310.898 101H309.211V88.2031H310.898V101ZM315.275 91.4902L315.328 92.6855C316.055 91.7715 317.004 91.3145 318.176 91.3145C320.186 91.3145 321.199 92.4482 321.217 94.7158V101H319.591V94.707C319.585 94.0215 319.427 93.5146 319.116 93.1865C318.812 92.8584 318.334 92.6943 317.684 92.6943C317.156 92.6943 316.693 92.835 316.295 93.1162C315.896 93.3975 315.586 93.7666 315.363 94.2236V101H313.737V91.4902H315.275ZM324.469 101V92.7471H322.966V91.4902H324.469V90.5146C324.469 89.4951 324.741 88.707 325.286 88.1504C325.831 87.5938 326.602 87.3154 327.598 87.3154C327.973 87.3154 328.345 87.3652 328.714 87.4648L328.626 88.7832C328.351 88.7305 328.058 88.7041 327.747 88.7041C327.22 88.7041 326.812 88.8594 326.525 89.1699C326.238 89.4746 326.095 89.9141 326.095 90.4883V91.4902H328.125V92.7471H326.095V101H324.469ZM333.662 101.176C332.373 101.176 331.324 100.754 330.516 99.9102C329.707 99.0605 329.303 97.9268 329.303 96.5088V96.21C329.303 95.2666 329.481 94.4258 329.839 93.6875C330.202 92.9434 330.706 92.3633 331.351 91.9473C332.001 91.5254 332.704 91.3145 333.46 91.3145C334.696 91.3145 335.657 91.7217 336.343 92.5361C337.028 93.3506 337.371 94.5166 337.371 96.0342V96.7109H330.929C330.952 97.6484 331.225 98.4072 331.746 98.9873C332.273 99.5615 332.941 99.8486 333.75 99.8486C334.324 99.8486 334.811 99.7314 335.209 99.4971C335.607 99.2627 335.956 98.9521 336.255 98.5654L337.248 99.3389C336.451 100.563 335.256 101.176 333.662 101.176ZM333.46 92.6504C332.804 92.6504 332.253 92.8906 331.808 93.3711C331.362 93.8457 331.087 94.5137 330.981 95.375H335.745V95.252C335.698 94.4258 335.476 93.7871 335.077 93.3359C334.679 92.8789 334.14 92.6504 333.46 92.6504ZM343.857 92.9492C343.611 92.9082 343.345 92.8877 343.058 92.8877C341.991 92.8877 341.268 93.3418 340.887 94.25V101H339.261V91.4902H340.843L340.869 92.5889C341.402 91.7393 342.158 91.3145 343.137 91.3145C343.453 91.3145 343.693 91.3555 343.857 91.4375V92.9492ZM349.131 101.176C347.842 101.176 346.793 100.754 345.984 99.9102C345.176 99.0605 344.771 97.9268 344.771 96.5088V96.21C344.771 95.2666 344.95 94.4258 345.308 93.6875C345.671 92.9434 346.175 92.3633 346.819 91.9473C347.47 91.5254 348.173 91.3145 348.929 91.3145C350.165 91.3145 351.126 91.7217 351.812 92.5361C352.497 93.3506 352.84 94.5166 352.84 96.0342V96.7109H346.397C346.421 97.6484 346.693 98.4072 347.215 98.9873C347.742 99.5615 348.41 99.8486 349.219 99.8486C349.793 99.8486 350.279 99.7314 350.678 99.4971C351.076 99.2627 351.425 98.9521 351.724 98.5654L352.717 99.3389C351.92 100.563 350.725 101.176 349.131 101.176ZM348.929 92.6504C348.272 92.6504 347.722 92.8906 347.276 93.3711C346.831 93.8457 346.556 94.5137 346.45 95.375H351.214V95.252C351.167 94.4258 350.944 93.7871 350.546 93.3359C350.147 92.8789 349.608 92.6504 348.929 92.6504ZM356.268 91.4902L356.32 92.6855C357.047 91.7715 357.996 91.3145 359.168 91.3145C361.178 91.3145 362.191 92.4482 362.209 94.7158V101H360.583V94.707C360.577 94.0215 360.419 93.5146 360.108 93.1865C359.804 92.8584 359.326 92.6943 358.676 92.6943C358.148 92.6943 357.686 92.835 357.287 93.1162C356.889 93.3975 356.578 93.7666 356.355 94.2236V101H354.729V91.4902H356.268ZM368.476 99.8486C369.056 99.8486 369.562 99.6729 369.996 99.3213C370.43 98.9697 370.67 98.5303 370.717 98.0029H372.255C372.226 98.5479 372.038 99.0664 371.692 99.5586C371.347 100.051 370.884 100.443 370.304 100.736C369.729 101.029 369.12 101.176 368.476 101.176C367.181 101.176 366.149 100.745 365.382 99.8838C364.62 99.0166 364.239 97.833 364.239 96.333V96.0605C364.239 95.1348 364.409 94.3115 364.749 93.5908C365.089 92.8701 365.575 92.3105 366.208 91.9121C366.847 91.5137 367.6 91.3145 368.467 91.3145C369.533 91.3145 370.418 91.6338 371.121 92.2725C371.83 92.9111 372.208 93.7402 372.255 94.7598H370.717C370.67 94.1445 370.436 93.6406 370.014 93.248C369.598 92.8496 369.082 92.6504 368.467 92.6504C367.641 92.6504 366.999 92.9492 366.542 93.5469C366.091 94.1387 365.865 94.9971 365.865 96.1221V96.4297C365.865 97.5254 366.091 98.3691 366.542 98.9609C366.993 99.5527 367.638 99.8486 368.476 99.8486ZM378.029 101.176C376.74 101.176 375.691 100.754 374.883 99.9102C374.074 99.0605 373.67 97.9268 373.67 96.5088V96.21C373.67 95.2666 373.849 94.4258 374.206 93.6875C374.569 92.9434 375.073 92.3633 375.718 91.9473C376.368 91.5254 377.071 91.3145 377.827 91.3145C379.063 91.3145 380.024 91.7217 380.71 92.5361C381.396 93.3506 381.738 94.5166 381.738 96.0342V96.7109H375.296C375.319 97.6484 375.592 98.4072 376.113 98.9873C376.641 99.5615 377.309 99.8486 378.117 99.8486C378.691 99.8486 379.178 99.7314 379.576 99.4971C379.975 99.2627 380.323 98.9521 380.622 98.5654L381.615 99.3389C380.818 100.563 379.623 101.176 378.029 101.176ZM377.827 92.6504C377.171 92.6504 376.62 92.8906 376.175 93.3711C375.729 93.8457 375.454 94.5137 375.349 95.375H380.112V95.252C380.065 94.4258 379.843 93.7871 379.444 93.3359C379.046 92.8789 378.507 92.6504 377.827 92.6504Z" fill="white"/>
<path fill-rule="evenodd" clip-rule="evenodd" d="M264.676 86.9438C264.366 87.2522 264.211 87.625 264.21 88.0622C264.211 88.4992 264.366 88.872 264.676 89.1804C264.984 89.4889 265.357 89.6429 265.794 89.6426C266.231 89.643 266.604 89.489 266.913 89.1804C266.953 89.1399 266.99 89.0989 267.024 89.0572L268.173 89.5839C268.156 89.6748 268.147 89.7693 268.145 89.8674V89.8706C268.146 90.3075 268.302 90.6802 268.611 90.9889C268.918 91.2959 269.29 91.4489 269.726 91.4478C270.163 91.4489 270.536 91.2959 270.845 90.9889C270.884 90.9487 270.921 90.9076 270.956 90.8656L272.105 91.3955C272.091 91.486 272.083 91.5795 272.083 91.6758C272.083 92.114 272.237 92.4878 272.546 92.7972C272.801 93.0514 273.1 93.2002 273.442 93.244L273.615 94.772C273.411 94.8483 273.225 94.9706 273.057 95.1386C272.747 95.4469 272.592 95.8197 272.592 96.2569C272.593 96.488 272.637 96.7016 272.724 96.8977L271.036 98.21L270.783 95.9334C270.993 95.8563 271.183 95.732 271.353 95.5606C271.664 95.2522 271.82 94.8794 271.822 94.4424C271.82 94.0042 271.664 93.6304 271.353 93.321C271.045 93.0114 270.672 92.8564 270.235 92.8558C269.797 92.8564 269.425 93.0114 269.116 93.321C269.075 93.3625 269.037 93.4057 269.002 93.4503L267.862 92.9266C267.879 92.8326 267.887 92.735 267.887 92.6339C267.887 92.1968 267.733 91.824 267.424 91.5157C267.115 91.2061 266.741 91.0511 266.303 91.0505C265.865 91.0511 265.491 91.2061 265.181 91.5157C264.873 91.824 264.719 92.1968 264.719 92.6339C264.719 93.0721 264.873 93.4459 265.181 93.7553C265.491 94.0638 265.865 94.2178 266.303 94.2175C266.741 94.2179 267.115 94.0639 267.424 93.7553C267.464 93.715 267.501 93.6728 267.535 93.629L268.679 94.1558C268.662 94.2474 268.654 94.343 268.654 94.4423C268.654 94.682 268.701 94.9027 268.793 95.1046L267.763 95.9364C267.49 95.7268 267.174 95.622 266.814 95.6222C266.376 95.6228 266.002 95.7778 265.693 96.0874C265.65 96.1291 265.611 96.1723 265.576 96.2168L264.432 95.6899C264.449 95.5954 264.457 95.4979 264.457 95.3973C264.458 94.9602 264.303 94.5875 263.995 94.279C263.685 93.9706 263.312 93.8165 262.873 93.8169C262.436 93.8165 262.063 93.9705 261.755 94.279C261.713 94.3199 261.674 94.3621 261.637 94.4053L260.501 93.8816C260.517 93.787 260.525 93.6884 260.525 93.5859C260.525 93.343 260.478 93.1202 260.383 92.9174L261.413 92.0887C261.688 92.3016 262.007 92.4085 262.371 92.4091C262.809 92.4085 263.183 92.2535 263.493 91.9439C263.801 91.6355 263.955 91.2628 263.955 90.8256C263.955 90.3885 263.801 90.0157 263.493 89.7073C263.183 89.3988 262.809 89.2448 262.371 89.2452C261.933 89.2448 261.559 89.3988 261.249 89.7073C260.941 90.0157 260.787 90.3885 260.787 90.8256C260.787 91.0655 260.834 91.2863 260.929 91.488L259.9 92.3167C259.624 92.1047 259.305 91.9989 258.941 91.9993C258.504 91.9989 258.131 92.153 257.823 92.4615C257.513 92.7719 257.358 93.1467 257.357 93.5859C257.358 94.023 257.513 94.3958 257.823 94.7042C258.131 95.0127 258.504 95.1667 258.941 95.1663C259.38 95.1668 259.753 95.0128 260.063 94.7042C260.101 94.6656 260.137 94.6267 260.171 94.5872L261.314 95.1109C261.297 95.2026 261.289 95.2982 261.289 95.3973C261.29 95.8365 261.445 96.2113 261.755 96.5218C262.063 96.8303 262.436 96.9843 262.873 96.9839C263.311 96.9844 263.685 96.8304 263.995 96.5218C264.035 96.4804 264.072 96.4373 264.106 96.3924L265.255 96.9193C265.237 97.0128 265.228 97.1094 265.227 97.2088C265.228 97.646 265.383 98.0187 265.693 98.3271C266.002 98.6357 266.376 98.7897 266.814 98.7892C267.252 98.7898 267.624 98.6357 267.933 98.3271C268.243 98.0187 268.398 97.646 268.398 97.2088C268.398 96.9648 268.351 96.7408 268.257 96.5372L269.283 95.7054C269.499 95.8741 269.744 95.9758 270.016 96.0104C270.337 98.8971 270.659 101.784 270.98 104.67L269.911 105L268.275 100.779H266.611C266.253 100.78 265.921 100.654 265.616 100.4C265.311 100.147 265.122 99.8412 265.049 99.4824L265.009 99.2883H263.012C262.657 99.2882 262.328 99.1629 262.026 98.9125C262.023 98.9114 262.02 98.9103 262.017 98.9093C261.712 98.6561 261.523 98.35 261.45 97.9914L261.41 97.8003H259.416C259.056 97.8002 258.722 97.6728 258.415 97.4183C258.109 97.164 257.92 96.857 257.848 96.4972L257.811 96.3092H256.27C256.213 96.3085 256.157 96.3043 256.103 96.297C255.827 96.2573 255.586 96.134 255.379 95.9273C255.126 95.6729 254.999 95.3659 255 95.0061V93.4689C254.999 93.1104 255.126 92.8044 255.379 92.5509C255.633 92.2966 255.939 92.1693 256.297 92.1688H256.353V90.6316C256.352 90.2722 256.479 89.9651 256.732 89.7104C256.987 89.4562 257.296 89.3289 257.656 89.3284H257.826L258.217 87.7911C258.306 87.4306 258.508 87.1226 258.824 86.8669C259.143 86.6148 259.482 86.4895 259.841 86.4911H261.409L261.449 86.3001C261.522 85.9413 261.711 85.6352 262.016 85.382C262.321 85.1274 262.653 85.0002 263.012 85H268.564C268.924 85.0001 269.256 85.1274 269.563 85.382C269.868 85.6352 270.057 85.9413 270.13 86.3001L270.167 86.4911H272.16C272.519 86.4901 272.852 86.6144 273.159 86.8639C273.161 86.8659 273.163 86.868 273.165 86.87C273.469 87.1243 273.657 87.4313 273.729 87.7911H274.524C274.882 87.7918 275.22 87.9181 275.538 88.17C275.854 88.4257 276.058 88.7337 276.148 89.0942L276.539 90.6315H276.708C277.069 90.6309 277.377 90.7572 277.633 91.0104C277.886 91.265 278.012 91.572 278.012 91.9315V93.4688H278.067C278.426 93.4682 278.732 93.5945 278.986 93.8477C279.24 94.1023 279.367 94.4093 279.368 94.7688V96.3091C279.367 96.669 279.24 96.9759 278.986 97.2302C278.779 97.4349 278.537 97.5561 278.261 97.5938C278.207 97.6022 278.152 97.6074 278.095 97.6092H277.454L277.285 98.5365C277.22 98.8973 277.039 99.2054 276.739 99.4607C276.439 99.7131 276.11 99.8385 275.75 99.8366H275.152L275.149 99.8488C275.082 100.69 274.63 101.239 273.793 101.494C272.958 101.748 272.63 102.612 272.81 104.088L271.726 104.43L271.137 99.1003L273.192 97.5013C273.473 97.7277 273.8 97.8407 274.175 97.8402C274.614 97.8407 274.987 97.6867 275.297 97.3781C275.606 97.0687 275.76 96.6949 275.759 96.2568C275.76 95.8196 275.606 95.4467 275.297 95.1384C275.037 94.879 274.732 94.7279 274.382 94.6856L274.209 93.1699C274.421 93.0933 274.614 92.9691 274.785 92.7971C275.095 92.4876 275.25 92.1139 275.251 91.6757C275.25 91.2376 275.095 90.8637 274.785 90.5542C274.477 90.2458 274.104 90.0918 273.667 90.0922C273.229 90.0917 272.855 90.2458 272.545 90.5542C272.502 90.5986 272.461 90.6437 272.422 90.6899L271.282 90.1631C271.299 90.0684 271.307 89.9709 271.307 89.8705V89.8673C271.306 89.4617 271.173 89.1115 270.906 88.8168C270.886 88.7949 270.866 88.7734 270.845 88.7521C270.536 88.4451 270.163 88.292 269.726 88.2931C269.29 88.292 268.918 88.4451 268.611 88.7521C268.589 88.7733 268.569 88.7949 268.549 88.8168C268.53 88.8371 268.512 88.8576 268.493 88.8784L267.35 88.3516C267.367 88.2586 267.375 88.1621 267.375 88.0621C267.375 87.6249 267.221 87.2521 266.913 86.9437C266.604 86.6342 266.231 86.4791 265.794 86.4786C265.357 86.4792 264.984 86.6343 264.676 86.9438Z" fill="white"/>
<path fill-rule="evenodd" clip-rule="evenodd" d="M266.324 96.5588C266.467 96.451 266.63 96.3975 266.814 96.3985C266.924 96.3976 267.027 96.4161 267.122 96.454C267.218 96.4944 267.306 96.5549 267.387 96.6358C267.509 96.7571 267.584 96.8968 267.612 97.0547C267.621 97.1039 267.625 97.1553 267.625 97.2087C267.625 97.4296 267.546 97.6197 267.387 97.7787C267.227 97.9386 267.036 98.0188 266.814 98.019C266.592 98.0188 266.401 97.9386 266.241 97.7787C266.096 97.634 266.018 97.4634 266.007 97.2674C266.005 97.2479 266.004 97.2284 266.004 97.2088C266.003 96.9869 266.082 96.7959 266.241 96.6359C266.268 96.6081 266.296 96.5824 266.324 96.5588Z" fill="white"/>
<path fill-rule="evenodd" clip-rule="evenodd" d="M263.683 95.348C263.683 95.3638 263.683 95.3801 263.683 95.3973C263.683 95.6191 263.603 95.8103 263.443 95.9703C263.415 95.999 263.385 96.0257 263.354 96.0505C263.215 96.156 263.055 96.2084 262.873 96.2075C262.651 96.2083 262.46 96.1292 262.3 95.9704C262.155 95.8245 262.077 95.6532 262.066 95.4559C262.062 95.4367 262.06 95.4172 262.06 95.3973C262.06 95.1765 262.14 94.9865 262.3 94.8274C262.327 94.7995 262.356 94.7738 262.386 94.7504C262.527 94.6416 262.689 94.5872 262.873 94.5872C263.094 94.5874 263.284 94.6676 263.443 94.8274C263.59 94.9741 263.671 95.1477 263.683 95.348Z" fill="white"/>
<path fill-rule="evenodd" clip-rule="evenodd" d="M259.752 93.5366C259.752 93.5528 259.752 93.5691 259.752 93.5859C259.751 93.8067 259.671 93.9967 259.511 94.1558C259.481 94.1865 259.45 94.2143 259.419 94.239C259.279 94.3434 259.12 94.3957 258.941 94.3961C258.719 94.3958 258.528 94.3157 258.368 94.1558C258.208 93.9967 258.128 93.8067 258.128 93.5859C258.128 93.364 258.208 93.173 258.368 93.0129C258.528 92.8529 258.719 92.7729 258.941 92.7726C259.054 92.7725 259.159 92.7931 259.256 92.8341C259.348 92.875 259.434 92.9345 259.511 93.0129C259.634 93.1356 259.71 93.2764 259.739 93.4349C259.745 93.4682 259.749 93.5021 259.752 93.5366Z" fill="white"/>
<path fill-rule="evenodd" clip-rule="evenodd" d="M263.184 90.8256C263.184 91.0474 263.104 91.2385 262.944 91.3985C262.784 91.5585 262.593 91.6386 262.371 91.6389C262.257 91.6381 262.151 91.6155 262.053 91.571C261.962 91.5327 261.878 91.4752 261.801 91.3985C261.676 91.2736 261.6 91.1299 261.573 90.9672C261.565 90.9215 261.561 90.8742 261.56 90.8255C261.561 90.6046 261.641 90.4147 261.801 90.2556C261.96 90.0956 262.15 90.0155 262.371 90.0152C262.593 90.0155 262.784 90.0957 262.944 90.2556C263.104 90.4147 263.184 90.6047 263.184 90.8256Z" fill="white"/>
<path fill-rule="evenodd" clip-rule="evenodd" d="M266.913 92.0979C266.922 92.1081 266.931 92.1184 266.941 92.1287C266.948 92.1383 266.955 92.1486 266.962 92.1595C267.055 92.2839 267.106 92.4245 267.116 92.5815C267.116 92.599 267.116 92.6165 267.116 92.6339C267.116 92.8548 267.036 93.0447 266.876 93.2038C266.847 93.2331 266.817 93.2599 266.786 93.284C266.646 93.3905 266.485 93.444 266.303 93.4441C266.082 93.4438 265.892 93.3638 265.733 93.2038C265.573 93.0447 265.492 92.8548 265.492 92.6339C265.492 92.412 265.573 92.221 265.733 92.0609C265.892 91.901 266.082 91.8209 266.303 91.8206C266.525 91.8209 266.716 91.901 266.876 92.0609C266.883 92.0682 266.89 92.0753 266.897 92.0825C266.903 92.088 266.908 92.0932 266.913 92.0979Z" fill="white"/>
<path fill-rule="evenodd" clip-rule="evenodd" d="M270.235 93.632C270.456 93.6313 270.647 93.7104 270.808 93.8693C270.968 94.0293 271.048 94.2204 271.048 94.4423C271.048 94.6641 270.968 94.8552 270.808 95.0152C270.77 95.0518 270.731 95.0836 270.691 95.1108C270.556 95.2052 270.404 95.2525 270.235 95.2525C270.123 95.2526 270.019 95.232 269.923 95.1909H269.92C269.828 95.1516 269.743 95.0931 269.664 95.0153C269.539 94.89 269.463 94.7453 269.436 94.5809C269.432 94.5553 269.429 94.5285 269.427 94.5008C269.425 94.4816 269.424 94.4621 269.424 94.4423C269.424 94.2204 269.504 94.0294 269.664 93.8694C269.692 93.8426 269.72 93.8179 269.751 93.7954C269.89 93.6864 270.051 93.632 270.235 93.632Z" fill="white"/>
<path fill-rule="evenodd" clip-rule="evenodd" d="M265.221 87.4891C265.381 87.3303 265.572 87.2511 265.794 87.2519C266.015 87.2511 266.205 87.3303 266.364 87.4891C266.511 87.6359 266.591 87.8084 266.605 88.0067C266.605 88.0254 266.605 88.0438 266.605 88.0622C266.604 88.283 266.524 88.473 266.364 88.6321C266.336 88.6608 266.306 88.6875 266.275 88.7122C266.136 88.8188 265.976 88.8722 265.794 88.8724C265.572 88.872 265.381 88.7919 265.221 88.6321C265.062 88.473 264.983 88.283 264.984 88.0622C264.983 87.8402 265.062 87.6492 265.221 87.4891Z" fill="white"/>
<path fill-rule="evenodd" clip-rule="evenodd" d="M269.239 89.2236C269.38 89.1169 269.542 89.0636 269.726 89.0634C269.947 89.0631 270.136 89.1401 270.293 89.2945L270.296 89.3037C270.308 89.3127 270.319 89.3219 270.33 89.3314L270.333 89.3345C270.457 89.4721 270.524 89.6333 270.533 89.8182C270.534 89.8347 270.534 89.8511 270.533 89.8675V89.8706C270.533 90.0933 270.454 90.2833 270.296 90.4406C270.267 90.4693 270.236 90.495 270.204 90.5175C270.066 90.622 269.907 90.6743 269.726 90.6746C269.502 90.6752 269.311 90.5972 269.153 90.4406C269.01 90.2973 268.933 90.1269 268.922 89.9292C268.92 89.91 268.919 89.8905 268.919 89.8707V89.8675C268.919 89.6619 268.987 89.4843 269.122 89.3346L269.125 89.3315C269.134 89.322 269.143 89.3128 269.153 89.3038L269.156 89.2946C269.183 89.2681 269.211 89.2444 269.239 89.2236Z" fill="white"/>
<path fill-rule="evenodd" clip-rule="evenodd" d="M273.667 90.8656C273.888 90.8659 274.078 90.946 274.237 91.1059C274.397 91.265 274.477 91.4549 274.478 91.6758C274.477 91.8977 274.397 92.0887 274.237 92.2488C274.2 92.2865 274.161 92.3194 274.12 92.3474C273.987 92.4418 273.836 92.4891 273.667 92.4891C273.554 92.4892 273.449 92.4686 273.353 92.4275C273.26 92.3867 273.175 92.3272 273.097 92.2488C272.952 92.1052 272.872 91.9368 272.857 91.7437C272.855 91.7209 272.854 91.6983 272.854 91.6758C272.855 91.4549 272.936 91.265 273.097 91.1059C273.122 91.0809 273.147 91.0584 273.174 91.0382C273.316 90.9237 273.48 90.8663 273.667 90.8656Z" fill="white"/>
<path fill-rule="evenodd" clip-rule="evenodd" d="M274.176 95.4466C274.281 95.4458 274.38 95.4633 274.471 95.4989C274.571 95.539 274.663 95.6006 274.746 95.6837C274.906 95.8439 274.986 96.0349 274.986 96.2568C274.986 96.4776 274.905 96.6676 274.746 96.8268C274.587 96.9867 274.396 97.0667 274.176 97.0671C274.056 97.0674 273.945 97.0449 273.843 96.9992C273.756 96.9581 273.676 96.9005 273.602 96.8268C273.475 96.6994 273.399 96.5525 273.374 96.3862C273.368 96.3441 273.365 96.301 273.365 96.2569C273.364 96.035 273.444 95.844 273.602 95.6838C273.636 95.651 273.671 95.6211 273.707 95.5945C273.844 95.4956 274 95.4463 274.176 95.4466Z" fill="white"/>
<path d="M434.707 97.7071C435.098 97.3166 435.098 96.6834 434.707 96.2929L428.343 89.9289C427.953 89.5384 427.319 89.5384 426.929 89.9289C426.538 90.3195 426.538 90.9526 426.929 91.3431L432.586 97L426.929 102.657C426.538 103.047 426.538 103.681 426.929 104.071C427.319 104.462 427.953 104.462 428.343 104.071L434.707 97.7071ZM415 98H434V96H415V98Z" fill="black"/>
<path d="M244.707 97.7071C245.098 97.3166 245.098 96.6834 244.707 96.2929L238.343 89.9289C237.953 89.5384 237.319 89.5384 236.929 89.9289C236.538 90.3195 236.538 90.9526 236.929 91.3431L242.586 97L236.929 102.657C236.538 103.047 236.538 103.681 236.929 104.071C237.319 104.462 237.953 104.462 238.343 104.071L244.707 97.7071ZM225 98H244V96H225V98Z" fill="black"/>
<path d="M140.707 115.293C140.317 114.903 139.683 114.903 139.293 115.293L132.929 121.657C132.538 122.048 132.538 122.681 132.929 123.071C133.319 123.462 133.953 123.462 134.343 123.071L140 117.414L145.657 123.071C146.047 123.462 146.681 123.462 147.071 123.071C147.462 122.681 147.462 122.048 147.071 121.657L140.707 115.293ZM140 195H139L139 196L140 196L140 195ZM245 194L140 194L140 196L245 196L245 194ZM141 195L141 116L139 116L139 195H141Z" fill="black"/>
<path d="M330.707 115.293C330.317 114.902 329.683 114.902 329.293 115.293L322.929 121.657C322.538 122.047 322.538 122.681 322.929 123.071C323.319 123.462 323.953 123.462 324.343 123.071L330 117.414L335.657 123.071C336.047 123.462 336.681 123.462 337.071 123.071C337.462 122.681 337.462 122.047 337.071 121.657L330.707 115.293ZM331 175L331 116L329 116L329 175L331 175Z" fill="black"/>
<path d="M480.707 115.293C480.317 114.902 479.683 114.902 479.293 115.293L472.929 121.657C472.538 122.047 472.538 122.681 472.929 123.071C473.319 123.462 473.953 123.462 474.343 123.071L480 117.414L485.657 123.071C486.047 123.462 486.681 123.462 487.071 123.071C487.462 122.681 487.462 122.047 487.071 121.657L480.707 115.293ZM380 145.5L380.002 144.5L379 144.497L379 145.5L380 145.5ZM480 145.75L479.997 146.75L481 146.752L481 145.75L480 145.75ZM381 175L381 145.5L379 145.5L379 175L381 175ZM379.997 146.5L479.997 146.75L480.003 144.75L380.002 144.5L379.997 146.5ZM481 145.75L481 116L479 116L479 145.75L481 145.75Z" fill="black"/>
<defs>
<radialGradient id="paint0_radial" cx="0" cy="0" r="1" gradientUnits="userSpaceOnUse" gradientTransform="translate(325 195) rotate(90) scale(325 508.209)">
<stop offset="0.611816" stop-opacity="0"/>
<stop offset="1" stop-opacity="0.09"/>
</radialGradient>
</defs>
</svg>
