<svg width="650" height="390" viewBox="0 0 650 390" fill="none" xmlns="http://www.w3.org/2000/svg">
<rect width="650" height="390" fill="#C42C2D"/>
<path fill-rule="evenodd" clip-rule="evenodd" d="M290.939 105L297.697 118.515L324.727 172.576L351.758 118.515L432.849 118.515L419.333 145.545H378.788L365.273 172.576H419.333L405.818 199.606H351.758L338.242 226.636H405.818L392.303 253.667H324.727L290.939 186.091L257.152 253.667L243.638 226.64C231.31 243.052 211.682 253.667 189.576 253.667C152.255 253.667 122 223.412 122 186.091C122 148.77 152.255 118.515 189.576 118.515L189.592 118.515L230.121 118.515L257.152 172.576L284.182 118.515L290.939 105ZM216.606 186.091C216.606 201.019 204.504 213.121 189.576 213.121C174.647 213.121 162.545 201.019 162.545 186.091C162.545 171.163 174.647 159.061 189.576 159.061C204.504 159.061 216.606 171.163 216.606 186.091Z" fill="white"/>
<path d="M469.767 161.086C470.555 163.048 470.949 164.944 470.949 166.774C470.949 172.659 468.847 175.601 464.642 175.601C461.62 175.601 459.255 174.032 457.546 170.893C456.364 168.801 455.772 166.578 455.772 164.225C455.772 162.133 456.298 160.106 457.349 158.144C458.532 156.052 460.174 155.006 462.277 155.006C465.562 155.006 468.059 157.033 469.767 161.086H469.767ZM426.207 255.233C441.055 247.518 453.473 236.273 463.46 221.497C464.905 219.405 465.956 219.47 466.613 221.694C467.402 224.439 466.416 228.297 463.657 233.266C457.218 244.642 443.552 254.71 422.659 263.471C406.233 301.783 392.436 323.032 381.267 327.216C379.69 327.739 378.31 328 377.127 328C374.499 328 372.134 326.496 370.031 323.489C365.958 317.474 363.921 312.178 363.921 307.602C363.921 304.856 364.447 302.044 365.498 299.168C371.017 283.084 385.274 270.662 408.27 261.901C424.433 223.197 438.296 195.084 449.859 177.562C450.911 175.993 451.83 175.208 452.619 175.208C454.064 175.208 455.247 176.581 456.167 179.327C456.824 181.288 457.152 183.184 457.152 185.015C457.152 189.069 456.101 193.384 453.999 197.96C447.691 210.513 438.427 229.604 426.207 255.233L426.207 255.233ZM404.919 270.139C395.064 275.762 387.048 283.411 380.872 293.088C375.748 301.064 373.185 307.863 373.185 313.486C373.185 315.84 373.711 317.016 374.762 317.016C376.996 317.016 381.135 312.571 387.18 303.679C393.618 294.003 399.532 282.823 404.919 270.139V270.139Z" fill="white"/>
<path d="M467.152 219.339C477.27 205.61 484.826 194.364 489.819 185.604C490.608 179.066 492.973 174.031 496.915 170.501C499.806 167.886 502.5 166.578 504.996 166.578C507.362 166.578 508.544 167.69 508.544 169.913C508.544 170.959 506.967 174.293 503.814 179.916C503.551 182.531 503.419 185.277 503.419 188.153C503.419 192.73 503.879 199.529 504.799 208.552C505.456 216.79 505.719 222.87 505.587 226.793C505.062 236.861 502.105 243.726 496.718 247.387C507.756 243.334 516.56 234.246 523.13 220.124C523.655 219.078 524.312 218.62 525.101 218.751C525.889 218.751 526.481 219.209 526.875 220.124C528.189 223.001 527.269 227.316 524.115 233.069C516.494 246.799 504.865 253.991 489.228 254.644C475.43 255.167 465.706 250.263 460.056 239.934C457.954 236.142 456.902 231.892 456.902 227.185C456.902 220.647 458.808 215.809 462.618 212.671C463.538 212.017 464.261 211.69 464.787 211.69C465.838 211.69 466.495 212.737 466.758 214.829C466.889 216.398 467.02 217.902 467.152 219.34L467.152 219.339ZM489.425 198.156C484.826 206.525 477.993 217.117 468.926 229.931C471.948 241.83 476.35 247.78 482.132 247.78C487.782 247.78 490.608 239.738 490.608 223.655C490.608 221.17 490.213 212.671 489.425 198.156Z" fill="white"/>
</svg>
