<svg width="650" height="390" viewBox="0 0 650 390" fill="none" xmlns="http://www.w3.org/2000/svg">
<g clip-path="url(#clip0)">
<rect width="650" height="390" fill="#1E3666"/>
<rect width="650" height="390" fill="url(#paint0_radial)"/>
<path d="M763.888 277.705L716.405 545.524" stroke="#EE7993" stroke-width="2"/>
<rect x="227" y="73" width="192" height="244" rx="15" stroke="#FF4C4C" stroke-width="5"/>
<rect x="239" y="84" width="168" height="102" rx="15" stroke="#FF4C4C" stroke-width="5"/>
<rect x="239" y="204" width="168" height="102" rx="15" stroke="#FF4C4C" stroke-width="5"/>
<path d="M165.324 214C164.949 213.25 164.645 211.914 164.41 209.992C161.387 213.133 157.777 214.703 153.582 214.703C149.832 214.703 146.75 213.648 144.336 211.539C141.945 209.406 140.75 206.711 140.75 203.453C140.75 199.492 142.25 196.422 145.25 194.242C148.273 192.039 152.516 190.938 157.977 190.938H164.305V187.949C164.305 185.676 163.625 183.871 162.266 182.535C160.906 181.176 158.902 180.496 156.254 180.496C153.934 180.496 151.988 181.082 150.418 182.254C148.848 183.426 148.062 184.844 148.062 186.508H141.523C141.523 184.609 142.191 182.781 143.527 181.023C144.887 179.242 146.715 177.836 149.012 176.805C151.332 175.773 153.875 175.258 156.641 175.258C161.023 175.258 164.457 176.359 166.941 178.562C169.426 180.742 170.715 183.754 170.809 187.598V205.105C170.809 208.598 171.254 211.375 172.145 213.438V214H165.324ZM154.531 209.043C156.57 209.043 158.504 208.516 160.332 207.461C162.16 206.406 163.484 205.035 164.305 203.348V195.543H159.207C151.238 195.543 147.254 197.875 147.254 202.539C147.254 204.578 147.934 206.172 149.293 207.32C150.652 208.469 152.398 209.043 154.531 209.043Z" fill="white"/>
<rect x="114" y="147" width="85" height="86" stroke="white" stroke-width="2"/>
<path d="M325.031 258.293H313.008V279H306.223V227.812H323.168C328.934 227.812 333.363 229.125 336.457 231.75C339.574 234.375 341.133 238.195 341.133 243.211C341.133 246.398 340.266 249.176 338.531 251.543C336.82 253.91 334.43 255.68 331.359 256.852L343.383 278.578V279H336.141L325.031 258.293ZM313.008 252.773H323.379C326.73 252.773 329.391 251.906 331.359 250.172C333.352 248.438 334.348 246.117 334.348 243.211C334.348 240.047 333.398 237.621 331.5 235.934C329.625 234.246 326.906 233.391 323.344 233.367H313.008V252.773Z" fill="white"/>
<circle cx="323" cy="255" r="43" stroke="white" stroke-width="2"/>
<path d="M312.48 138.961V159H305.73V107.812H324.609C330.211 107.812 334.594 109.242 337.758 112.102C340.945 114.961 342.539 118.746 342.539 123.457C342.539 128.426 340.98 132.258 337.863 134.953C334.77 137.625 330.328 138.961 324.539 138.961H312.48ZM312.48 133.441H324.609C328.219 133.441 330.984 132.598 332.906 130.91C334.828 129.199 335.789 126.738 335.789 123.527C335.789 120.48 334.828 118.043 332.906 116.215C330.984 114.387 328.348 113.438 324.996 113.367H312.48V133.441Z" fill="white"/>
<circle cx="323" cy="135" r="43" stroke="white" stroke-width="2"/>
<path d="M506.41 205.402C506.41 211.215 505.074 215.891 502.402 219.43C499.73 222.945 496.144 224.703 491.644 224.703C486.84 224.703 483.125 223.004 480.5 219.605L480.183 224H474.207V170H480.711V190.145C483.336 186.887 486.957 185.258 491.574 185.258C496.191 185.258 499.812 187.004 502.437 190.496C505.086 193.988 506.41 198.77 506.41 204.84V205.402ZM499.906 204.664C499.906 200.234 499.051 196.812 497.34 194.398C495.629 191.984 493.168 190.777 489.957 190.777C485.668 190.777 482.586 192.77 480.711 196.754V213.207C482.703 217.191 485.808 219.184 490.027 219.184C493.144 219.184 495.57 217.977 497.305 215.562C499.039 213.148 499.906 209.516 499.906 204.664Z" fill="white"/>
<rect x="446" y="157" width="87" height="86" stroke="white" stroke-width="2"/>
<path d="M155 234L145.474 250.5L164.526 250.5L155 234Z" fill="white"/>
<path d="M155 136V135H154V136H155ZM263 135H155V137H263V135ZM154 136V147H156V136H154Z" fill="white"/>
<path d="M489 136V135L490 135V136L489 136ZM366 135H489V137H366V135ZM490 136V147H488V136L490 136Z" fill="white"/>
<path d="M155 254V255H154V254H155ZM280 255L155 255V253L280 253V255ZM154 254V240H156V254H154Z" fill="white"/>
<path d="M490 254V255H491V254H490ZM371 255H490V253H371V255ZM491 254V242H489V254H491Z" fill="white"/>
<path d="M279 135L262.5 144.526V125.474L279 135Z" fill="white"/>
<path d="M367 254L383.5 244.474L383.5 263.526L367 254Z" fill="white"/>
<path d="M489 156L479.474 139.5L498.526 139.5L489 156Z" fill="white"/>
</g>
<defs>
<radialGradient id="paint0_radial" cx="0" cy="0" r="1" gradientUnits="userSpaceOnUse" gradientTransform="translate(325 195) rotate(90) scale(325 508.209)">
<stop offset="0.611816" stop-opacity="0"/>
<stop offset="1" stop-opacity="0.09"/>
</radialGradient>
<clipPath id="clip0">
<rect width="650" height="390" fill="white"/>
</clipPath>
</defs>
</svg>
