<svg width="650" height="390" viewBox="0 0 650 390" fill="none" xmlns="http://www.w3.org/2000/svg">
<g clip-path="url(#clip0)">
<rect width="650" height="390" fill="url(#paint0_radial)"/>
<mask id="path-2-outside-1" maskUnits="userSpaceOnUse" x="430.172" y="178.172" width="33.9411" height="33.9411" fill="black">
<rect fill="white" x="430.172" y="178.172" width="33.9411" height="33.9411"/>
<path fill-rule="evenodd" clip-rule="evenodd" d="M441.839 186.303L438.303 189.839L443.607 195.142L438.303 200.445L441.839 203.981L447.142 198.678L452.445 203.981L455.981 200.445L450.678 195.142L455.981 189.839L452.445 186.303L447.142 191.607L441.839 186.303Z"/>
</mask>
<path fill-rule="evenodd" clip-rule="evenodd" d="M441.839 186.303L438.303 189.839L443.607 195.142L438.303 200.445L441.839 203.981L447.142 198.678L452.445 203.981L455.981 200.445L450.678 195.142L455.981 189.839L452.445 186.303L447.142 191.607L441.839 186.303Z" fill="#FF0000"/>
<path d="M438.303 189.839L436.889 188.425L435.475 189.839L436.889 191.253L438.303 189.839ZM441.839 186.303L443.253 184.889L441.839 183.475L440.425 184.889L441.839 186.303ZM443.607 195.142L445.021 196.556L446.435 195.142L445.021 193.728L443.607 195.142ZM438.303 200.445L436.889 199.031L435.475 200.445L436.889 201.86L438.303 200.445ZM441.839 203.981L440.425 205.395L441.839 206.809L443.253 205.395L441.839 203.981ZM447.142 198.678L448.556 197.263L447.142 195.849L445.728 197.263L447.142 198.678ZM452.445 203.981L451.031 205.395L452.445 206.809L453.86 205.395L452.445 203.981ZM455.981 200.445L457.395 201.86L458.809 200.445L457.395 199.031L455.981 200.445ZM450.678 195.142L449.263 193.728L447.849 195.142L449.263 196.556L450.678 195.142ZM455.981 189.839L457.395 191.253L458.809 189.839L457.395 188.425L455.981 189.839ZM452.445 186.303L453.86 184.889L452.445 183.475L451.031 184.889L452.445 186.303ZM447.142 191.607L445.728 193.021L447.142 194.435L448.556 193.021L447.142 191.607ZM439.718 191.253L443.253 187.718L440.425 184.889L436.889 188.425L439.718 191.253ZM445.021 193.728L439.718 188.425L436.889 191.253L442.192 196.556L445.021 193.728ZM439.718 201.86L445.021 196.556L442.192 193.728L436.889 199.031L439.718 201.86ZM443.253 202.567L439.718 199.031L436.889 201.86L440.425 205.395L443.253 202.567ZM445.728 197.263L440.425 202.567L443.253 205.395L448.556 200.092L445.728 197.263ZM453.86 202.567L448.556 197.263L445.728 200.092L451.031 205.395L453.86 202.567ZM454.567 199.031L451.031 202.567L453.86 205.395L457.395 201.86L454.567 199.031ZM449.263 196.556L454.567 201.86L457.395 199.031L452.092 193.728L449.263 196.556ZM454.567 188.425L449.263 193.728L452.092 196.556L457.395 191.253L454.567 188.425ZM451.031 187.718L454.567 191.253L457.395 188.425L453.86 184.889L451.031 187.718ZM448.556 193.021L453.86 187.718L451.031 184.889L445.728 190.192L448.556 193.021ZM440.425 187.718L445.728 193.021L448.556 190.192L443.253 184.889L440.425 187.718Z" fill="white" mask="url(#path-2-outside-1)"/>
<path d="M208.811 189.284L203.548 172.783L191.889 185.592L208.811 189.284ZM121.134 111.511L197.818 181.306L199.837 179.088L123.154 109.293L121.134 111.511Z" fill="#FF0000"/>
<path d="M209.298 199.631L192.295 202.931L203.654 216.006L209.298 199.631ZM115.636 282.987L200.091 209.617L198.123 207.352L113.669 280.722L115.636 282.987Z" fill="#FF0000"/>
<path d="M237.394 346.036C273.437 341.415 306.46 324.071 330.516 297.126C354.572 270.181 368.08 235.405 368.609 199.061C369.138 162.717 356.652 127.193 333.401 98.8844C310.149 70.5762 277.658 51.3443 241.78 44.6516L215.804 194.659L237.394 346.036Z" fill="url(#paint1_radial)"/>
<rect x="205.294" y="194.634" width="12.6488" height="12.6488" rx="6.3244" transform="rotate(-47.6925 205.294 194.634)" fill="#303030" stroke="white" stroke-width="2"/>
<rect x="105.719" y="282.275" width="12.6488" height="12.6488" rx="6.3244" transform="rotate(-47.6925 105.719 282.275)" fill="#303030" stroke="white" stroke-width="2"/>
<rect x="107.793" y="105.892" width="12.6488" height="12.6488" rx="6.3244" transform="rotate(-47.6925 107.793 105.892)" fill="#303030" stroke="white" stroke-width="2"/>
<rect width="650" height="390" fill="url(#paint2_radial)"/>
</g>
<defs>
<radialGradient id="paint0_radial" cx="0" cy="0" r="1" gradientUnits="userSpaceOnUse" gradientTransform="translate(447 195) rotate(34.764) scale(236.76 345.527)">
<stop offset="0.133005" stop-color="#66E5CE"/>
<stop offset="1" stop-color="#6673E5"/>
</radialGradient>
<radialGradient id="paint1_radial" cx="0" cy="0" r="1" gradientUnits="userSpaceOnUse" gradientTransform="translate(215.804 194.659) rotate(42.3075) scale(153.812 151.615)">
<stop stop-color="#FF0000"/>
<stop offset="0.860685" stop-color="#FF0000" stop-opacity="0"/>
</radialGradient>
<radialGradient id="paint2_radial" cx="0" cy="0" r="1" gradientUnits="userSpaceOnUse" gradientTransform="translate(325 195) rotate(90) scale(325 508.209)">
<stop offset="0.611816" stop-opacity="0"/>
<stop offset="1" stop-opacity="0.24"/>
</radialGradient>
<clipPath id="clip0">
<rect width="650" height="390" fill="white"/>
</clipPath>
</defs>
</svg>
