<svg width="650" height="390" viewBox="0 0 650 390" fill="none" xmlns="http://www.w3.org/2000/svg">
<g clip-path="url(#clip0)">
<rect width="650" height="390" fill="#464646"/>
<path d="M154.688 129.921L191.193 152.102" stroke="#44C7FF" stroke-width="2"/>
<path d="M154.688 129.921L113.484 165.581" stroke="#44C7FF" stroke-width="2"/>
<path d="M154.688 129.921L117.619 120.798" stroke="#44C7FF" stroke-width="2"/>
<path d="M154.688 129.921L205.285 212.068" stroke="#44C7FF" stroke-width="2"/>
<path d="M154.688 129.921L152.096 156.491" stroke="#44C7FF" stroke-width="2"/>
<path d="M192.953 262.705L199.269 232.95" stroke="#44C7FF" stroke-width="2"/>
<path d="M192.953 262.705L232.179 204.578" stroke="#44C7FF" stroke-width="2"/>
<path d="M192.953 262.705L211.599 177.713" stroke="#44C7FF" stroke-width="2"/>
<path d="M192.953 262.705L118.76 270.467" stroke="#44C7FF" stroke-width="2"/>
<path d="M199.269 232.95L150.578 281.14" stroke="#44C7FF" stroke-width="2"/>
<path d="M199.269 232.95L191.193 152.102" stroke="#44C7FF" stroke-width="2"/>
<path d="M199.269 232.95L260.612 196.626" stroke="#44C7FF" stroke-width="2"/>
<path d="M199.269 232.95L148.551 233.218" stroke="#44C7FF" stroke-width="2"/>
<path d="M199.269 232.95L211.599 177.713" stroke="#44C7FF" stroke-width="2"/>
<path d="M501.669 152.722L426.822 216.185" stroke="#EE7993" stroke-width="2"/>
<path d="M501.669 152.722L542.002 137.782" stroke="#EE7993" stroke-width="2"/>
<path d="M501.669 152.722L458.742 220.176" stroke="#EE7993" stroke-width="2"/>
<path d="M501.669 152.722L541.344 90.01" stroke="#EE7993" stroke-width="2"/>
<path d="M501.669 152.722L456.74 195.103" stroke="#EE7993" stroke-width="2"/>
<path d="M171.25 183.081L191.193 152.102" stroke="#44C7FF" stroke-width="2"/>
<path d="M171.25 183.081L260.613 196.626" stroke="#44C7FF" stroke-width="2"/>
<path d="M171.25 183.081L141.818 219.333" stroke="#44C7FF" stroke-width="2"/>
<path d="M171.25 183.082L86.5934 184.013" stroke="#44C7FF" stroke-width="2"/>
<path d="M212.332 115.35L232.179 204.578" stroke="#44C7FF" stroke-width="2"/>
<path d="M212.332 115.35L152.096 156.491" stroke="#44C7FF" stroke-width="2"/>
<path d="M426.821 216.185L470.91 174.107" stroke="#EE7993" stroke-width="2"/>
<path d="M426.821 216.185L260.612 196.626" stroke="#E6E4D0" stroke-width="2"/>
<path d="M426.822 216.185L490.579 201.35" stroke="#EE7993" stroke-width="2"/>
<path d="M426.822 216.185L468.164 283.045" stroke="#EE7993" stroke-width="2"/>
<path d="M426.822 216.185L363.83 229.604" stroke="#EE7993" stroke-width="2"/>
<path d="M426.822 216.185L409.249 264.181" stroke="#EE7993" stroke-width="2"/>
<path d="M426.821 216.185L519.174 256.787" stroke="#EE7993" stroke-width="2"/>
<path d="M426.822 216.185L443.024 232.171" stroke="#EE7993" stroke-width="2"/>
<path d="M426.822 216.185L476.044 234.934" stroke="#EE7993" stroke-width="2"/>
<path d="M426.821 216.185L504.791 180.735" stroke="#EE7993" stroke-width="2"/>
<path d="M553.91 208.116L519.174 256.787" stroke="#EE7993" stroke-width="2"/>
<path d="M553.91 208.116L456.741 195.103" stroke="#EE7993" stroke-width="2"/>
<path d="M553.91 208.116L504.791 180.735" stroke="#EE7993" stroke-width="2"/>
<path d="M150.578 281.14L205.285 212.067" stroke="#44C7FF" stroke-width="2"/>
<path d="M150.578 281.14L92.0655 238.179" stroke="#44C7FF" stroke-width="2"/>
<path d="M150.578 281.14L118.76 270.467" stroke="#44C7FF" stroke-width="2"/>
<path d="M191.193 152.102L260.612 196.626" stroke="#44C7FF" stroke-width="2"/>
<path d="M191.193 152.102L117.619 120.798" stroke="#44C7FF" stroke-width="2"/>
<path d="M470.91 174.106L542.002 137.782" stroke="#EE7993" stroke-width="2"/>
<path d="M470.909 174.107L471.736 117.857" stroke="#EE7993" stroke-width="2"/>
<path d="M470.909 174.107L443.023 232.171" stroke="#EE7993" stroke-width="2"/>
<path d="M470.91 174.107L376.94 161.306" stroke="#EE7993" stroke-width="2"/>
<path d="M470.909 174.107L476.044 234.934" stroke="#EE7993" stroke-width="2"/>
<path d="M470.909 174.107L511.158 233.786" stroke="#EE7993" stroke-width="2"/>
<path d="M260.612 196.626L232.179 204.578" stroke="#44C7FF" stroke-width="2"/>
<path d="M260.612 196.626L140.033 192.511" stroke="#44C7FF" stroke-width="2"/>
<path d="M490.579 201.35L542.002 137.782" stroke="#EE7993" stroke-width="2"/>
<path d="M490.579 201.351L443.889 150.775" stroke="#EE7993" stroke-width="2"/>
<path d="M490.578 201.35L555.114 256.267" stroke="#EE7993" stroke-width="2"/>
<path d="M490.579 201.35L443.024 232.171" stroke="#EE7993" stroke-width="2"/>
<path d="M490.578 201.35L392.806 218.576" stroke="#EE7993" stroke-width="2"/>
<path d="M490.578 201.35L504.792 180.735" stroke="#EE7993" stroke-width="2"/>
<path d="M468.164 283.045L458.742 220.177" stroke="#EE7993" stroke-width="2"/>
<path d="M468.164 283.045L404.229 293.734" stroke="#EE7993" stroke-width="2"/>
<path d="M468.164 283.045L511.158 233.786" stroke="#EE7993" stroke-width="2"/>
<path d="M542.002 137.782L541.344 90.01" stroke="#EE7993" stroke-width="2"/>
<path d="M363.83 229.604L409.249 264.181" stroke="#EE7993" stroke-width="2"/>
<path d="M363.83 229.604L404.23 293.734" stroke="#EE7993" stroke-width="2"/>
<path d="M363.83 229.604L443.023 232.171" stroke="#EE7993" stroke-width="2"/>
<path d="M363.83 229.604L205.285 212.067" stroke="#E6E4D0" stroke-width="2"/>
<path d="M363.83 229.604L456.74 195.103" stroke="#EE7993" stroke-width="2"/>
<path d="M363.83 229.605L427.956 186.845" stroke="#EE7993" stroke-width="2"/>
<path d="M113.485 165.581L126.061 206.28" stroke="#44C7FF" stroke-width="2"/>
<path d="M113.485 165.58L117.619 120.798" stroke="#44C7FF" stroke-width="2"/>
<path d="M113.485 165.58L86.5934 184.013" stroke="#44C7FF" stroke-width="2"/>
<path d="M113.485 165.581L92.0654 238.179" stroke="#44C7FF" stroke-width="2"/>
<path d="M113.485 165.58L211.599 177.713" stroke="#44C7FF" stroke-width="2"/>
<path d="M126.061 206.28L232.178 204.578" stroke="#44C7FF" stroke-width="2"/>
<path d="M126.061 206.28L65.4298 214.047" stroke="#44C7FF" stroke-width="2"/>
<path d="M126.061 206.28L148.551 233.218" stroke="#44C7FF" stroke-width="2"/>
<path d="M126.061 206.28L205.285 212.068" stroke="#44C7FF" stroke-width="2"/>
<path d="M126.061 206.28L94.4446 134.69" stroke="#44C7FF" stroke-width="2"/>
<path d="M126.061 206.28L118.76 270.467" stroke="#44C7FF" stroke-width="2"/>
<path d="M409.249 264.181L458.742 220.176" stroke="#EE7993" stroke-width="2"/>
<path d="M409.249 264.181L404.23 293.734" stroke="#EE7993" stroke-width="2"/>
<path d="M409.249 264.181L392.806 218.576" stroke="#EE7993" stroke-width="2"/>
<path d="M458.742 220.177L519.175 256.787" stroke="#EE7993" stroke-width="2"/>
<path d="M458.742 220.177L427.956 186.845" stroke="#EE7993" stroke-width="2"/>
<path d="M458.742 220.177L376.94 161.306" stroke="#EE7993" stroke-width="2"/>
<path d="M458.742 220.177L476.044 234.934" stroke="#EE7993" stroke-width="2"/>
<path d="M443.889 150.775L471.736 117.857" stroke="#EE7993" stroke-width="2"/>
<path d="M443.889 150.775L392.806 218.576" stroke="#EE7993" stroke-width="2"/>
<path d="M443.889 150.775L456.741 195.103" stroke="#EE7993" stroke-width="2"/>
<path d="M404.23 293.734L392.806 218.576" stroke="#EE7993" stroke-width="2"/>
<path d="M519.174 256.787L555.114 256.267" stroke="#EE7993" stroke-width="2"/>
<path d="M232.179 204.578L140.033 192.511" stroke="#44C7FF" stroke-width="2"/>
<path d="M232.179 204.578L141.818 219.333" stroke="#44C7FF" stroke-width="2"/>
<path d="M232.179 204.578L392.806 218.576" stroke="#E6E4D0" stroke-width="2"/>
<path d="M471.736 117.857L541.345 90.01" stroke="#EE7993" stroke-width="2"/>
<path d="M471.736 117.857L376.94 161.306" stroke="#EE7993" stroke-width="2"/>
<path d="M471.736 117.857L504.791 180.735" stroke="#EE7993" stroke-width="2"/>
<path d="M555.114 256.267L476.044 234.934" stroke="#EE7993" stroke-width="2"/>
<path d="M140.033 192.511L117.619 120.798" stroke="#44C7FF" stroke-width="2"/>
<path d="M140.033 192.511L86.5934 184.013" stroke="#44C7FF" stroke-width="2"/>
<path d="M140.033 192.511L65.4297 214.047" stroke="#44C7FF" stroke-width="2"/>
<path d="M140.033 192.511L148.551 233.218" stroke="#44C7FF" stroke-width="2"/>
<path d="M140.033 192.511L94.4446 134.69" stroke="#44C7FF" stroke-width="2"/>
<path d="M140.033 192.511L92.0654 238.179" stroke="#44C7FF" stroke-width="2"/>
<path d="M140.033 192.511L152.096 156.491" stroke="#44C7FF" stroke-width="2"/>
<path d="M140.033 192.511L118.76 270.467" stroke="#44C7FF" stroke-width="2"/>
<path d="M141.817 219.333L86.5933 184.013" stroke="#44C7FF" stroke-width="2"/>
<path d="M141.817 219.333L65.4297 214.047" stroke="#44C7FF" stroke-width="2"/>
<path d="M141.818 219.333L87.2241 284.373" stroke="#44C7FF" stroke-width="2"/>
<path d="M141.817 219.333L205.285 212.068" stroke="#44C7FF" stroke-width="2"/>
<path d="M141.818 219.333L211.599 177.713" stroke="#44C7FF" stroke-width="2"/>
<path d="M117.619 120.798L94.4446 134.69" stroke="#44C7FF" stroke-width="2"/>
<path d="M443.024 232.171L392.806 218.576" stroke="#EE7993" stroke-width="2"/>
<path d="M443.023 232.171L456.74 195.103" stroke="#EE7993" stroke-width="2"/>
<path d="M443.023 232.171L511.158 233.786" stroke="#EE7993" stroke-width="2"/>
<path d="M392.806 218.576L456.741 195.103" stroke="#EE7993" stroke-width="2"/>
<path d="M392.806 218.576L476.044 234.934" stroke="#EE7993" stroke-width="2"/>
<path d="M142.699 88.2889L94.4447 134.69" stroke="#44C7FF" stroke-width="2"/>
<path d="M142.699 88.2888L211.599 177.713" stroke="#44C7FF" stroke-width="2"/>
<path d="M148.551 233.218L87.224 284.373" stroke="#44C7FF" stroke-width="2"/>
<path d="M148.551 233.218L205.285 212.068" stroke="#44C7FF" stroke-width="2"/>
<path d="M148.551 233.218L92.0654 238.178" stroke="#44C7FF" stroke-width="2"/>
<path d="M148.551 233.218L152.096 156.491" stroke="#44C7FF" stroke-width="2"/>
<path d="M148.551 233.218L211.599 177.713" stroke="#44C7FF" stroke-width="2"/>
<path d="M87.224 284.373L118.76 270.467" stroke="#44C7FF" stroke-width="2"/>
<path d="M205.285 212.068L152.096 156.491" stroke="#44C7FF" stroke-width="2"/>
<path d="M94.4446 134.69L152.096 156.491" stroke="#44C7FF" stroke-width="2"/>
<path d="M427.956 186.845L376.94 161.306" stroke="#EE7993" stroke-width="2"/>
<path d="M427.956 186.845L476.044 234.934" stroke="#EE7993" stroke-width="2"/>
<path d="M427.956 186.845L504.792 180.735" stroke="#EE7993" stroke-width="2"/>
<path d="M376.94 161.306L211.599 177.713" stroke="#E6E4D0" stroke-width="2"/>
<path d="M504.792 180.735L511.158 233.786" stroke="#EE7993" stroke-width="2"/>
<rect width="650" height="390" fill="url(#paint0_radial)"/>
</g>
<defs>
<radialGradient id="paint0_radial" cx="0" cy="0" r="1" gradientUnits="userSpaceOnUse" gradientTransform="translate(325 195) rotate(90) scale(325 508.209)">
<stop offset="0.584302" stop-opacity="0"/>
<stop offset="1" stop-opacity="0.22"/>
</radialGradient>
<clipPath id="clip0">
<rect width="650" height="390" fill="white"/>
</clipPath>
</defs>
</svg>
