<svg width="650" height="390" viewBox="0 0 650 390" fill="none" xmlns="http://www.w3.org/2000/svg">
<rect width="650" height="390" fill="#151515"/>
<path d="M258.162 220.582H190.274L174.849 262H169.231L221.123 123.367H227.408L279.3 262H273.682L258.162 220.582ZM192.178 215.44H256.258L224.266 129.556L192.178 215.44Z" fill="#C42C2D"/>
<path d="M372.058 262V178.82H393.938C402.889 178.82 409.649 180.648 414.219 184.305C418.828 187.923 421.132 193.198 421.132 200.129C421.132 205.157 419.856 209.327 417.304 212.641C414.752 215.954 411.153 218.068 406.507 218.982C411.763 219.667 416.142 221.953 419.646 225.837C423.15 229.684 424.902 234.102 424.902 239.091C424.902 246.175 422.598 251.774 417.99 255.887C413.419 259.962 407.04 262 398.851 262H372.058ZM375.143 220.924V258.915H399.194C406.24 258.915 411.763 257.182 415.762 253.716C419.799 250.212 421.817 245.375 421.817 239.206C421.817 233.95 419.875 229.627 415.99 226.237C412.105 222.81 406.907 221.039 400.394 220.924H375.143ZM375.143 217.839H395.081C402.66 217.839 408.373 216.392 412.22 213.498C416.066 210.565 417.99 206.033 417.99 199.901C417.99 188.094 410.201 182.096 394.624 181.905H375.143V217.839ZM546.027 236.521C545.227 245.09 542.275 251.679 537.172 256.287C532.068 260.857 525.137 263.143 516.377 263.143C510.474 263.143 505.237 261.657 500.667 258.687C496.134 255.678 492.611 251.431 490.098 245.947C487.584 240.424 486.308 234.121 486.27 227.037V214.183C486.27 207.099 487.508 200.777 489.983 195.216C492.459 189.618 495.982 185.295 500.552 182.248C505.161 179.201 510.436 177.678 516.377 177.678C525.061 177.678 531.973 179.963 537.115 184.533C542.256 189.104 545.227 195.654 546.027 204.186H542.942C542.066 196.53 539.4 190.722 534.944 186.761C530.488 182.762 524.299 180.763 516.377 180.763C508.303 180.763 501.771 183.81 496.782 189.903C491.831 195.997 489.355 204.167 489.355 214.412V226.637C489.355 233.188 490.46 238.996 492.669 244.062C494.878 249.089 498.039 253.012 502.152 255.83C506.303 258.648 511.045 260.058 516.377 260.058C524.337 260.058 530.545 258.096 535.001 254.173C539.495 250.25 542.142 244.366 542.942 236.521H546.027Z" fill="#965A5B"/>
<rect x="122" y="95" width="201" height="201" rx="18" stroke="#C42C2D" stroke-width="4"/>
</svg>
