<svg width="500" height="300" viewBox="0 0 500 300" fill="none" xmlns="http://www.w3.org/2000/svg">
<rect width="500" height="300" fill="#151515"/>
<path d="M197.163 169.14H144.941L133.076 201H128.755L168.672 94.3594H173.506L213.423 201H209.102L197.163 169.14ZM146.406 165.185H195.698L171.089 99.1201L146.406 165.185Z" fill="#C42C2D"/>
<path d="M284.775 201V137.016H301.606C308.491 137.016 313.691 138.422 317.207 141.234C320.752 144.018 322.524 148.075 322.524 153.407C322.524 157.274 321.543 160.482 319.58 163.031C317.617 165.58 314.849 167.206 311.274 167.909C315.317 168.437 318.687 170.194 321.382 173.183C324.077 176.142 325.425 179.54 325.425 183.378C325.425 188.827 323.652 193.134 320.107 196.298C316.592 199.433 311.685 201 305.386 201H284.775ZM287.148 169.403V198.627H305.649C311.069 198.627 315.317 197.294 318.394 194.628C321.499 191.933 323.052 188.212 323.052 183.466C323.052 179.423 321.558 176.098 318.569 173.49C315.581 170.854 311.582 169.491 306.572 169.403H287.148ZM287.148 167.03H302.485C308.315 167.03 312.71 165.917 315.669 163.69C318.628 161.435 320.107 157.948 320.107 153.231C320.107 144.149 314.116 139.535 302.134 139.389H287.148V167.03ZM418.598 181.4C417.982 187.992 415.712 193.061 411.786 196.605C407.86 200.121 402.528 201.879 395.79 201.879C391.249 201.879 387.221 200.736 383.705 198.451C380.219 196.137 377.509 192.87 375.575 188.651C373.642 184.403 372.66 179.555 372.631 174.105V164.218C372.631 158.769 373.583 153.905 375.487 149.628C377.392 145.321 380.102 141.996 383.617 139.652C387.162 137.309 391.22 136.137 395.79 136.137C402.47 136.137 407.787 137.895 411.742 141.41C415.697 144.926 417.982 149.965 418.598 156.527H416.225C415.551 150.639 413.5 146.171 410.072 143.124C406.645 140.048 401.884 138.51 395.79 138.51C389.579 138.51 384.555 140.854 380.717 145.541C376.908 150.229 375.004 156.513 375.004 164.394V173.798C375.004 178.837 375.854 183.305 377.553 187.201C379.252 191.068 381.684 194.086 384.848 196.254C388.041 198.422 391.688 199.506 395.79 199.506C401.913 199.506 406.688 197.997 410.116 194.979C413.573 191.962 415.609 187.436 416.225 181.4H418.598Z" fill="#965A5B"/>
<rect x="93" y="72" width="156" height="156" rx="15" stroke="#C42C2D" stroke-width="2"/>
</svg>
