<svg width="650" height="390" viewBox="0 0 650 390" fill="none" xmlns="http://www.w3.org/2000/svg">
<rect width="650" height="390" fill="url(#paint0_linear)"/>
<path d="M204.798 194.23H176.386V221.5H174.329V166.047H208.683V168.104H176.386V192.098H204.798V194.23ZM244.674 221.5V214.835C243.455 217.12 241.678 218.936 239.342 220.281C237.006 221.602 234.048 222.262 230.468 222.262C225.974 222.262 222.597 220.954 220.337 218.339C218.103 215.698 216.96 211.864 216.91 206.837V180.291H218.966V206.913C219.017 211.28 220.007 214.594 221.937 216.854C223.867 219.088 226.685 220.205 230.392 220.205C234.328 220.205 237.527 219.278 239.99 217.425C242.453 215.571 244.014 212.854 244.674 209.274V180.291H246.769V221.5H244.674ZM261.851 189.889C263.197 186.689 265.177 184.163 267.792 182.31C270.408 180.456 273.302 179.529 276.476 179.529C280.894 179.529 284.169 180.786 286.302 183.3C288.46 185.788 289.552 189.559 289.578 194.611V221.5H287.521V194.535C287.496 190.117 286.594 186.854 284.817 184.747C283.039 182.614 280.221 181.548 276.362 181.548C272.807 181.548 269.722 182.817 267.107 185.356C264.517 187.87 262.765 191.12 261.851 195.106V221.5H259.794V180.291H261.851V189.889ZM316.504 220.205C320.237 220.205 323.309 219.215 325.721 217.234C328.159 215.254 329.492 212.512 329.72 209.008H331.777C331.574 212.994 330.038 216.206 327.168 218.644C324.299 221.056 320.745 222.262 316.504 222.262C311.35 222.262 307.249 220.396 304.203 216.663C301.181 212.931 299.67 207.865 299.67 201.467V200.096C299.67 193.85 301.181 188.86 304.203 185.128C307.249 181.396 311.325 179.529 316.428 179.529C320.795 179.529 324.401 180.837 327.245 183.452C330.088 186.067 331.599 189.546 331.777 193.888H329.72C329.542 190.181 328.235 187.21 325.797 184.976C323.385 182.716 320.262 181.586 316.428 181.586C311.832 181.586 308.227 183.249 305.612 186.575C303.022 189.876 301.727 194.472 301.727 200.362V201.695C301.727 207.459 303.035 211.991 305.65 215.292C308.29 218.567 311.909 220.205 316.504 220.205ZM344.688 221.5H342.631V180.291H344.688V221.5ZM341.565 167.418C341.565 166.834 341.768 166.339 342.174 165.933C342.58 165.501 343.076 165.285 343.66 165.285C344.244 165.285 344.739 165.501 345.145 165.933C345.577 166.339 345.792 166.834 345.792 167.418C345.792 168.002 345.577 168.497 345.145 168.903C344.739 169.31 344.244 169.513 343.66 169.513C343.076 169.513 342.58 169.31 342.174 168.903C341.768 168.497 341.565 168.002 341.565 167.418ZM361.331 221.5V182.386H354.171V180.291H361.331V174.273C361.357 170.465 362.309 167.507 364.188 165.399C366.092 163.267 368.733 162.2 372.11 162.2C373.989 162.2 375.614 162.416 376.985 162.848L376.68 164.828C375.36 164.447 373.849 164.257 372.148 164.257C369.431 164.257 367.286 165.146 365.711 166.923C364.163 168.675 363.388 171.176 363.388 174.426V180.291H374.281V182.386H363.388V221.5H361.331ZM395.418 218.301L395.685 217.539L409.929 180.291H412.214L393.781 228.66L392.867 230.945C390.886 235.744 387.611 238.144 383.04 238.144C381.568 238.144 380.552 238.004 379.994 237.725L379.955 235.782C380.768 236.011 381.695 236.125 382.736 236.125C384.894 236.125 386.684 235.49 388.106 234.221C389.528 232.977 390.759 230.933 391.8 228.089L394.314 221.271L377.899 180.291H380.146L395.418 218.301ZM414.995 219.634C414.995 219.05 415.198 218.555 415.604 218.148C416.01 217.717 416.505 217.501 417.089 217.501C417.673 217.501 418.168 217.717 418.575 218.148C419.006 218.555 419.222 219.05 419.222 219.634C419.222 220.218 419.006 220.713 418.575 221.119C418.168 221.525 417.673 221.729 417.089 221.729C416.505 221.729 416.01 221.525 415.604 221.119C415.198 220.713 414.995 220.218 414.995 219.634ZM435.294 180.291V226.413C435.294 230.222 434.342 233.129 432.438 235.135C430.534 237.141 427.868 238.144 424.44 238.144C423.196 238.144 421.952 237.89 420.707 237.382L420.822 235.401C422.04 235.858 423.246 236.087 424.44 236.087C427.284 236.087 429.454 235.236 430.953 233.535C432.476 231.859 433.238 229.485 433.238 226.413V180.291H435.294ZM432.362 167.418C432.362 166.834 432.565 166.339 432.971 165.933C433.377 165.501 433.872 165.285 434.456 165.285C435.04 165.285 435.536 165.501 435.942 165.933C436.373 166.339 436.589 166.834 436.589 167.418C436.589 168.002 436.373 168.497 435.942 168.903C435.536 169.31 435.04 169.513 434.456 169.513C433.872 169.513 433.377 169.31 432.971 168.903C432.565 168.497 432.362 168.002 432.362 167.418ZM475.094 211.407C475.094 206.405 470.829 203.003 462.297 201.2C457.168 200.108 453.601 198.712 451.595 197.011C449.589 195.284 448.586 192.923 448.586 189.927C448.586 186.905 449.856 184.417 452.395 182.462C454.959 180.507 458.286 179.529 462.373 179.529C466.817 179.529 470.384 180.596 473.076 182.729C475.767 184.836 477.113 187.692 477.113 191.298H475.018C475.018 188.53 473.85 186.22 471.514 184.366C469.178 182.513 466.131 181.586 462.373 181.586C458.768 181.586 455.912 182.373 453.804 183.947C451.697 185.521 450.643 187.489 450.643 189.851C450.643 191.704 451.037 193.164 451.824 194.23C452.611 195.271 453.893 196.224 455.67 197.087C457.448 197.925 460.038 198.737 463.44 199.524C466.842 200.312 469.534 201.238 471.514 202.305C473.495 203.371 474.929 204.641 475.818 206.113C476.706 207.561 477.151 209.338 477.151 211.445C477.151 214.695 475.818 217.311 473.152 219.291C470.486 221.271 466.995 222.262 462.678 222.262C458.057 222.262 454.325 221.221 451.481 219.139C448.663 217.031 447.253 214.327 447.253 211.026H449.31C449.513 213.921 450.783 216.181 453.119 217.806C455.48 219.405 458.666 220.205 462.678 220.205C466.36 220.205 469.343 219.354 471.628 217.653C473.939 215.927 475.094 213.845 475.094 211.407Z" fill="#E60A0A"/>
<defs>
<linearGradient id="paint0_linear" x1="325" y1="104" x2="325" y2="847.6" gradientUnits="userSpaceOnUse">
<stop offset="0.267191" stop-color="white"/>
<stop offset="1" stop-color="#0987E6"/>
</linearGradient>
</defs>
</svg>
