<svg width="500" height="300" viewBox="0 0 500 300" fill="none" xmlns="http://www.w3.org/2000/svg">
<rect width="500" height="300" fill="url(#paint0_linear)"/>
<path fill-rule="evenodd" clip-rule="evenodd" d="M141.986 235.186C143.871 238.014 145.907 239.429 148.093 239.429C150.29 239.429 152.838 238.482 155.735 236.589C155.354 238.086 155.164 239.59 155.164 241.1C155.164 242.429 155.314 243.779 155.614 245.15C156.728 250.293 159.557 254.257 164.1 257.043C168.128 259.486 172.564 260.707 177.407 260.707C181.307 260.707 185.293 259.829 189.364 258.071C195.536 255.371 200.314 251.3 203.7 245.857C205.414 242.986 206.271 240.521 206.271 238.464C205.843 236.236 205.286 234.779 204.6 234.093C203.871 233.45 203.079 233.129 202.221 233.129C201.321 233.129 200.421 233.429 199.521 234.029C198.236 235.014 197.593 236.171 197.593 237.5C197.593 238.4 198.043 239.364 198.943 240.393C199.929 241.379 200.421 242.364 200.421 243.35C200.421 244.379 200.121 245.493 199.521 246.693C198.364 249.007 196.8 250.786 194.829 252.029C191.186 254.214 186.921 255.307 182.036 255.307C177.536 255.307 173.421 254.171 169.693 251.9C167.078 250.357 165 248.343 163.457 245.857C161.829 243.114 161.014 240.114 161.014 236.857C161.014 234.872 161.344 232.974 162.002 231.163C162.458 230.556 162.686 230.076 162.686 229.721C162.686 229.675 162.68 229.632 162.667 229.592C163.147 228.601 163.732 227.637 164.421 226.7C166.993 223.271 171.15 220.614 176.893 218.729C178.05 218.343 179.207 218.021 180.364 217.764C181.221 217.55 181.757 217.443 181.971 217.443L183.643 217.636C185.614 218.064 188.121 218.279 191.164 218.279C197.85 218.279 203.636 216.093 208.521 211.721C210.236 210.264 211.093 209.129 211.093 208.314C211.093 207.971 210.921 207.8 210.579 207.8C210.15 207.8 209.679 207.971 209.164 208.314L206.143 210.564C203.614 212.107 200.164 212.879 195.793 212.879C193.821 212.879 191.657 212.729 189.3 212.429L186.941 212.027C187.305 211.612 187.727 211.125 188.207 210.564L191.486 206.579L197.979 198.671C200.936 195.029 203.271 192.286 204.986 190.443C209.786 185.257 213.879 182.664 217.264 182.664C218.979 182.664 220.436 183.307 221.636 184.593C221.721 184.679 221.786 184.764 221.829 184.85L221.957 184.979C222.9 186.179 223.371 187.443 223.371 188.771C223.371 189.5 223.243 190.229 222.986 190.957C222.686 191.943 222.364 192.564 222.021 192.821C221.721 193.079 221.207 193.25 220.479 193.336L219.964 193.4C219.45 193.4 218.936 193.293 218.421 193.079C216.879 192.521 216.043 191.471 215.914 189.929C215.914 189.243 216.043 188.771 216.3 188.514C216.814 187.871 217.071 187.4 217.071 187.1V187.036C217.071 186.821 216.964 186.714 216.75 186.714C216.021 186.714 215.079 187.293 213.921 188.45C212.25 190.121 211.414 191.686 211.414 193.143C211.414 193.871 211.629 194.579 212.057 195.264C212.271 195.693 212.571 196.036 212.957 196.293C213.729 197.064 214.886 197.45 216.429 197.45C217.714 197.45 219.257 196.914 221.057 195.843C224.829 193.314 227.014 190.357 227.614 186.971C227.7 186.329 227.743 185.814 227.743 185.429C227.743 183.757 227.229 182.3 226.2 181.057C224.871 179.386 223.179 178.55 221.121 178.55C215.507 178.55 208.393 183.5 199.779 193.4L184.801 211.663L173.807 209.793C171.021 209.45 168.557 209.279 166.414 209.279C164.743 209.279 163.264 209.386 161.979 209.6C158.507 210.286 155.314 211.936 152.4 214.55C151.457 215.407 150.836 216.2 150.536 216.929C150.364 217.186 150.279 217.4 150.279 217.571C150.279 217.914 150.471 218.086 150.857 218.086C151.071 218.086 151.371 218 151.757 217.829C152.1 217.657 152.871 217.121 154.071 216.221C155.486 215.107 157.971 214.55 161.528 214.55C163.328 214.55 165.493 214.7 168.021 215C171.536 215.514 173.7 215.879 174.514 216.093C171.986 217.507 170.314 218.514 169.5 219.114C167.014 220.786 164.786 222.671 162.814 224.771C160.353 227.356 158.486 229.961 157.213 232.586C155.762 233.634 154.372 234.157 153.043 234.157C151.414 234.157 149.979 233.321 148.736 231.65C147.579 230.193 146.121 227.986 144.364 225.029C142.221 221.686 140.7 218.579 139.8 215.707C138.814 212.407 138.321 209.15 138.321 205.936C138.321 202.507 138.879 199.121 139.993 195.779C142.093 189.479 146.571 183.007 153.429 176.364L156.643 173.407C157.971 172.079 158.636 171.114 158.636 170.514C158.636 170.171 158.443 170 158.057 170C157.286 170 156.236 170.6 154.907 171.8C152.079 174.286 149.25 177.071 146.421 180.157C138.621 188.814 134.143 197.086 132.986 204.971C132.729 206.643 132.6 208.357 132.6 210.114C132.6 211.1 132.643 212.086 132.729 213.071V213.457C132.771 213.457 132.793 213.479 132.793 213.521V213.586L133.179 218.471C132.879 223.7 130.757 228.007 126.814 231.393C125.057 232.936 123.343 233.729 121.671 233.771H121.093C119.336 233.643 117.964 232.957 116.979 231.714L116.4 231.264C116.314 231.221 116.229 231.2 116.143 231.2C115.8 231.2 115.307 231.393 114.664 231.779C112.95 232.85 111.771 234.05 111.129 235.379C111.043 235.55 111 235.743 111 235.957C111 236.6 111.557 237.264 112.671 237.95C113.871 238.721 115.2 239.107 116.657 239.107C119.271 239.107 122.357 237.8 125.914 235.186C128.357 233.3 130.457 231.329 132.214 229.271C133.929 227.257 135.064 225.714 135.621 224.643C135.879 225.371 137.679 228.371 141.021 233.643L142.179 235.443L141.986 235.186ZM159.214 180.8C158.529 180.929 157.8 181.464 157.029 182.407C156.386 183.221 155.7 184.036 154.971 184.85C150.857 189.907 147.557 194.129 145.071 197.514L143.271 200.021C142.671 200.879 142.35 201.35 142.307 201.436C142.221 201.693 142.179 201.886 142.179 202.014C142.179 202.743 142.5 203.107 143.143 203.107C143.571 203.107 144.15 202.743 144.879 202.014C148.779 198.114 152.679 193.85 156.579 189.221C158.936 186.564 160.35 184.893 160.821 184.207C160.993 183.95 161.143 183.65 161.271 183.307L161.4 182.343C161.4 181.486 160.971 180.95 160.114 180.736C159.814 180.736 159.514 180.757 159.214 180.8ZM178.371 222.65H178.307C177.193 222.864 176.1 223.7 175.029 225.157C174.643 225.629 174.45 225.993 174.45 226.25C174.45 226.55 175.05 226.871 176.25 227.214C177.536 227.643 179.314 227.857 181.586 227.857H192.514C196.586 227.857 199.693 227.364 201.836 226.379C202.993 225.736 203.871 224.921 204.471 223.936C204.771 223.507 204.921 223.186 204.921 222.971C204.921 222.714 204.793 222.586 204.536 222.586H204.471L203.25 223.036C201.964 223.507 200.486 223.743 198.814 223.743H187.821H186.857C183.686 223.743 181.5 223.55 180.3 223.164C180.214 223.164 180.107 223.143 179.978 223.1L179.914 223.036C179.143 222.779 178.629 222.65 178.371 222.65ZM263.293 239.171C263.293 239.729 263.443 240.007 263.743 240.007C264.043 240.007 264.514 239.857 265.157 239.557C266.7 238.743 267.9 237.586 268.757 236.086C268.886 235.829 269.057 235.079 269.271 233.836C270.985 225.704 272.319 219.988 273.273 216.689L274.479 215.836C275.893 215.021 277.393 214.614 278.979 214.614C280.564 214.614 281.743 215.386 282.514 216.929C282.857 217.743 283.028 218.707 283.028 219.821C283.028 220.893 282.857 222.114 282.514 223.486C281.443 227.343 280.05 230.857 278.336 234.029C277.821 235.057 277.307 235.914 276.793 236.6L275.379 238.143C274.993 238.743 274.8 239.193 274.8 239.493C274.8 239.836 275.057 240.007 275.571 240.007C276.086 239.879 276.643 239.6 277.243 239.171C278.443 238.357 279.557 237.307 280.586 236.021C281.443 234.95 282.921 232.507 285.021 228.693C285.107 228.564 285.171 228.436 285.214 228.307C287.957 223.464 290.657 220.057 293.314 218.086C295.929 216.157 298.264 215.193 300.321 215.193C302.293 215.193 304.264 216.071 306.236 217.829C308.207 219.757 309.193 222.307 309.193 225.479C309.193 228.479 308.293 230.964 306.493 232.936L306.107 233.321C304.821 234.221 303.536 234.671 302.25 234.671C301.007 234.671 299.914 234.264 298.971 233.45C298.029 232.636 297.386 232.186 297.043 232.1C296.657 231.971 296.25 231.907 295.821 231.907C295.35 231.907 294.879 231.993 294.407 232.164C292.821 232.679 291.836 233.729 291.45 235.314C291.364 235.657 291.321 235.979 291.321 236.279C291.321 237.35 291.729 238.229 292.543 238.914C293.443 239.729 294.771 240.136 296.529 240.136C299.829 240.136 303.214 238.721 306.686 235.893C307.029 235.636 307.35 235.357 307.65 235.057C312.621 230.686 315.107 225.993 315.107 220.979C315.107 219.779 314.936 218.621 314.593 217.507C314.576 217.45 314.558 217.394 314.54 217.338C314.523 217.284 314.506 217.231 314.489 217.178L316.457 215.836C318.129 214.936 320.25 214.486 322.821 214.486L326.614 214.679C320.486 218.921 317.421 223.314 317.421 227.857C317.421 230.086 318.043 232.057 319.286 233.771C320.657 235.657 323.25 237.414 327.064 239.043C330.793 240.586 333.15 241.657 334.136 242.257C335.079 242.814 335.957 243.457 336.771 244.186C340.843 247.743 342.879 252.05 342.879 257.107C342.879 260.021 342.193 262.721 340.821 265.207C339.064 268.293 335.829 270.457 331.114 271.7C328.586 272.386 326.079 272.729 323.593 272.729C317.85 272.729 313.221 270.971 309.707 267.457C308.764 266.514 308.036 265.614 307.521 264.757L307.264 264.243L307.2 264.179C306.257 262.464 305.786 260.9 305.786 259.486C305.786 258.414 306.064 257.407 306.621 256.464L306.686 256.336L307.007 256.014C308.121 254.814 308.679 253.957 308.679 253.443C308.679 253.1 308.507 252.929 308.164 252.929C307.607 252.929 306.729 253.379 305.529 254.279C301.886 257.107 300.064 260.343 300.064 263.986C300.064 266.129 300.793 268.25 302.25 270.35C305.807 275.45 311.486 278 319.286 278H320.25C328.35 277.614 335.271 274.593 341.014 268.936C343.586 266.407 345.514 263.793 346.8 261.093C346.886 260.879 346.993 260.664 347.121 260.45C348.193 257.836 348.729 255.286 348.729 252.8C348.729 250.4 348.236 248.064 347.25 245.793C345.621 242.236 343.264 239.45 340.179 237.436C339.064 236.707 337.071 235.743 334.2 234.543C332.186 233.729 330.707 233.064 329.764 232.55C325.393 230.279 323.207 227.193 323.207 223.293C323.207 221.536 323.743 220.121 324.814 219.05C325.414 218.364 326.486 217.807 328.029 217.379C329.957 216.693 331.971 216.35 334.071 216.35C335.1 216.35 336.15 216.436 337.221 216.607L341.207 217.379C345.921 218.536 350.1 219.114 353.743 219.114C356.571 219.114 359.079 218.771 361.264 218.086C363.917 217.25 366.601 215.782 369.315 213.683C368.979 215.728 368.652 217.924 368.336 220.271C367.136 229.4 365.893 236.064 364.607 240.264C362.636 247.121 359.657 252.393 355.671 256.079C354.386 257.236 353.743 258.179 353.743 258.907C353.743 259.25 353.914 259.421 354.257 259.421C355.243 259.421 356.807 258.35 358.95 256.207C364.65 250.507 368.593 243.414 370.779 234.929C371.679 231.457 372.771 225.093 374.057 215.836C375.429 206.107 377.1 198.693 379.071 193.593C380.443 190.164 382.071 187.271 383.957 184.914L387.107 181.636C388.007 180.65 388.457 179.9 388.457 179.386C388.414 179.086 388.243 178.936 387.943 178.936C386.914 178.936 385.414 179.921 383.443 181.893C380.357 184.979 377.871 188.257 375.986 191.729C374.657 194.171 373.5 196.807 372.514 199.636C371.595 202.342 370.729 205.878 369.916 210.243L367.757 211.786C365.357 213.114 362.55 213.779 359.336 213.779H358.564C355.05 213.779 349.929 212.986 343.2 211.4C336.429 209.943 331.286 209.214 327.771 209.214C322.971 209.214 318.729 210.757 315.043 213.843C314.48 214.29 314.001 214.715 313.607 215.117C312.466 213.017 310.78 211.521 308.55 210.629C307.35 210.157 306.129 209.921 304.886 209.921C303.043 209.921 301.136 210.414 299.164 211.4C295.607 213.071 291.986 215.75 288.3 219.436L288.879 215.964V215.129C288.879 212.986 288.193 211.357 286.821 210.243C286.093 209.643 285.107 209.343 283.864 209.343C281.131 209.343 278.359 210.25 275.549 212.064C275.821 211.624 275.957 211.274 275.957 211.014C275.957 210.671 275.743 210.5 275.314 210.5C275.271 210.5 274.65 210.564 273.45 210.693C270.921 211.036 268.5 211.207 266.186 211.207H265.286C262.886 211.207 260.25 211.057 257.379 210.757C257.25 210.757 257.121 210.736 256.993 210.693C254.282 210.42 252.141 210.219 250.568 210.091L253.457 206.579L259.95 198.671C262.907 195.029 265.243 192.286 266.957 190.443C271.757 185.257 275.85 182.664 279.236 182.664C280.95 182.664 282.407 183.307 283.607 184.593C283.693 184.679 283.757 184.764 283.8 184.85L283.929 184.979C284.871 186.179 285.343 187.443 285.343 188.771C285.343 189.5 285.214 190.229 284.957 190.957C284.657 191.943 284.336 192.564 283.993 192.821C283.693 193.079 283.179 193.25 282.45 193.336L281.936 193.4C281.421 193.4 280.907 193.293 280.393 193.079C278.85 192.521 278.014 191.471 277.886 189.929C277.886 189.243 278.014 188.771 278.271 188.514C278.786 187.871 279.043 187.4 279.043 187.1V187.036C279.043 186.821 278.936 186.714 278.721 186.714C277.993 186.714 277.05 187.293 275.893 188.45C274.221 190.121 273.386 191.686 273.386 193.143C273.386 193.871 273.6 194.579 274.029 195.264C274.243 195.693 274.543 196.036 274.929 196.293C275.7 197.064 276.857 197.45 278.4 197.45C279.686 197.45 281.229 196.914 283.029 195.843C286.8 193.314 288.986 190.357 289.586 186.971C289.671 186.329 289.714 185.814 289.714 185.429C289.714 183.757 289.2 182.3 288.171 181.057C286.843 179.386 285.15 178.55 283.093 178.55C277.479 178.55 270.364 183.5 261.75 193.4L248.193 209.932C248.013 209.925 247.861 209.921 247.736 209.921H246.707C238.864 209.921 232.693 212.171 228.193 216.671C227.207 217.571 226.714 218.343 226.714 218.986C226.714 219.414 226.95 219.629 227.421 219.629C227.807 219.629 228.214 219.5 228.643 219.243L230.764 217.507C233.764 215.493 237.921 214.486 243.236 214.486C243.779 214.486 244.336 214.497 244.908 214.52C244.917 214.714 245.002 214.831 245.164 214.871C245.463 214.871 245.793 214.776 246.155 214.585C246.774 214.625 247.408 214.678 248.057 214.743C247.8 215 247.543 215.236 247.286 215.45C241.243 220.764 238.221 225.779 238.221 230.493C238.221 233.021 239.014 235.143 240.6 236.857C242.529 238.957 244.95 240.007 247.864 240.007H248.507C251.293 240.007 255.021 238.271 259.693 234.8C261.921 233.214 263.679 231.736 264.964 230.364L263.293 239.171ZM252.879 215.321L258.986 215.771C259.543 215.814 260.164 215.836 260.85 215.836C263.207 215.836 266.164 215.643 269.721 215.257C269.036 216.371 268.393 217.743 267.793 219.371C267.75 219.457 267.729 219.543 267.729 219.629L266.25 224.321C265.093 227.021 262.821 229.593 259.436 232.036C256.907 233.793 254.657 234.671 252.686 234.671C250.757 234.671 249 234.071 247.414 232.871C245.143 231.114 244.007 228.843 244.007 226.057C244.007 225.029 244.179 224 244.521 222.971C245.464 220.057 247.307 217.914 250.05 216.543L252.879 215.321Z" fill="url(#paint1_linear)"/>
<path opacity="0.92" d="M105.409 79V63.498H92.2068V79H89.2858V47.398H92.2068V61.106H105.409V47.398H108.33V79H105.409ZM119.697 68.075C119.743 70.099 120.103 71.7627 120.778 73.066C121.468 74.354 122.373 75.3047 123.492 75.918C124.611 76.5313 125.83 76.838 127.149 76.838C128.422 76.838 129.549 76.654 130.53 76.286C131.527 75.918 132.569 75.3583 133.658 74.607L135.153 76.746C134.034 77.6047 132.769 78.2717 131.358 78.747C129.963 79.2223 128.598 79.46 127.264 79.46C125.041 79.46 123.132 78.9387 121.537 77.896C119.958 76.8533 118.746 75.3967 117.903 73.526C117.06 71.64 116.638 69.4473 116.638 66.948C116.638 64.4947 117.067 62.325 117.926 60.439C118.785 58.553 119.973 57.081 121.491 56.023C123.024 54.9497 124.803 54.413 126.827 54.413C129.756 54.413 132.048 55.4633 133.704 57.564C135.36 59.6493 136.188 62.4937 136.188 66.097C136.188 66.511 136.18 66.8867 136.165 67.224C136.15 67.546 136.134 67.8297 136.119 68.075H119.697ZM126.896 57.081C124.949 57.081 123.308 57.771 121.974 59.151C120.655 60.531 119.912 62.647 119.743 65.499H133.474C133.413 62.6623 132.776 60.554 131.565 59.174C130.354 57.7787 128.797 57.081 126.896 57.081ZM153.65 45.075V73.526C153.65 74.7833 154.049 75.6727 154.846 76.194C155.659 76.7153 156.678 76.976 157.905 76.976C158.672 76.976 159.392 76.8993 160.067 76.746C160.757 76.5927 161.455 76.378 162.16 76.102L162.988 78.31C162.39 78.6013 161.631 78.862 160.711 79.092C159.791 79.3373 158.764 79.46 157.629 79.46C155.728 79.46 154.11 78.9463 152.776 77.919C151.457 76.8763 150.798 75.412 150.798 73.526V47.559H143.3V45.075H153.65ZM181.232 45.075V73.526C181.232 74.7833 181.631 75.6727 182.428 76.194C183.241 76.7153 184.26 76.976 185.487 76.976C186.254 76.976 186.974 76.8993 187.649 76.746C188.339 76.5927 189.037 76.378 189.742 76.102L190.57 78.31C189.972 78.6013 189.213 78.862 188.293 79.092C187.373 79.3373 186.346 79.46 185.211 79.46C183.31 79.46 181.692 78.9463 180.358 77.919C179.039 76.8763 178.38 75.412 178.38 73.526V47.559H170.882V45.075H181.232ZM209.205 54.413C212.517 54.413 214.993 55.5477 216.634 57.817C218.29 60.071 219.118 63.107 219.118 66.925C219.118 69.317 218.742 71.456 217.991 73.342C217.24 75.228 216.12 76.723 214.633 77.827C213.161 78.9157 211.329 79.46 209.136 79.46C206.928 79.46 205.08 78.9387 203.593 77.896C202.121 76.838 201.009 75.3737 200.258 73.503C199.522 71.617 199.154 69.4397 199.154 66.971C199.154 64.5023 199.53 62.325 200.281 60.439C201.032 58.553 202.152 57.081 203.639 56.023C205.142 54.9497 206.997 54.413 209.205 54.413ZM209.205 56.92C206.936 56.92 205.211 57.7403 204.03 59.381C202.865 61.0217 202.282 63.5517 202.282 66.971C202.282 73.6103 204.567 76.93 209.136 76.93C213.705 76.93 215.99 73.595 215.99 66.925C215.99 63.5363 215.415 61.0217 214.265 59.381C213.13 57.7403 211.444 56.92 209.205 56.92ZM277.778 47.398L272.626 79H268.164L264.139 54.781L260.16 79H255.56L250.822 47.398H253.904L257.975 75.228L262.115 51.078H266.531L270.487 75.228L274.926 47.398H277.778ZM291.951 54.413C295.263 54.413 297.739 55.5477 299.38 57.817C301.036 60.071 301.864 63.107 301.864 66.925C301.864 69.317 301.488 71.456 300.737 73.342C299.986 75.228 298.866 76.723 297.379 77.827C295.907 78.9157 294.075 79.46 291.882 79.46C289.674 79.46 287.826 78.9387 286.339 77.896C284.867 76.838 283.755 75.3737 283.004 73.503C282.268 71.617 281.9 69.4397 281.9 66.971C281.9 64.5023 282.276 62.325 283.027 60.439C283.778 58.553 284.898 57.081 286.385 56.023C287.888 54.9497 289.743 54.413 291.951 54.413ZM291.951 56.92C289.682 56.92 287.957 57.7403 286.776 59.381C285.611 61.0217 285.028 63.5517 285.028 66.971C285.028 73.6103 287.313 76.93 291.882 76.93C296.451 76.93 298.736 73.595 298.736 66.925C298.736 63.5363 298.161 61.0217 297.011 59.381C295.876 57.7403 294.19 56.92 291.951 56.92ZM310.931 79V76.608H314.864V57.265H310.931V54.85H317.049L317.578 60.646C318.529 58.6833 319.663 57.15 320.982 56.046C322.316 54.9267 324.11 54.367 326.364 54.367C326.993 54.367 327.552 54.413 328.043 54.505C328.549 54.597 329.078 54.712 329.63 54.85L329.308 62.44H326.548V57.725L326.594 57.127C326.41 57.1117 326.218 57.104 326.019 57.104C324.072 57.104 322.416 57.771 321.051 59.105C319.686 60.4237 318.575 62.5167 317.716 65.384V76.608H322.684V79H310.931ZM346.724 45.075V73.526C346.724 74.7833 347.123 75.6727 347.92 76.194C348.733 76.7153 349.752 76.976 350.979 76.976C351.746 76.976 352.466 76.8993 353.141 76.746C353.831 76.5927 354.529 76.378 355.234 76.102L356.062 78.31C355.464 78.6013 354.705 78.862 353.785 79.092C352.865 79.3373 351.838 79.46 350.703 79.46C348.802 79.46 347.184 78.9463 345.85 77.919C344.531 76.8763 343.872 75.412 343.872 73.526V47.559H336.374V45.075H346.724ZM380.539 44.684L383.391 45.075V79H380.907L380.539 75.665C379.573 77.045 378.492 78.0263 377.296 78.609C376.115 79.1763 374.896 79.46 373.639 79.46C371.508 79.46 369.752 78.9387 368.372 77.896C367.007 76.838 365.995 75.3737 365.336 73.503C364.677 71.617 364.347 69.4473 364.347 66.994C364.347 64.5867 364.715 62.44 365.451 60.554C366.202 58.6527 367.276 57.1577 368.671 56.069C370.082 54.965 371.784 54.413 373.777 54.413C375.249 54.413 376.537 54.6737 377.641 55.195C378.745 55.701 379.711 56.4523 380.539 57.449V44.684ZM374.49 56.874C372.251 56.874 370.534 57.725 369.338 59.427C368.157 61.1137 367.567 63.6283 367.567 66.971C367.567 70.145 368.104 72.606 369.177 74.354C370.266 76.102 371.876 76.976 374.007 76.976C375.54 76.976 376.836 76.5467 377.894 75.688C378.967 74.8293 379.849 73.8863 380.539 72.859V60.301C379.834 59.2123 378.952 58.369 377.894 57.771C376.851 57.173 375.717 56.874 374.49 56.874ZM403.728 47.398L403.475 68.949H400.715L400.416 47.398H403.728ZM402.141 73.94C402.954 73.94 403.621 74.2083 404.142 74.745C404.679 75.2663 404.947 75.9027 404.947 76.654C404.947 77.436 404.679 78.103 404.142 78.655C403.621 79.1917 402.954 79.46 402.141 79.46C401.359 79.46 400.707 79.1917 400.186 78.655C399.68 78.103 399.427 77.436 399.427 76.654C399.427 75.9027 399.68 75.2663 400.186 74.745C400.707 74.2083 401.359 73.94 402.141 73.94Z" fill="url(#paint2_linear)"/>
<path d="M250 155L261.547 135L238.453 135L250 155ZM248 104L248 137L252 137L252 104L248 104Z" fill="white"/>
<defs>
<linearGradient id="paint0_linear" x1="190" y1="150" x2="624" y2="651" gradientUnits="userSpaceOnUse">
<stop stop-color="#151515"/>
<stop offset="1" stop-color="#C42C2D"/>
</linearGradient>
<linearGradient id="paint1_linear" x1="349" y1="278" x2="123" y2="144" gradientUnits="userSpaceOnUse">
<stop stop-color="white"/>
<stop offset="1" stop-color="#FFC3C4"/>
</linearGradient>
<linearGradient id="paint2_linear" x1="312.563" y1="151" x2="146.342" y2="3.12326" gradientUnits="userSpaceOnUse">
<stop stop-color="white"/>
<stop offset="1" stop-color="#FFC3C4"/>
</linearGradient>
</defs>
</svg>
