<svg width="650" height="390" viewBox="0 0 650 390" fill="none" xmlns="http://www.w3.org/2000/svg">
<rect width="650" height="390" fill="url(#paint0_linear)"/>
<path fill-rule="evenodd" clip-rule="evenodd" d="M184.581 305.741C187.033 309.419 189.679 311.257 192.521 311.257C195.378 311.257 198.689 310.027 202.455 307.566C201.961 309.512 201.713 311.467 201.713 313.43C201.713 315.157 201.908 316.912 202.298 318.695C203.747 325.381 207.424 330.534 213.33 334.156C218.567 337.331 224.333 338.919 230.629 338.919C235.699 338.919 240.881 337.777 246.173 335.493C254.196 331.983 260.409 326.69 264.81 319.614C267.039 315.881 268.153 312.678 268.153 310.004C267.596 307.106 266.871 305.212 265.98 304.321C265.033 303.485 264.002 303.067 262.888 303.067C261.718 303.067 260.548 303.457 259.378 304.237C257.706 305.519 256.871 307.023 256.871 308.75C256.871 309.92 257.456 311.174 258.626 312.511C259.907 313.792 260.548 315.074 260.548 316.355C260.548 317.692 260.158 319.141 259.378 320.701C257.874 323.709 255.84 326.021 253.277 327.637C248.541 330.479 242.998 331.899 236.646 331.899C230.796 331.899 225.448 330.423 220.601 327.47C217.202 325.464 214.5 322.846 212.494 319.614C210.377 316.049 209.318 312.149 209.318 307.914C209.318 305.334 209.747 302.866 210.603 300.512C211.195 299.723 211.491 299.098 211.491 298.638C211.491 298.577 211.483 298.521 211.467 298.47C212.091 297.181 212.852 295.927 213.748 294.71C217.091 290.253 222.495 286.799 229.961 284.347C231.465 283.846 232.969 283.428 234.474 283.094C235.588 282.815 236.284 282.676 236.563 282.676L238.736 282.926C241.299 283.484 244.558 283.762 248.514 283.762C257.205 283.762 264.726 280.921 271.078 275.238C273.306 273.344 274.421 271.867 274.421 270.809C274.421 270.363 274.198 270.14 273.752 270.14C273.195 270.14 272.582 270.363 271.914 270.809L267.986 273.734C264.699 275.739 260.214 276.742 254.531 276.742C251.968 276.742 249.154 276.547 246.09 276.157L243.023 275.635C243.496 275.096 244.045 274.462 244.669 273.734L248.931 268.552L257.372 258.273C261.216 253.537 264.253 249.971 266.481 247.576C272.721 240.834 278.042 237.464 282.443 237.464C284.672 237.464 286.566 238.299 288.126 239.971C288.238 240.082 288.321 240.194 288.377 240.305L288.544 240.472C289.77 242.032 290.383 243.676 290.383 245.403C290.383 246.35 290.216 247.297 289.881 248.244C289.491 249.526 289.074 250.334 288.628 250.668C288.238 251.002 287.569 251.225 286.622 251.336L285.954 251.42C285.285 251.42 284.616 251.281 283.948 251.002C281.942 250.278 280.856 248.913 280.689 246.907C280.689 246.016 280.856 245.403 281.19 245.069C281.859 244.233 282.193 243.62 282.193 243.23V243.146C282.193 242.868 282.054 242.729 281.775 242.729C280.828 242.729 279.602 243.481 278.098 244.985C275.925 247.158 274.839 249.191 274.839 251.086C274.839 252.033 275.117 252.952 275.674 253.844C275.953 254.401 276.343 254.846 276.844 255.181C277.847 256.184 279.351 256.685 281.357 256.685C283.029 256.685 285.034 255.989 287.374 254.596C292.277 251.309 295.119 247.464 295.899 243.063C296.01 242.227 296.066 241.559 296.066 241.057C296.066 238.884 295.397 236.99 294.06 235.374C292.333 233.201 290.132 232.115 287.458 232.115C280.159 232.115 270.911 238.55 259.712 251.42L240.242 275.162L225.949 272.731C222.328 272.285 219.124 272.062 216.339 272.062C214.166 272.062 212.244 272.201 210.572 272.48C206.059 273.371 201.909 275.517 198.12 278.915C196.894 280.029 196.086 281.06 195.696 282.007C195.474 282.342 195.362 282.62 195.362 282.843C195.362 283.289 195.613 283.511 196.114 283.511L196.114 283.511C196.393 283.511 196.783 283.4 197.284 283.177C197.73 282.954 198.733 282.258 200.293 281.088C202.131 279.639 205.363 278.915 209.987 278.915C212.327 278.915 215.141 279.11 218.428 279.5C222.996 280.169 225.81 280.642 226.868 280.921C223.581 282.759 221.408 284.069 220.35 284.849C217.118 287.021 214.221 289.473 211.658 292.203C208.459 295.563 206.032 298.95 204.376 302.362C202.491 303.724 200.684 304.404 198.956 304.404C196.839 304.404 194.972 303.318 193.356 301.145C191.852 299.251 189.958 296.381 187.674 292.537C184.888 288.191 182.91 284.152 181.74 280.419C180.459 276.129 179.818 271.895 179.818 267.716C179.818 263.259 180.542 258.858 181.991 254.512C184.721 246.322 190.543 237.909 199.457 229.274L203.636 225.429C205.363 223.702 206.226 222.449 206.226 221.669C206.226 221.223 205.976 221 205.474 221C204.471 221 203.106 221.78 201.379 223.34C197.702 226.571 194.025 230.193 190.348 234.204C180.208 245.459 174.386 256.211 172.881 266.463C172.547 268.636 172.38 270.864 172.38 273.149C172.38 274.43 172.436 275.711 172.547 276.993V277.494C172.603 277.494 172.631 277.522 172.631 277.578V277.661L173.132 284.013C172.742 290.81 169.984 296.409 164.859 300.811C162.574 302.816 160.346 303.847 158.173 303.903H157.421C155.136 303.736 153.354 302.844 152.072 301.229L151.32 300.644C151.209 300.588 151.097 300.56 150.986 300.56C150.54 300.56 149.899 300.811 149.064 301.312C146.835 302.705 145.303 304.265 144.467 305.992C144.356 306.215 144.3 306.466 144.3 306.744C144.3 307.58 145.024 308.444 146.473 309.335C148.033 310.338 149.76 310.839 151.654 310.839C155.053 310.839 159.064 309.14 163.689 305.741C166.864 303.29 169.594 300.727 171.879 298.053C174.107 295.434 175.584 293.429 176.308 292.036C176.642 292.983 178.982 296.883 183.328 303.736L184.832 306.076L184.581 305.741ZM206.979 235.04C206.087 235.207 205.14 235.904 204.137 237.129C203.301 238.188 202.41 239.246 201.463 240.305C196.114 246.879 191.824 252.367 188.593 256.769L186.253 260.028C185.473 261.142 185.055 261.755 184.999 261.867C184.888 262.201 184.832 262.451 184.832 262.619C184.832 263.566 185.25 264.039 186.086 264.039C186.643 264.039 187.395 263.566 188.342 262.619C193.412 257.549 198.482 252.005 203.552 245.988C206.616 242.534 208.455 240.361 209.068 239.469C209.291 239.135 209.486 238.745 209.653 238.299L209.82 237.046C209.82 235.932 209.263 235.235 208.149 234.956C207.759 234.956 207.369 234.984 206.979 235.04ZM231.883 289.445H231.799L231.799 289.445C230.351 289.724 228.93 290.81 227.537 292.704C227.036 293.317 226.785 293.791 226.785 294.125C226.785 294.515 227.565 294.933 229.125 295.379C230.796 295.936 233.108 296.214 236.061 296.214H250.268C255.561 296.214 259.601 295.573 262.386 294.292C263.891 293.456 265.033 292.398 265.813 291.116C266.203 290.559 266.398 290.141 266.398 289.863C266.398 289.529 266.231 289.361 265.896 289.361H265.813L264.225 289.946C262.553 290.559 260.631 290.866 258.458 290.866H244.168H242.914C238.791 290.866 235.95 290.615 234.39 290.114C234.278 290.114 234.139 290.086 233.972 290.03L233.889 289.947C232.886 289.612 232.217 289.445 231.883 289.445ZM342.281 310.923C342.281 311.647 342.476 312.009 342.866 312.009C343.256 312.009 343.869 311.814 344.704 311.424C346.71 310.366 348.27 308.861 349.384 306.911C349.551 306.577 349.774 305.602 350.053 303.986C352.28 293.415 354.014 285.985 355.254 281.695L356.822 280.586C358.661 279.528 360.611 278.999 362.672 278.999C364.733 278.999 366.266 280.001 367.268 282.007C367.714 283.066 367.937 284.319 367.937 285.768C367.937 287.161 367.714 288.749 367.268 290.532C365.876 295.546 364.065 300.114 361.836 304.237C361.168 305.574 360.499 306.689 359.831 307.58L357.992 309.586C357.491 310.366 357.24 310.951 357.24 311.341C357.24 311.787 357.574 312.009 358.243 312.009C358.911 311.842 359.636 311.48 360.416 310.923C361.976 309.864 363.424 308.499 364.761 306.828C365.876 305.435 367.798 302.259 370.528 297.301C370.639 297.134 370.723 296.967 370.779 296.799C374.344 290.504 377.854 286.074 381.309 283.511C384.707 281.004 387.743 279.751 390.418 279.751C392.981 279.751 395.544 280.893 398.106 283.177C400.669 285.684 401.951 288.999 401.951 293.122C401.951 297.022 400.781 300.254 398.441 302.817L397.939 303.318C396.268 304.488 394.596 305.073 392.925 305.073C391.309 305.073 389.889 304.544 388.663 303.485C387.437 302.426 386.601 301.841 386.156 301.73C385.654 301.563 385.125 301.479 384.568 301.479C383.955 301.479 383.342 301.591 382.729 301.814C380.668 302.482 379.386 303.847 378.885 305.909C378.774 306.354 378.718 306.772 378.718 307.162C378.718 308.555 379.247 309.697 380.306 310.589C381.476 311.647 383.203 312.176 385.487 312.176C389.777 312.176 394.179 310.338 398.691 306.661C399.137 306.326 399.555 305.964 399.945 305.574C406.408 299.891 409.639 293.791 409.639 287.272C409.639 285.712 409.416 284.208 408.971 282.759C408.927 282.615 408.882 282.472 408.835 282.331L411.394 280.586C413.567 279.416 416.325 278.831 419.668 278.831L424.599 279.082C416.631 284.598 412.648 290.309 412.648 296.214C412.648 299.111 413.456 301.674 415.071 303.903C416.854 306.354 420.225 308.639 425.184 310.756C430.031 312.761 433.095 314.154 434.376 314.934C435.602 315.659 436.744 316.494 437.803 317.441C443.096 322.066 445.742 327.665 445.742 334.239C445.742 338.028 444.851 341.538 443.068 344.769C440.784 348.781 436.577 351.594 430.449 353.21C427.161 354.101 423.902 354.547 420.671 354.547C413.205 354.547 407.188 352.263 402.619 347.694C401.394 346.469 400.446 345.299 399.778 344.184L399.444 343.516L399.36 343.432C398.134 341.204 397.521 339.17 397.521 337.331C397.521 335.939 397.884 334.629 398.608 333.404L398.691 333.236L399.109 332.819C400.558 331.259 401.282 330.144 401.282 329.476C401.282 329.03 401.059 328.807 400.614 328.807C399.889 328.807 398.747 329.392 397.187 330.562C392.451 334.239 390.084 338.446 390.084 343.181C390.084 345.967 391.031 348.725 392.925 351.455C397.549 358.085 404.931 361.4 415.071 361.4H416.325C426.855 360.899 435.853 356.971 443.319 349.616C446.661 346.329 449.169 342.931 450.84 339.421C450.951 339.142 451.091 338.864 451.258 338.585C452.651 335.186 453.347 331.871 453.347 328.64C453.347 325.52 452.706 322.484 451.425 319.531C449.308 314.906 446.244 311.285 442.232 308.666C440.784 307.719 438.193 306.466 434.46 304.906C431.841 303.847 429.919 302.984 428.694 302.315C423.011 299.362 420.169 295.351 420.169 290.281C420.169 287.996 420.866 286.158 422.259 284.765C423.039 283.874 424.431 283.149 426.437 282.592C428.944 281.701 431.563 281.255 434.293 281.255C435.63 281.255 436.995 281.366 438.388 281.589L443.569 282.592C449.698 284.096 455.13 284.849 459.866 284.849C463.543 284.849 466.802 284.403 469.644 283.511C473.092 282.425 476.581 280.517 480.109 277.788C479.672 280.446 479.248 283.301 478.836 286.353C477.276 298.22 475.661 306.884 473.989 312.344C471.426 321.258 467.554 328.111 462.373 332.902C460.701 334.407 459.866 335.632 459.866 336.579C459.866 337.025 460.089 337.248 460.534 337.248C461.816 337.248 463.849 335.855 466.635 333.069C474.045 325.659 479.171 316.439 482.012 305.407C483.182 300.894 484.603 292.621 486.274 280.586C488.057 267.939 490.23 258.301 492.793 251.671C494.576 247.214 496.693 243.453 499.144 240.389L503.239 236.126C504.409 234.845 504.994 233.87 504.994 233.201C504.939 232.811 504.716 232.616 504.326 232.616C502.989 232.616 501.039 233.898 498.476 236.461C494.464 240.472 491.233 244.734 488.781 249.247C487.054 252.423 485.55 255.849 484.269 259.527C483.074 263.045 481.948 267.642 480.891 273.316L478.084 275.321C474.964 277.049 471.315 277.912 467.136 277.912H466.134C461.565 277.912 454.907 276.881 446.16 274.82C437.357 272.926 430.671 271.979 426.103 271.979C419.863 271.979 414.347 273.984 409.556 277.996C408.824 278.578 408.202 279.13 407.688 279.652C406.206 276.922 404.014 274.977 401.115 273.817C399.555 273.204 397.967 272.898 396.351 272.898C393.956 272.898 391.476 273.539 388.914 274.82C384.289 276.993 379.581 280.475 374.79 285.266L375.542 280.754V279.667C375.542 276.881 374.651 274.764 372.868 273.316C371.921 272.536 370.639 272.146 369.024 272.146C365.471 272.146 361.867 273.325 358.213 275.684C358.567 275.111 358.744 274.656 358.744 274.319C358.744 273.873 358.466 273.65 357.908 273.65C357.853 273.65 357.045 273.734 355.485 273.901C352.198 274.346 349.05 274.569 346.041 274.569H344.871C341.751 274.569 338.325 274.374 334.592 273.984C334.425 273.984 334.258 273.956 334.091 273.901C330.567 273.545 327.783 273.285 325.738 273.118L329.494 268.552L337.935 258.273C341.779 253.537 344.816 249.971 347.044 247.576C353.284 240.834 358.605 237.464 363.006 237.464C365.235 237.464 367.129 238.299 368.689 239.971C368.801 240.082 368.884 240.194 368.94 240.305L369.107 240.472C370.333 242.032 370.946 243.676 370.946 245.403C370.946 246.35 370.779 247.297 370.444 248.244C370.054 249.526 369.636 250.334 369.191 250.668C368.801 251.002 368.132 251.225 367.185 251.336L366.516 251.42C365.848 251.42 365.179 251.281 364.511 251.002C362.505 250.278 361.419 248.913 361.251 246.907C361.251 246.016 361.419 245.403 361.753 245.069C362.421 244.233 362.756 243.62 362.756 243.23V243.146C362.756 242.868 362.616 242.729 362.338 242.729C361.391 242.729 360.165 243.481 358.661 244.985C356.488 247.158 355.401 249.191 355.401 251.086C355.401 252.033 355.68 252.952 356.237 253.844C356.516 254.401 356.906 254.846 357.407 255.181C358.41 256.184 359.914 256.685 361.92 256.685C363.591 256.685 365.597 255.989 367.937 254.596C372.84 251.309 375.681 247.464 376.461 243.063C376.573 242.227 376.629 241.559 376.629 241.057C376.629 238.884 375.96 236.99 374.623 235.374C372.896 233.201 370.695 232.115 368.021 232.115C360.722 232.115 351.474 238.55 340.275 251.42L322.65 272.912C322.417 272.902 322.219 272.898 322.056 272.898H320.719C310.523 272.898 302.501 275.823 296.651 281.673C295.369 282.843 294.729 283.846 294.729 284.681C294.729 285.239 295.035 285.517 295.648 285.517C296.149 285.517 296.679 285.35 297.236 285.016L299.994 282.759C303.894 280.141 309.298 278.831 316.206 278.831C316.913 278.831 317.637 278.846 318.38 278.875C318.392 279.128 318.503 279.28 318.714 279.333C319.102 279.333 319.531 279.209 320.002 278.96C320.806 279.013 321.63 279.081 322.474 279.166C322.14 279.5 321.806 279.806 321.471 280.085C313.616 286.994 309.688 293.512 309.688 299.641C309.688 302.928 310.719 305.686 312.78 307.914C315.287 310.644 318.435 312.009 322.223 312.009H323.059C326.681 312.009 331.528 309.753 337.601 305.24C340.498 303.179 342.782 301.256 344.454 299.474L342.281 310.923ZM328.742 279.918L336.681 280.503C337.406 280.559 338.214 280.586 339.105 280.586C342.169 280.586 346.014 280.336 350.638 279.834C349.746 281.283 348.911 283.066 348.131 285.183C348.075 285.294 348.047 285.406 348.047 285.517L346.125 291.618C344.621 295.128 341.668 298.471 337.266 301.646C333.979 303.931 331.054 305.073 328.491 305.073C325.984 305.073 323.7 304.293 321.639 302.733C318.686 300.449 317.209 297.496 317.209 293.874C317.209 292.537 317.432 291.2 317.878 289.863C319.104 286.074 321.499 283.289 325.065 281.506L328.742 279.918Z" fill="url(#paint1_linear)"/>
<path opacity="0.92" d="M180.559 89.2V73.698H167.357V89.2H164.436V57.598H167.357V71.306H180.559V57.598H183.48V89.2H180.559ZM194.847 78.275C194.893 80.299 195.253 81.9627 195.928 83.266C196.618 84.554 197.523 85.5047 198.642 86.118C199.761 86.7313 200.98 87.038 202.299 87.038C203.572 87.038 204.699 86.854 205.68 86.486C206.677 86.118 207.719 85.5583 208.808 84.807L210.303 86.946C209.184 87.8047 207.919 88.4717 206.508 88.947C205.113 89.4223 203.748 89.66 202.414 89.66C200.191 89.66 198.282 89.1387 196.687 88.096C195.108 87.0533 193.896 85.5967 193.053 83.726C192.21 81.84 191.788 79.6473 191.788 77.148C191.788 74.6947 192.217 72.525 193.076 70.639C193.935 68.753 195.123 67.281 196.641 66.223C198.174 65.1497 199.953 64.613 201.977 64.613C204.906 64.613 207.198 65.6633 208.854 67.764C210.51 69.8493 211.338 72.6937 211.338 76.297C211.338 76.711 211.33 77.0867 211.315 77.424C211.3 77.746 211.284 78.0297 211.269 78.275H194.847ZM202.046 67.281C200.099 67.281 198.458 67.971 197.124 69.351C195.805 70.731 195.062 72.847 194.893 75.699H208.624C208.563 72.8623 207.926 70.754 206.715 69.374C205.504 67.9787 203.947 67.281 202.046 67.281ZM228.8 55.275V83.726C228.8 84.9833 229.199 85.8727 229.996 86.394C230.809 86.9153 231.828 87.176 233.055 87.176C233.822 87.176 234.542 87.0993 235.217 86.946C235.907 86.7927 236.605 86.578 237.31 86.302L238.138 88.51C237.54 88.8013 236.781 89.062 235.861 89.292C234.941 89.5373 233.914 89.66 232.779 89.66C230.878 89.66 229.26 89.1463 227.926 88.119C226.607 87.0763 225.948 85.612 225.948 83.726V57.759H218.45V55.275H228.8ZM256.382 55.275V83.726C256.382 84.9833 256.781 85.8727 257.578 86.394C258.391 86.9153 259.41 87.176 260.637 87.176C261.404 87.176 262.124 87.0993 262.799 86.946C263.489 86.7927 264.187 86.578 264.892 86.302L265.72 88.51C265.122 88.8013 264.363 89.062 263.443 89.292C262.523 89.5373 261.496 89.66 260.361 89.66C258.46 89.66 256.842 89.1463 255.508 88.119C254.189 87.0763 253.53 85.612 253.53 83.726V57.759H246.032V55.275H256.382ZM284.355 64.613C287.667 64.613 290.143 65.7477 291.784 68.017C293.44 70.271 294.268 73.307 294.268 77.125C294.268 79.517 293.892 81.656 293.141 83.542C292.39 85.428 291.27 86.923 289.783 88.027C288.311 89.1157 286.479 89.66 284.286 89.66C282.078 89.66 280.23 89.1387 278.743 88.096C277.271 87.038 276.159 85.5737 275.408 83.703C274.672 81.817 274.304 79.6397 274.304 77.171C274.304 74.7023 274.68 72.525 275.431 70.639C276.182 68.753 277.302 67.281 278.789 66.223C280.292 65.1497 282.147 64.613 284.355 64.613ZM284.355 67.12C282.086 67.12 280.361 67.9403 279.18 69.581C278.015 71.2217 277.432 73.7517 277.432 77.171C277.432 83.8103 279.717 87.13 284.286 87.13C288.855 87.13 291.14 83.795 291.14 77.125C291.14 73.7363 290.565 71.2217 289.415 69.581C288.28 67.9403 286.594 67.12 284.355 67.12ZM352.928 57.598L347.776 89.2H343.314L339.289 64.981L335.31 89.2H330.71L325.972 57.598H329.054L333.125 85.428L337.265 61.278H341.681L345.637 85.428L350.076 57.598H352.928ZM367.101 64.613C370.413 64.613 372.889 65.7477 374.53 68.017C376.186 70.271 377.014 73.307 377.014 77.125C377.014 79.517 376.638 81.656 375.887 83.542C375.136 85.428 374.016 86.923 372.529 88.027C371.057 89.1157 369.225 89.66 367.032 89.66C364.824 89.66 362.976 89.1387 361.489 88.096C360.017 87.038 358.905 85.5737 358.154 83.703C357.418 81.817 357.05 79.6397 357.05 77.171C357.05 74.7023 357.426 72.525 358.177 70.639C358.928 68.753 360.048 67.281 361.535 66.223C363.038 65.1497 364.893 64.613 367.101 64.613ZM367.101 67.12C364.832 67.12 363.107 67.9403 361.926 69.581C360.761 71.2217 360.178 73.7517 360.178 77.171C360.178 83.8103 362.463 87.13 367.032 87.13C371.601 87.13 373.886 83.795 373.886 77.125C373.886 73.7363 373.311 71.2217 372.161 69.581C371.026 67.9403 369.34 67.12 367.101 67.12ZM386.081 89.2V86.808H390.014V67.465H386.081V65.05H392.199L392.728 70.846C393.679 68.8833 394.813 67.35 396.132 66.246C397.466 65.1267 399.26 64.567 401.514 64.567C402.143 64.567 402.702 64.613 403.193 64.705C403.699 64.797 404.228 64.912 404.78 65.05L404.458 72.64H401.698V67.925L401.744 67.327C401.56 67.3117 401.368 67.304 401.169 67.304C399.222 67.304 397.566 67.971 396.201 69.305C394.836 70.6237 393.725 72.7167 392.866 75.584V86.808H397.834V89.2H386.081ZM421.874 55.275V83.726C421.874 84.9833 422.273 85.8727 423.07 86.394C423.883 86.9153 424.902 87.176 426.129 87.176C426.896 87.176 427.616 87.0993 428.291 86.946C428.981 86.7927 429.679 86.578 430.384 86.302L431.212 88.51C430.614 88.8013 429.855 89.062 428.935 89.292C428.015 89.5373 426.988 89.66 425.853 89.66C423.952 89.66 422.334 89.1463 421 88.119C419.681 87.0763 419.022 85.612 419.022 83.726V57.759H411.524V55.275H421.874ZM455.689 54.884L458.541 55.275V89.2H456.057L455.689 85.865C454.723 87.245 453.642 88.2263 452.446 88.809C451.265 89.3763 450.046 89.66 448.789 89.66C446.658 89.66 444.902 89.1387 443.522 88.096C442.157 87.038 441.145 85.5737 440.486 83.703C439.827 81.817 439.497 79.6473 439.497 77.194C439.497 74.7867 439.865 72.64 440.601 70.754C441.352 68.8527 442.426 67.3577 443.821 66.269C445.232 65.165 446.934 64.613 448.927 64.613C450.399 64.613 451.687 64.8737 452.791 65.395C453.895 65.901 454.861 66.6523 455.689 67.649V54.884ZM449.64 67.074C447.401 67.074 445.684 67.925 444.488 69.627C443.307 71.3137 442.717 73.8283 442.717 77.171C442.717 80.345 443.254 82.806 444.327 84.554C445.416 86.302 447.026 87.176 449.157 87.176C450.69 87.176 451.986 86.7467 453.044 85.888C454.117 85.0293 454.999 84.0863 455.689 83.059V70.501C454.984 69.4123 454.102 68.569 453.044 67.971C452.001 67.373 450.867 67.074 449.64 67.074ZM478.878 57.598L478.625 79.149H475.865L475.566 57.598H478.878ZM477.291 84.14C478.104 84.14 478.771 84.4083 479.292 84.945C479.829 85.4663 480.097 86.1027 480.097 86.854C480.097 87.636 479.829 88.303 479.292 88.855C478.771 89.3917 478.104 89.66 477.291 89.66C476.509 89.66 475.857 89.3917 475.336 88.855C474.83 88.303 474.577 87.636 474.577 86.854C474.577 86.1027 474.83 85.4663 475.336 84.945C475.857 84.4083 476.509 84.14 477.291 84.14Z" fill="url(#paint2_linear)"/>
<path d="M325 201.5L336.547 181.5L313.453 181.5L325 201.5ZM323 135.2L323 183.5L327 183.5L327 135.2L323 135.2Z" fill="white"/>
<defs>
<linearGradient id="paint0_linear" x1="247" y1="195" x2="811.2" y2="846.3" gradientUnits="userSpaceOnUse">
<stop stop-color="#151515"/>
<stop offset="1" stop-color="#C42C2D"/>
</linearGradient>
<linearGradient id="paint1_linear" x1="453.7" y1="361.4" x2="159.9" y2="187.2" gradientUnits="userSpaceOnUse">
<stop stop-color="white"/>
<stop offset="1" stop-color="#FFC3C4"/>
</linearGradient>
<linearGradient id="paint2_linear" x1="406.331" y1="196.3" x2="190.245" y2="4.06024" gradientUnits="userSpaceOnUse">
<stop stop-color="white"/>
<stop offset="1" stop-color="#FFC3C4"/>
</linearGradient>
</defs>
</svg>
