<svg width="650" height="390" viewBox="0 0 650 390" fill="none" xmlns="http://www.w3.org/2000/svg">
<g clip-path="url(#clip0)">
<rect width="650" height="390" fill="#AA0000"/>
<path d="M91.6736 208.285C91.5774 214.265 89.4414 219.105 85.2656 222.803C81.1211 226.501 75.5214 228.514 68.4666 228.843C60.8811 229.198 54.7954 227.167 50.2094 222.751C45.6532 218.302 43.1225 212.007 42.6172 203.866L42.4729 200.775C42.0924 192.628 43.9893 186.017 48.1633 180.941C52.3686 175.865 58.2328 173.151 65.7559 172.799C72.8107 172.47 78.5431 173.97 82.9532 177.299C87.3633 180.628 90.0255 185.384 90.9399 191.567L77.4078 192.199C76.8157 186.22 73.1016 183.39 66.2653 183.709C59.148 184.042 55.7126 189.192 55.9591 199.16L56.1209 202.625C56.3818 208.213 57.429 212.215 59.2625 214.632C61.1272 217.048 64.0261 218.164 67.9593 217.98C71.3619 217.821 73.8895 217.015 75.5423 215.561C77.2262 214.106 78.077 211.892 78.0946 208.92L91.6736 208.285ZM129.227 210.568C129.143 208.757 128.31 207.341 126.729 206.32C125.149 205.299 122.496 204.437 118.772 203.735C115.048 203.033 111.899 202.257 109.325 201.408C106.781 200.526 104.666 199.451 102.98 198.185C101.294 196.918 100.021 195.429 99.1585 193.717C98.295 191.975 97.8064 189.886 97.6927 187.451C97.4741 182.768 99.2451 178.822 103.006 175.612C106.766 172.402 111.721 170.653 117.871 170.366C124.582 170.053 130.07 171.329 134.333 174.196C138.626 177.03 140.896 181.085 141.142 186.361L127.61 186.992C127.517 184.995 126.627 183.362 124.941 182.096C123.287 180.828 121.101 180.257 118.386 180.384C115.982 180.496 114.056 181.118 112.607 182.25C111.158 183.381 110.471 184.742 110.545 186.335C110.62 187.927 111.461 189.186 113.068 190.112C114.674 191.006 117.309 191.822 120.972 192.558C128.32 193.81 133.62 195.769 136.873 198.432C140.157 201.094 141.91 204.814 142.133 209.59C142.36 214.459 140.621 218.404 136.914 221.424C133.205 224.413 128.027 226.062 121.378 226.373C116.851 226.584 112.728 226.042 109.007 224.745C105.286 223.448 102.364 221.489 100.239 218.866C98.1455 216.242 97.0121 213.073 96.8386 209.358L110.418 208.724C110.553 211.627 111.54 213.677 113.38 214.874C115.25 216.069 117.98 216.583 121.57 216.416C124.005 216.302 125.901 215.713 127.259 214.648C128.648 213.582 129.304 212.222 129.227 210.568ZM180.64 208.167C180.555 206.357 179.723 204.941 178.142 203.92C176.562 202.898 173.909 202.037 170.185 201.335C166.461 200.633 163.312 199.857 160.738 199.007C158.194 198.125 156.079 197.051 154.393 195.784C152.707 194.518 151.433 193.028 150.571 191.317C149.708 189.574 149.219 187.485 149.105 185.05C148.887 180.368 150.658 176.422 154.418 173.211C158.179 170.001 163.134 168.253 169.284 167.965C175.995 167.652 181.483 168.929 185.746 171.796C190.039 174.63 192.309 178.684 192.555 183.96L179.023 184.592C178.93 182.594 178.04 180.962 176.354 179.695C174.699 178.427 172.514 177.857 169.798 177.984C167.395 178.096 165.469 178.718 164.02 179.849C162.571 180.98 161.884 182.342 161.958 183.934C162.032 185.526 162.873 186.785 164.481 187.711C166.087 188.606 168.721 189.421 172.385 190.157C179.732 191.41 185.033 193.368 188.285 196.032C191.569 198.694 193.323 202.413 193.546 207.189C193.773 212.059 192.033 216.004 188.326 219.023C184.618 222.012 179.439 223.662 172.79 223.972C168.264 224.184 164.141 223.641 160.42 222.344C156.699 221.048 153.776 219.088 151.652 216.466C149.558 213.842 148.425 210.672 148.251 206.958L161.83 206.324C161.966 209.227 162.953 211.277 164.792 212.473C166.663 213.669 169.393 214.183 172.982 214.015C175.417 213.901 177.314 213.312 178.672 212.248C180.061 211.182 180.717 209.821 180.64 208.167ZM241.68 205.927L217.051 207.077L213.024 221.343L198.087 222.04L220.282 152.68L233.3 152.072L262.002 219.056L247.065 219.753L241.68 205.927ZM220.312 195.522L237.356 194.726L227.596 169.607L220.312 195.522ZM315.569 216.555L302.036 217.187L278.91 184.198L280.497 218.192L266.918 218.826L264.371 164.276L277.95 163.642L301.079 196.678L299.489 162.637L313.021 162.005L315.569 216.555ZM339.355 215.444L325.776 216.078L323.229 161.528L336.808 160.894L339.355 215.444ZM364.902 159.582L380.245 195.703L392.06 158.314L409.994 157.477L412.541 212.027L398.915 212.663L398.399 201.613L398.466 172.891L385.57 213.286L376.533 213.708L359.983 174.828L362.719 203.279L363.235 214.329L349.61 214.965L347.063 160.415L364.902 159.582ZM455.274 199.614L434.157 200.6L430.802 211.174L417.223 211.808L436.262 156.25L448.998 155.656L473.319 209.189L459.646 209.827L455.274 199.614ZM437.345 190.503L451.065 189.862L443.32 171.735L437.345 190.503ZM518.388 163.396L500.689 164.223L502.724 207.816L489.145 208.45L487.11 164.857L469.738 165.668L469.226 154.711L517.876 152.439L518.388 163.396ZM561.739 182.301L539.217 183.353L539.77 195.199L566.272 193.962L566.779 204.825L526.698 206.696L524.151 152.147L564.279 150.273L564.791 161.23L538.241 162.469L538.707 172.443L561.229 171.391L561.739 182.301Z" fill="white"/>
<path d="M635.699 215.469L659.368 214.365L667.737 393.829L-13.6858 425.606L-22.0549 246.142L590.978 217.554L592.976 217.461L592.883 215.463L592.016 196.868L634.814 215.307L635.238 215.49L635.699 215.469Z" fill="#AA5500" stroke="white" stroke-width="4"/>
</g>
<defs>
<clipPath id="clip0">
<rect width="650" height="390" fill="white"/>
</clipPath>
</defs>
</svg>
