<svg width="650" height="390" viewBox="0 0 650 390" fill="none" xmlns="http://www.w3.org/2000/svg">
<rect width="650" height="390" fill="#2C2C2C"/>
<rect width="650" height="390" fill="url(#paint0_radial)"/>
<path d="M571.02 203.104L572.276 203.925L572.816 203.099L572.271 202.276L571.02 203.104ZM513.76 232.307L514.441 233.643L513.76 232.307ZM516.219 286.95L517.474 287.771L516.219 286.95ZM491.224 106.945L491.224 108.445L491.224 106.945ZM516.236 120.381L517.487 119.553L516.236 120.381ZM364.692 108.445L367.612 108.445L367.612 105.445L364.692 105.445L364.692 108.445ZM371.505 108.445L377.345 108.445L377.345 105.445L371.505 105.445L371.505 108.445ZM381.238 108.445L387.078 108.445L387.078 105.445L381.238 105.445L381.238 108.445ZM390.971 108.445L396.811 108.445L396.811 105.445L390.971 105.445L390.971 108.445ZM400.705 108.445L406.545 108.445L406.545 105.445L400.705 105.445L400.705 108.445ZM410.438 108.445L416.278 108.445L416.278 105.445L410.438 105.445L410.438 108.445ZM420.171 108.445L426.011 108.445L426.011 105.445L420.171 105.445L420.171 108.445ZM429.904 108.445L435.744 108.445L435.744 105.445L429.904 105.445L429.904 108.445ZM439.638 108.445L445.478 108.445L445.478 105.445L439.638 105.445L439.638 108.445ZM449.371 108.445L455.211 108.445L455.211 105.445L449.371 105.445L449.371 108.445ZM459.104 108.445L464.944 108.445L464.944 105.445L459.104 105.445L459.104 108.445ZM468.837 108.445L474.677 108.445L474.677 105.445L468.837 105.445L468.837 108.445ZM478.571 108.445L484.41 108.445L484.41 105.445L478.571 105.445L478.571 108.445ZM488.304 108.445L491.224 108.445L491.224 105.445L488.304 105.445L488.304 108.445ZM491.224 108.445C492.166 108.445 493.102 108.492 494.029 108.583L494.324 105.598C493.3 105.497 492.265 105.445 491.224 105.445L491.224 108.445ZM497.722 109.196C499.554 109.625 501.332 110.233 503.032 111.007L504.275 108.276C502.397 107.421 500.431 106.749 498.406 106.275L497.722 109.196ZM506.33 112.778C507.914 113.768 509.403 114.915 510.772 116.205L512.829 114.022C511.316 112.595 509.67 111.328 507.92 110.234L506.33 112.778ZM513.321 118.946C513.909 119.668 514.465 120.423 514.985 121.209L517.487 119.553C516.912 118.684 516.298 117.85 515.648 117.052L513.321 118.946ZM514.985 121.209L516.629 123.691L519.13 122.034L517.487 119.553L514.985 121.209ZM518.82 127L522.107 131.963L524.609 130.307L521.322 125.343L518.82 127ZM524.299 135.272L527.586 140.235L530.087 138.579L526.8 133.616L524.299 135.272ZM529.777 143.544L533.064 148.508L535.565 146.851L532.278 141.888L529.777 143.544ZM535.256 151.817L538.543 156.78L541.044 155.124L537.757 150.16L535.256 151.817ZM540.734 160.089L544.021 165.053L546.522 163.396L543.235 158.433L540.734 160.089ZM546.212 168.362L549.499 173.325L552.001 171.668L548.714 166.705L546.212 168.362ZM551.691 176.634L554.978 181.597L557.479 179.941L554.192 174.977L551.691 176.634ZM557.169 184.906L560.456 189.87L562.957 188.213L559.67 183.25L557.169 184.906ZM562.647 193.179L565.935 198.142L568.436 196.486L565.149 191.522L562.647 193.179ZM568.126 201.451L569.769 203.933L572.271 202.276L570.627 199.795L568.126 201.451ZM451.299 302.037H454.284V299.037H451.299V302.037ZM458.265 302.037H464.236V299.037H458.265V302.037ZM468.217 302.037H474.188V299.037H468.217V302.037ZM478.169 302.037H484.14V299.037H478.169V302.037ZM488.121 302.037H491.107V299.037H488.121V302.037ZM491.107 302.037C492.155 302.037 493.195 301.985 494.226 301.883L493.929 298.897C492.997 298.99 492.055 299.037 491.107 299.037V302.037ZM498.333 301.198C500.37 300.718 502.346 300.037 504.233 299.172L502.983 296.445C501.275 297.228 499.487 297.844 497.644 298.278L498.333 301.198ZM507.894 297.191C509.652 296.085 511.302 294.803 512.818 293.36L510.751 291.187C509.379 292.491 507.886 293.651 506.296 294.653L507.894 297.191ZM515.638 290.298C516.288 289.491 516.901 288.648 517.474 287.771L514.963 286.13C514.444 286.923 513.89 287.686 513.302 288.416L515.638 290.298ZM517.474 287.771L519.118 285.256L516.607 283.614L514.963 286.13L517.474 287.771ZM521.31 281.902L524.599 276.871L522.087 275.23L518.799 280.26L521.31 281.902ZM526.791 273.517L530.079 268.486L527.567 266.845L524.279 271.876L526.791 273.517ZM532.271 265.133L535.559 260.102L533.048 258.461L529.76 263.491L532.271 265.133ZM537.751 256.748L541.039 251.717L538.528 250.076L535.24 255.107L537.751 256.748ZM543.231 248.363L546.519 243.333L544.008 241.691L540.72 246.722L543.231 248.363ZM548.711 239.979L551.999 234.948L549.488 233.307L546.2 238.338L548.711 239.979ZM554.191 231.594L557.479 226.563L554.968 224.922L551.68 229.953L554.191 231.594ZM559.671 223.21L562.959 218.179L560.448 216.538L557.16 221.568L559.671 223.21ZM565.151 214.825L568.44 209.794L565.928 208.153L562.64 213.184L565.151 214.825ZM570.632 206.44L572.276 203.925L569.764 202.284L568.12 204.799L570.632 206.44ZM368.513 237.082H371.55V234.082H368.513V237.082ZM375.6 237.082H381.674V234.082H375.6V237.082ZM385.724 237.082H391.799V234.082H385.724V237.082ZM395.848 237.082H401.923V234.082H395.848V237.082ZM405.973 237.082H412.048V234.082H405.973V237.082ZM416.097 237.082H422.172V234.082H416.097V237.082ZM426.222 237.082H432.296V234.082H426.222V237.082ZM436.346 237.082H442.421V234.082H436.346V237.082ZM446.471 237.082H452.545V234.082H446.471V237.082ZM456.595 237.082H462.67V234.082H456.595V237.082ZM466.719 237.082H472.794V234.082H466.719V237.082ZM476.844 237.082H482.919V234.082H476.844V237.082ZM486.968 237.082H493.043V234.082H486.968V237.082ZM497.093 237.082H500.13V234.082H497.093V237.082ZM500.13 237.082C501.621 237.082 503.105 236.976 504.572 236.767L504.149 233.797C502.822 233.986 501.479 234.082 500.13 234.082V237.082ZM510.341 235.381C511.743 234.901 513.113 234.321 514.441 233.643L513.078 230.971C511.877 231.584 510.637 232.108 509.369 232.543L510.341 235.381ZM514.441 233.643L517.304 232.183L515.941 229.511L513.078 230.971L514.441 233.643ZM521.122 230.236L526.848 227.316L525.485 224.644L519.759 227.564L521.122 230.236ZM530.665 225.369L536.391 222.449L535.028 219.777L529.302 222.697L530.665 225.369ZM540.208 220.502L545.934 217.582L544.571 214.909L538.845 217.83L540.208 220.502ZM549.752 215.635L555.478 212.715L554.115 210.042L548.389 212.963L549.752 215.635ZM559.295 210.768L565.021 207.848L563.658 205.175L557.932 208.095L559.295 210.768ZM568.838 205.901L571.701 204.441L570.339 201.768L567.476 203.228L568.838 205.901Z" fill="#5E8DEB"/>
<path d="M571.02 203.105L570.338 204.441L570.66 204.605H571.02V203.105ZM513.76 173.902L514.441 172.566L513.76 173.902ZM432.194 172.127H435.106V169.127H432.194V172.127ZM438.988 172.127H444.811V169.127H438.988V172.127ZM448.693 172.127H454.516V169.127H448.693V172.127ZM458.398 172.127H464.221V169.127H458.398V172.127ZM468.103 172.127H473.926V169.127H468.103V172.127ZM477.808 172.127H483.631V169.127H477.808V172.127ZM487.513 172.127H493.336V169.127H487.513V172.127ZM497.218 172.127H500.13V169.127H497.218V172.127ZM500.13 172.127C501.479 172.127 502.822 172.223 504.149 172.412L504.572 169.442C503.105 169.233 501.621 169.127 500.13 169.127V172.127ZM509.369 173.666C510.637 174.101 511.877 174.625 513.078 175.238L514.441 172.566C513.113 171.888 511.743 171.308 510.341 170.828L509.369 173.666ZM513.078 175.238L515.941 176.698L517.304 174.026L514.441 172.566L513.078 175.238ZM519.759 178.645L525.485 181.565L526.848 178.893L521.122 175.973L519.759 178.645ZM529.302 183.512L535.028 186.432L536.391 183.76L530.665 180.84L529.302 183.512ZM538.845 188.379L544.571 191.3L545.934 188.627L540.208 185.707L538.845 188.379ZM548.389 193.246L554.115 196.167L555.478 193.494L549.752 190.574L548.389 193.246ZM557.932 198.114L563.658 201.034L565.021 198.361L559.295 195.441L557.932 198.114ZM567.475 202.981L570.338 204.441L571.701 201.768L568.838 200.308L567.475 202.981ZM571.02 204.605H573.567V201.605H571.02V204.605ZM576.964 204.605H582.058V201.605H576.964V204.605ZM585.454 204.605H590.549V201.605H585.454V204.605ZM593.945 204.605H596.493V201.605H593.945V204.605Z" fill="#E45252"/>
<path d="M286.363 106.945H128.922C120.496 106.945 112.459 110.488 106.775 116.708L81.9453 143.881M400.353 300.537C397.423 300.537 279.667 300.537 214.784 300.537C209.915 300.537 205.147 299.352 200.838 297.085L183.199 287.801M271.08 235.582H253.543C248.747 235.582 244.021 236.732 239.76 238.936L215.792 251.333C211.532 253.537 206.805 254.687 202.009 254.687H115.697" stroke="#5E8DEB" stroke-width="3" stroke-dasharray="6 4"/>
<path d="M409.269 170.627H365.567C360.807 170.627 356.114 171.76 351.878 173.932L315.098 192.794C310.861 194.966 306.169 196.1 301.408 196.1H202.94" stroke="#E45252" stroke-width="3" stroke-dasharray="6 4"/>
<path d="M308.652 101.851L293.368 175.085L385.707 68.0995" stroke="#5E8DEB" stroke-width="3"/>
<circle cx="385.07" cy="68.7363" r="12.7363" fill="#5E8DEB"/>
<circle cx="307.378" cy="100.577" r="12.7363" fill="#5E8DEB"/>
<circle cx="293.368" cy="170.627" r="12.7363" fill="#5E8DEB"/>
<path d="M430.92 206.925L414.363 138.786" stroke="#E45252" stroke-width="3"/>
<circle cx="429.646" cy="205.015" r="12.7363" fill="#E45252"/>
<circle cx="413.089" cy="140.06" r="12.7363" fill="#E45252"/>
<path d="M367.876 202.468L290.821 227.303L346.224 275.065L367.876 202.468Z" stroke="#5E8DEB" stroke-width="3"/>
<circle cx="368.512" cy="201.194" r="12.7363" fill="#5E8DEB"/>
<circle cx="290.821" cy="225.393" r="12.7363" fill="#5E8DEB"/>
<circle cx="345.587" cy="271.244" r="12.7363" fill="#5E8DEB"/>
<circle cx="425.826" cy="299.264" r="12.7363" fill="#5E8DEB"/>
<path d="M59.0199 160.438L43.7363 233.672M43.7363 233.672L120.791 208.836M43.7363 233.672L99.1393 281.433L120.791 208.836M43.7363 233.672L136.075 126.687L187.657 166.806L204.214 234.945M120.791 208.836L204.214 234.945M204.214 234.945L167.915 284.617" stroke="white" stroke-width="3"/>
<circle cx="57.7463" cy="159.164" r="12.7363" fill="white"/>
<circle cx="43.7363" cy="231.761" r="12.7363" fill="white"/>
<circle cx="98.5024" cy="277.612" r="12.7363" fill="white"/>
<circle cx="121.428" cy="207.562" r="12.7363" fill="white"/>
<circle cx="135.438" cy="127.323" r="12.7363" fill="white"/>
<circle cx="186.383" cy="168.08" r="12.7363" fill="white"/>
<circle cx="202.94" cy="233.035" r="12.7363" fill="white"/>
<circle cx="166.005" cy="282.707" r="12.7363" fill="white"/>
<path d="M612.27 210.905C611.485 212.01 610.351 212.998 608.926 212.998C608.577 212.998 607.181 212.94 606.745 211.603C606.832 211.632 606.978 211.632 607.036 211.632C607.908 211.632 608.49 210.876 608.49 210.207C608.49 209.538 607.937 209.306 607.501 209.306C607.036 209.306 606.018 209.655 606.018 211.079C606.018 212.562 607.269 213.58 608.926 213.58C611.834 213.58 614.77 210.905 615.584 207.678L618.434 196.338C618.463 196.192 618.521 196.018 618.521 195.844C618.521 195.407 618.172 195.117 617.736 195.117C617.474 195.117 616.864 195.233 616.631 196.105L614.479 204.654C614.334 205.177 614.334 205.235 614.101 205.555C613.52 206.369 612.56 207.358 611.165 207.358C609.537 207.358 609.391 205.758 609.391 204.973C609.391 203.316 610.176 201.077 610.961 198.984C611.281 198.141 611.456 197.733 611.456 197.152C611.456 195.931 610.583 194.826 609.159 194.826C606.484 194.826 605.408 199.042 605.408 199.275C605.408 199.391 605.524 199.536 605.728 199.536C605.989 199.536 606.018 199.42 606.135 199.013C606.832 196.57 607.937 195.407 609.071 195.407C609.333 195.407 609.827 195.407 609.827 196.367C609.827 197.123 609.507 197.966 609.071 199.071C607.647 202.88 607.647 203.839 607.647 204.537C607.647 207.3 609.624 207.939 611.078 207.939C611.921 207.939 612.967 207.678 613.985 206.602L614.014 206.631C613.578 208.346 613.287 209.48 612.27 210.905Z" fill="#E45252"/>
<defs>
<radialGradient id="paint0_radial" cx="0" cy="0" r="1" gradientUnits="userSpaceOnUse" gradientTransform="translate(325 195) rotate(90) scale(325 508.209)">
<stop offset="0.180253" stop-opacity="0"/>
<stop offset="0.653751" stop-opacity="0.2"/>
</radialGradient>
</defs>
</svg>
